<svg width="109" height="113" viewBox="0 0 109 113" fill="none" xmlns="http://www.w3.org/2000/svg">
<path d="M100.186 47.1038L86.2805 33.1985C85.8938 32.8118 85.3664 32.5921 84.8126 32.6008H41.3215C40.7765 32.5921 40.2491 32.8206 39.8536 33.2073C39.4756 33.6029 39.2647 34.1302 39.2823 34.6752V110.837C39.2471 111.998 40.1612 112.965 41.3215 113H98.7267C99.8869 112.965 100.801 111.998 100.766 110.837V48.5628C100.766 48.0179 100.555 47.4993 100.186 47.1038ZM86.8343 39.7468L93.655 46.5324H86.8343V39.7468ZM96.5556 108.798H43.4925V36.8023H82.6328V48.598C82.668 49.7758 83.6348 50.7163 84.8126 50.7251H96.5556V108.798Z" fill="#0E1A2D"/>
<path d="M99.3845 0H9.06213C4.06961 0 0 4.12234 0 9.30824V82.1217C0 87.3164 4.06961 91.4387 9.06213 91.4387H21.4379V87.7646H9.06213C6.09123 87.7646 3.67407 85.2859 3.67407 82.1217V25.9558H104.773V82.1217C104.773 84.7762 103.067 86.9472 100.765 87.5713C100.325 87.7031 99.8592 87.7646 99.3845 87.7646H96.5543V91.4387H99.3845C99.8504 91.4387 100.316 91.4035 100.765 91.3332C105.107 90.6564 108.447 86.8329 108.447 82.1217V9.30824C108.447 4.12234 104.377 0 99.3845 0ZM104.773 22.2818H3.67407V9.30824C3.67407 6.14396 6.09123 3.67407 9.06213 3.67407H99.3845C102.347 3.67407 104.773 6.14396 104.773 9.30824V22.2818ZM28.8476 87.7646V91.4387H43.4912V87.7646H28.8476Z" fill="#0E1A2D"/>
<path d="M28.3295 6.21387C24.6643 6.21387 21.6758 9.29903 21.6758 13.105C21.6758 16.9021 24.6643 19.996 28.3295 19.996C32.0036 19.996 34.9921 16.9021 34.9921 13.105C34.9921 9.29903 32.0036 6.21387 28.3295 6.21387ZM28.3295 16.3132C26.6947 16.3132 25.3499 14.8717 25.3499 13.105C25.3499 11.3294 26.6947 9.88794 28.3295 9.88794C29.9732 9.88794 31.3092 11.3294 31.3092 13.105C31.3092 14.8717 29.9732 16.3132 28.3295 16.3132Z" fill="#0E1A2D"/>
<path d="M43.9838 6.21387C40.3186 6.21387 37.3301 9.29903 37.3301 13.105C37.3301 16.9021 40.3186 19.996 43.9838 19.996C47.6579 19.996 50.6464 16.9021 50.6464 13.105C50.6464 9.29903 47.6579 6.21387 43.9838 6.21387ZM43.9838 16.3132C42.349 16.3132 41.0042 14.8717 41.0042 13.105C41.0042 11.3294 42.349 9.88794 43.9838 9.88794C45.6275 9.88794 46.9635 11.3294 46.9635 13.105C46.9635 14.8717 45.6275 16.3132 43.9838 16.3132Z" fill="#0E1A2D"/>
<path d="M12.6752 6.21387C9.00996 6.21387 6.02148 9.29903 6.02148 13.105C6.02148 16.9021 9.00996 19.996 12.6752 19.996C16.3493 19.996 19.329 16.9021 19.329 13.105C19.329 9.29903 16.3493 6.21387 12.6752 6.21387ZM12.6752 16.3132C11.0316 16.3132 9.69556 14.8717 9.69556 13.105C9.69556 11.3294 11.0316 9.88794 12.6752 9.88794C14.3189 9.88794 15.6549 11.3294 15.6549 13.105C15.6549 14.8717 14.3189 16.3132 12.6752 16.3132Z" fill="#0E1A2D"/>
<path d="M31.8701 69.6043L26.5172 59.5225C26.2271 58.9688 25.6997 58.626 25.1372 58.626C24.5746 58.626 24.0561 58.9688 23.7572 59.5225L18.4131 69.6043C18.2549 69.9031 18.1758 70.2459 18.1758 70.5887L18.1934 87.7637V91.4377L18.2109 104.921C18.2109 109.36 21.3137 112.964 25.1372 112.964C28.9695 112.964 32.0722 109.36 32.0722 104.921L32.0898 91.4377V87.7637L32.1074 70.5887C32.1074 70.2371 32.0195 69.9031 31.8701 69.6043ZM25.1372 64.0228L27.5895 68.6374H22.6937L25.1372 64.0228ZM28.8288 104.886C28.8288 107.25 27.1764 109.175 25.1372 109.193C23.098 109.175 21.4543 107.25 21.4543 104.886L21.4455 101.291H28.8288V104.886ZM28.8464 91.4377L28.8376 97.5378H21.4455L21.4367 91.4377V87.7637L21.4192 72.3994H28.864L28.8464 87.7637V91.4377Z" fill="#0E1A2D"/>
<path d="M64.7441 61.712C64.7441 62.7228 65.5704 63.5491 66.5812 63.5491H86.5513C87.5621 63.5491 88.3883 62.7228 88.3883 61.712C88.3883 60.7012 87.5621 59.875 86.5513 59.875H66.5812C65.5616 59.875 64.7441 60.6924 64.7441 61.712Z" fill="#0E1A2D"/>
<path d="M86.5513 65.8447H66.5812C65.5704 65.8447 64.7441 66.671 64.7441 67.6818C64.7441 68.6926 65.5704 69.5188 66.5812 69.5188H86.5513C87.5621 69.5188 88.3883 68.6926 88.3883 67.6818C88.3883 66.671 87.5621 65.8447 86.5513 65.8447Z" fill="#0E1A2D"/>
<path d="M54.313 65.457L51.0432 62.1873C50.5246 61.6687 50.5246 60.8336 51.0432 60.3239C51.5618 59.8053 52.3968 59.8053 52.9066 60.3239L54.313 61.7302L60.8261 55.2171C61.3447 54.6985 62.1797 54.6985 62.6895 55.2171C63.2081 55.7357 63.2081 56.5707 62.6895 57.0805L54.313 65.457Z" fill="#0E1A2D"/>
<path d="M59.286 69.3866H48.6944C47.8155 69.3866 47.1035 68.6747 47.1035 67.7957V57.4151C47.1035 56.5362 47.8155 55.8242 48.6944 55.8242H55.8053C56.6842 55.8242 57.3962 56.5362 57.3962 57.4151C57.3962 58.2941 56.6842 59.0061 55.8053 59.0061H50.2854V66.2048H57.6862V63.6646C57.6862 62.7856 58.3982 62.0737 59.2772 62.0737C60.1561 62.0737 60.8681 62.7856 60.8681 63.6646V67.7957C60.8769 68.6747 60.1649 69.3866 59.286 69.3866Z" fill="#0E1A2D"/>
<path d="M64.7441 83.6232C64.7441 84.634 65.5704 85.4602 66.5812 85.4602H86.5513C87.5621 85.4602 88.3883 84.634 88.3883 83.6232C88.3883 82.6124 87.5621 81.7861 86.5513 81.7861H66.5812C65.5616 81.7861 64.7441 82.6124 64.7441 83.6232Z" fill="#0E1A2D"/>
<path d="M64.7524 89.7941C64.8491 90.7522 65.728 91.4466 66.6861 91.4466H77.6292C78.6049 91.4466 79.5102 90.7434 79.5893 89.7766C79.686 88.6866 78.8246 87.7725 77.7611 87.7725H66.5806C65.4995 87.7637 64.6381 88.6866 64.7524 89.7941Z" fill="#0E1A2D"/>
<path d="M54.313 87.3769L51.0432 84.1072C50.5246 83.5886 50.5246 82.7536 51.0432 82.2438C51.5618 81.7252 52.3968 81.7252 52.9066 82.2438L54.313 83.6501L60.8261 77.137C61.3447 76.6184 62.1797 76.6184 62.6895 77.137C63.2081 77.6556 63.2081 78.4906 62.6895 79.0004L54.313 87.3769Z" fill="#0E1A2D"/>
<path d="M59.286 91.2958H48.6944C47.8155 91.2958 47.1035 90.5839 47.1035 89.7049V79.3243C47.1035 78.4454 47.8155 77.7334 48.6944 77.7334H55.8053C56.6842 77.7334 57.3962 78.4454 57.3962 79.3243C57.3962 80.2033 56.6842 80.9152 55.8053 80.9152H50.2854V88.114H57.6862V85.5738C57.6862 84.6948 58.3982 83.9828 59.2772 83.9828C60.1561 83.9828 60.8681 84.6948 60.8681 85.5738V89.7049C60.8769 90.5839 60.1649 91.2958 59.286 91.2958Z" fill="#0E1A2D"/>
</svg>
