<svg xmlns="http://www.w3.org/2000/svg" width="388.012" height="285.205" viewBox="0 0 388.012 285.205"><defs><style>.a,.c{fill:#fff;}.b{fill:#158f8d;}.c{stroke:#fff;stroke-miterlimit:10;stroke-width:0.25px;}.d{fill:#10615d;}.e{fill:#f99b00;}.f{fill:#2d348b;}.g{fill:#575799;}.h,.i{fill:#6964aa;}.i{opacity:0.2;}.j{fill:#9b4b1a;}</style></defs><g transform="translate(-93.257 -320.716)"><g transform="translate(93.257 320.716)"><path class="a" d="M121.067,357.9a16.471,16.471,0,0,0-16.422,16.484V550.7a1.81,1.81,0,0,0,1.805,1.811H413.48a1.81,1.81,0,0,0,1.805-1.811V374.382A16.473,16.473,0,0,0,398.862,357.9Z" transform="translate(-83.729 -289.607)"/><g transform="translate(0 67.082)"><g transform="translate(19.711)"><path class="b" d="M414.029,554.27H107a3.017,3.017,0,0,1-3.01-3.019V374.933a17.679,17.679,0,0,1,17.626-17.693h277.8a17.679,17.679,0,0,1,17.627,17.693V551.251A3.017,3.017,0,0,1,414.029,554.27Z" transform="translate(-103.989 -357.24)"/></g><g transform="translate(34.305 13.876)"><rect class="c" width="282.656" height="169.608" transform="translate(0.602 0.605)"/><path class="c" d="M395.8,535.612H111.935V364.8H395.8Zm-282.657-1.207H394.592V366H113.138Z" transform="translate(-111.935 -364.795)"/></g><g transform="translate(0 195.822)"><path class="d" d="M420.4,486.159H114.043a20.849,20.849,0,0,1-20.786-20.865v-1.436H441.182v1.436A20.849,20.849,0,0,1,420.4,486.159Z" transform="translate(-93.257 -463.858)"/></g><g transform="translate(135.862 195.822)"><path class="e" d="M231.226,469.609H172.959a5.5,5.5,0,0,1-5.484-5.5H236.71A5.5,5.5,0,0,1,231.226,469.609Z" transform="translate(-167.023 -463.651)"/><path class="e" d="M231.431,470.27H173.165a5.954,5.954,0,0,1-5.936-5.958v-.454h70.137v.454A5.952,5.952,0,0,1,231.431,470.27Zm-63.279-5.5a5.045,5.045,0,0,0,5.012,4.6h58.266a5.047,5.047,0,0,0,5.012-4.6Z" transform="translate(-167.229 -463.858)"/></g></g><g transform="translate(226.18)"><g transform="translate(16.587 20.471)"><path class="f" d="M313.654,408.588l-87.907-30.148L241.5,332.176,329.4,362.323Z" transform="translate(-225.174 -331.599)"/><path class="f" d="M314.2,409.426l-.426-.147-88.334-30.294,16.04-47.123.428.149L330.237,362.3l-.147.428Zm-87.616-31,87.054,29.853,15.456-45.408-87.052-29.853Z" transform="translate(-225.435 -331.862)"/></g><path class="g" d="M368.483,383.789,216.716,331.741l3.646-10.711,151.767,52.048Z" transform="translate(-216.143 -320.453)"/><path class="g" d="M369.025,384.626l-.426-.147L216.4,332.285l3.938-11.569.426.149,152.2,52.194ZM217.55,331.721l150.913,51.754,3.354-9.852L220.9,321.868Z" transform="translate(-216.404 -320.716)"/><g transform="translate(16.491 20.471)"><path class="h" d="M329.4,362.323,225.747,378.441,241.5,332.176Z" transform="translate(-225.079 -331.599)"/><path class="h" d="M225.383,379.264l16.135-47.4.428.149,89.642,30.74Zm16.7-46.251L226.718,378.14l101.108-15.722Z" transform="translate(-225.383 -331.862)"/></g><g transform="translate(83.015 26.237)"><path class="f" d="M334.369,418.353a1.2,1.2,0,0,1-1.2-1.208v-55.1L262.658,337.6a1.208,1.208,0,0,1,.786-2.285l72.128,25.008v56.823A1.2,1.2,0,0,1,334.369,418.353Z" transform="translate(-261.397 -334.795)"/><path class="f" d="M334.574,419.013a1.661,1.661,0,0,1-1.655-1.66v-54.78l-70.2-24.34a1.661,1.661,0,0,1,1.08-3.141l72.433,25.113v57.148A1.66,1.66,0,0,1,334.574,419.013Zm-71.316-83.105a.755.755,0,0,0-.246,1.468l70.811,24.551v55.427a.752.752,0,1,0,1.5,0v-56.5l-71.825-24.9A.749.749,0,0,0,263.258,335.908Z" transform="translate(-261.603 -335.001)"/></g><g transform="translate(150.028 105.324)"><g transform="translate(0.602 0.604)"><rect class="e" width="10.601" height="17.734"/></g><path class="e" d="M309.893,397h-11.8V378.061h11.8Zm-10.6-1.207h9.4V379.27h-9.4Z" transform="translate(-298.089 -378.061)"/></g></g><path class="i" d="M136.592,380.233v118.86a8.9,8.9,0,0,0,8.9,8.9H320.657a8.9,8.9,0,0,0,8.9-8.9V380.233Z" transform="translate(-57 -270.92)"/><path class="e" d="M329.559,382.192a8.9,8.9,0,0,0-8.9-8.9H145.5a8.9,8.9,0,0,0-8.9,8.9v3.85H329.559Z" transform="translate(-57 -276.729)"/><g transform="translate(243.318 100.049)"><path class="a" d="M234.779,378.076a2.887,2.887,0,1,1,2.887,2.887A2.886,2.886,0,0,1,234.779,378.076Z" transform="translate(-218.168 -375.189)"/><path class="a" d="M230.257,378.076a2.887,2.887,0,1,1,2.887,2.887A2.887,2.887,0,0,1,230.257,378.076Z" transform="translate(-221.952 -375.189)"/><path class="a" d="M225.735,378.076a2.887,2.887,0,1,1,2.887,2.887A2.887,2.887,0,0,1,225.735,378.076Z" transform="translate(-225.735 -375.189)"/></g></g><rect class="j" width="0.085" height="0.345" transform="translate(297.159 436.314)"/><rect class="h" width="70.833" height="70.828" transform="translate(192.21 455.579)"/><rect class="d" width="32.128" height="10.683" transform="translate(272.371 456.545)"/><rect class="d" width="32.125" height="10.689" transform="translate(313.663 456.187)"/><rect class="d" width="72.56" height="4.419" transform="translate(272.711 478.726)"/><rect class="d" width="72.56" height="4.417" transform="translate(272.711 491.209)"/><rect class="d" width="49.06" height="4.421" transform="translate(272.371 505.164)"/><rect class="d" width="64.611" height="4.418" transform="translate(272.54 517.498)"/><rect class="d" width="70.139" height="3.8" transform="translate(192.903 533.317)"/></g></svg>