<svg width="110" height="113" viewBox="0 0 110 113" fill="none" xmlns="http://www.w3.org/2000/svg">
<path d="M83.2796 87.5647V88.4875C83.2796 89.3489 83.6338 90.1926 84.2447 90.799C84.413 90.966 84.5989 91.1154 84.7937 91.2385H88.3971C88.6008 91.1154 88.7867 90.966 88.9549 90.799C89.2648 90.5002 89.5039 90.1399 89.6633 89.7444C89.8315 89.3489 89.92 88.927 89.92 88.4875V87.5647H83.2796ZM91.5757 87.5647V90.1311C91.5757 90.509 91.6465 90.8869 91.7793 91.2385H97.9505C98.0833 90.8869 98.1541 90.509 98.1541 90.1311V87.5647H91.5757ZM75.4085 87.5647V88.4875C75.4085 89.3489 75.7627 90.1926 76.3736 90.799C76.5419 90.966 76.7367 91.1154 76.9403 91.2385H80.4553C80.6589 91.1154 80.8537 90.966 81.0219 90.799C81.6328 90.1926 81.987 89.3489 81.987 88.4875V87.5647H75.4085ZM83.2796 87.5647V88.4875C83.2796 89.3489 83.6338 90.1926 84.2447 90.799C84.413 90.966 84.5989 91.1154 84.7937 91.2385H88.3971C88.6008 91.1154 88.7867 90.966 88.9549 90.799C89.2648 90.5002 89.5039 90.1399 89.6633 89.7444C89.8315 89.3489 89.92 88.927 89.92 88.4875V87.5647H83.2796ZM91.5757 87.5647V90.1311C91.5757 90.509 91.6465 90.8869 91.7793 91.2385H97.9505C98.0833 90.8869 98.1541 90.509 98.1541 90.1311V87.5647H91.5757ZM68.8213 87.5647V88.8215L68.1395 87.5647H63.686L65.6781 91.2385H72.7435V87.5647H68.8213ZM75.4085 87.5647V88.4875C75.4085 89.3489 75.7627 90.1926 76.3736 90.799C76.5419 90.966 76.7367 91.1154 76.9403 91.2385H80.4553C80.6589 91.1154 80.8537 90.966 81.0219 90.799C81.6328 90.1926 81.987 89.3489 81.987 88.4875V87.5647H75.4085ZM83.2796 87.5647V88.4875C83.2796 89.3489 83.6338 90.1926 84.2447 90.799C84.413 90.966 84.5989 91.1154 84.7937 91.2385H88.3971C88.6008 91.1154 88.7867 90.966 88.9549 90.799C89.2648 90.5002 89.5039 90.1399 89.6633 89.7444C89.8315 89.3489 89.92 88.927 89.92 88.4875V87.5647H83.2796ZM91.5757 87.5647V90.1311C91.5757 90.509 91.6465 90.8869 91.7793 91.2385H97.9505C98.0833 90.8869 98.1541 90.509 98.1541 90.1311V87.5647H91.5757ZM100.137 0H9.35871C4.33857 0 0.248047 4.11325 0.248047 9.28996V81.9397C0.248047 87.1252 4.33857 91.2385 9.35871 91.2385H61.5257C61.2069 90.008 60.8439 88.7776 60.4367 87.5647H9.35871C6.37496 87.5647 3.94015 85.1038 3.94015 81.9397V25.9011H105.556V81.9397C105.556 83.5745 104.91 85.0159 103.865 86.0266C102.9 86.9846 101.581 87.5647 100.137 87.5647H99.9426V91.2385H100.137C101.465 91.2385 102.732 90.9485 103.865 90.4299C107.035 88.9885 109.248 85.7542 109.248 81.9397V24.1521C109.248 24.1434 109.248 24.1346 109.248 24.1346C109.248 24.1258 109.248 24.117 109.248 24.117V9.28996C109.248 4.11325 105.158 0 100.137 0ZM105.556 22.2361H3.94015V9.28996C3.94015 6.13471 6.37496 3.66501 9.35871 3.66501H100.137C103.121 3.66501 105.556 6.13471 105.556 9.28996V22.2361ZM91.5757 90.1311C91.5757 90.509 91.6465 90.8869 91.7793 91.2385H97.9505C98.0833 90.8869 98.1541 90.509 98.1541 90.1311V87.5647H91.5757V90.1311ZM83.2796 88.4875C83.2796 89.3489 83.6338 90.1926 84.2447 90.799C84.413 90.966 84.5989 91.1154 84.7937 91.2385H88.3971C88.6008 91.1154 88.7867 90.966 88.9549 90.799C89.2648 90.5002 89.5039 90.1399 89.6633 89.7444C89.8315 89.3489 89.92 88.927 89.92 88.4875V87.5647H83.2796V88.4875ZM75.4085 88.4875C75.4085 89.3489 75.7627 90.1926 76.3736 90.799C76.5419 90.966 76.7367 91.1154 76.9403 91.2385H80.4553C80.6589 91.1154 80.8537 90.966 81.0219 90.799C81.6328 90.1926 81.987 89.3489 81.987 88.4875V87.5647H75.4085V88.4875ZM68.8213 88.8215L68.1395 87.5647H63.686L65.6781 91.2385H72.7435V87.5647H68.8213V88.8215ZM91.5757 87.5647V90.1311C91.5757 90.509 91.6465 90.8869 91.7793 91.2385H97.9505C98.0833 90.8869 98.1541 90.509 98.1541 90.1311V87.5647H91.5757ZM83.2796 87.5647V88.4875C83.2796 89.3489 83.6338 90.1926 84.2447 90.799C84.413 90.966 84.5989 91.1154 84.7937 91.2385H88.3971C88.6008 91.1154 88.7867 90.966 88.9549 90.799C89.2648 90.5002 89.5039 90.1399 89.6633 89.7444C89.8315 89.3489 89.92 88.927 89.92 88.4875V87.5647H83.2796ZM75.4085 87.5647V88.4875C75.4085 89.3489 75.7627 90.1926 76.3736 90.799C76.5419 90.966 76.7367 91.1154 76.9403 91.2385H80.4553C80.6589 91.1154 80.8537 90.966 81.0219 90.799C81.6328 90.1926 81.987 89.3489 81.987 88.4875V87.5647H75.4085ZM68.8213 87.5647V88.8215L68.1395 87.5647H63.686L65.6781 91.2385H72.7435V87.5647H68.8213ZM91.5757 87.5647V90.1311C91.5757 90.509 91.6465 90.8869 91.7793 91.2385H97.9505C98.0833 90.8869 98.1541 90.509 98.1541 90.1311V87.5647H91.5757ZM83.2796 87.5647V88.4875C83.2796 89.3489 83.6338 90.1926 84.2447 90.799C84.413 90.966 84.5989 91.1154 84.7937 91.2385H88.3971C88.6008 91.1154 88.7867 90.966 88.9549 90.799C89.2648 90.5002 89.5039 90.1399 89.6633 89.7444C89.8315 89.3489 89.92 88.927 89.92 88.4875V87.5647H83.2796ZM75.4085 87.5647V88.4875C75.4085 89.3489 75.7627 90.1926 76.3736 90.799C76.5419 90.966 76.7367 91.1154 76.9403 91.2385H80.4553C80.6589 91.1154 80.8537 90.966 81.0219 90.799C81.6328 90.1926 81.987 89.3489 81.987 88.4875V87.5647H75.4085ZM83.2796 87.5647V88.4875C83.2796 89.3489 83.6338 90.1926 84.2447 90.799C84.413 90.966 84.5989 91.1154 84.7937 91.2385H88.3971C88.6008 91.1154 88.7867 90.966 88.9549 90.799C89.2648 90.5002 89.5039 90.1399 89.6633 89.7444C89.8315 89.3489 89.92 88.927 89.92 88.4875V87.5647H83.2796ZM68.8213 87.5647V88.8215L68.1395 87.5647H63.686L65.6781 91.2385H72.7435V87.5647H68.8213ZM75.4085 87.5647V88.4875C75.4085 89.3489 75.7627 90.1926 76.3736 90.799C76.5419 90.966 76.7367 91.1154 76.9403 91.2385H80.4553C80.6589 91.1154 80.8537 90.966 81.0219 90.799C81.6328 90.1926 81.987 89.3489 81.987 88.4875V87.5647H75.4085ZM83.2796 87.5647V88.4875C83.2796 89.3489 83.6338 90.1926 84.2447 90.799C84.413 90.966 84.5989 91.1154 84.7937 91.2385H88.3971C88.6008 91.1154 88.7867 90.966 88.9549 90.799C89.2648 90.5002 89.5039 90.1399 89.6633 89.7444C89.8315 89.3489 89.92 88.927 89.92 88.4875V87.5647H83.2796ZM91.5757 87.5647V90.1311C91.5757 90.509 91.6465 90.8869 91.7793 91.2385H97.9505C98.0833 90.8869 98.1541 90.509 98.1541 90.1311V87.5647H91.5757Z" fill="#0E1A2D"/>
<path d="M28.7237 6.19629C25.0405 6.19629 22.0391 9.28122 22.0391 13.0693C22.0391 16.8661 25.0405 19.9511 28.7237 19.9511C32.4158 19.9511 35.4172 16.8661 35.4172 13.0693C35.4172 9.28122 32.4158 6.19629 28.7237 6.19629ZM28.7237 16.2773C27.0769 16.2773 25.7311 14.8447 25.7311 13.0693C25.7311 11.3027 27.0769 9.8613 28.7237 9.8613C30.3794 9.8613 31.7252 11.3027 31.7252 13.0693C31.7252 14.8447 30.3794 16.2773 28.7237 16.2773Z" fill="#0E1A2D"/>
<path d="M44.465 6.19629C40.7729 6.19629 37.7715 9.28122 37.7715 13.0693C37.7715 16.8661 40.7729 19.9511 44.465 19.9511C48.1482 19.9511 51.1497 16.8661 51.1497 13.0693C51.1497 9.28122 48.1482 6.19629 44.465 6.19629ZM44.465 16.2773C42.8093 16.2773 41.4636 14.8447 41.4636 13.0693C41.4636 11.3027 42.8093 9.8613 44.465 9.8613C46.1118 9.8613 47.4576 11.3027 47.4576 13.0693C47.4576 14.8447 46.1118 16.2773 44.465 16.2773Z" fill="#0E1A2D"/>
<path d="M12.9893 6.19629C9.30614 6.19629 6.30469 9.28122 6.30469 13.0693C6.30469 16.8661 9.30614 19.9511 12.9893 19.9511C16.6814 19.9511 19.6829 16.8661 19.6829 13.0693C19.6829 9.28122 16.6814 6.19629 12.9893 6.19629ZM12.9893 16.2773C11.3425 16.2773 9.99673 14.8447 9.99673 13.0693C9.99673 11.3027 11.3425 9.8613 12.9893 9.8613C14.645 9.8613 15.982 11.3027 15.982 13.0693C15.982 14.8447 14.645 16.2773 12.9893 16.2773Z" fill="#0E1A2D"/>
<path d="M77.737 49.8779C78.1354 50.2734 78.463 50.7217 78.7109 51.2138H69.3789C69.6268 50.7217 69.9544 50.2734 70.3529 49.8779C71.3356 48.9023 72.646 48.3662 74.0449 48.3662C75.4438 48.3662 76.7542 48.9023 77.737 49.8779Z" fill="#0E1A2D"/>
<path d="M84.3331 48.7529C84.3331 50.1064 83.0582 51.2138 81.4734 51.2138H79.6937C79.3838 50.4931 78.9411 49.834 78.3656 49.2627C77.2058 48.1113 75.6741 47.4873 74.0449 47.4873C72.4158 47.4873 70.8841 48.1113 69.7243 49.2627C69.1488 49.834 68.7061 50.4931 68.3962 51.2138H65.8285C64.2525 51.2138 62.9688 50.1064 62.9688 48.7529C62.9688 47.3906 64.2525 46.292 65.8285 46.292H81.4734C83.0582 46.292 84.3331 47.3906 84.3331 48.7529Z" fill="#0E1A2D"/>
<path d="M12.9888 50.3877H25.8269C27.1196 50.3877 28.1732 49.3418 28.1732 48.0586C28.1732 46.7754 27.1196 45.7295 25.8269 45.7295H12.9888C11.6962 45.7295 10.6426 46.7754 10.6426 48.0586C10.6426 49.3418 11.6873 50.3877 12.9888 50.3877Z" fill="#0E1A2D"/>
<path d="M10.6426 55.625C10.6426 56.9082 11.6962 57.9541 12.9888 57.9541H38.4791C39.7718 57.9541 40.8254 56.9082 40.8254 55.625C40.8254 54.3418 39.7718 53.2959 38.4791 53.2959H12.9888C11.6873 53.2959 10.6426 54.333 10.6426 55.625Z" fill="#0E1A2D"/>
<path d="M38.4791 60.8633H12.9888C11.6962 60.8633 10.6426 61.9092 10.6426 63.1924C10.6426 64.4756 11.6962 65.5214 12.9888 65.5214H38.4791C39.7718 65.5214 40.8254 64.4756 40.8254 63.1924C40.8254 61.9092 39.7718 60.8633 38.4791 60.8633Z" fill="#0E1A2D"/>
<path d="M91.7785 91.2389C91.9379 91.6871 92.1947 92.0914 92.54 92.4342C93.7618 93.6559 95.9664 93.6559 97.1882 92.4342C97.5335 92.0914 97.7903 91.6871 97.9497 91.2389H91.7785ZM84.7928 91.2389C85.2975 91.5553 85.8818 91.7399 86.4839 91.7574H86.6344C87.0594 91.7574 87.4844 91.6696 87.8917 91.5026C88.0688 91.4323 88.2369 91.3444 88.3963 91.2389H84.7928ZM76.9395 91.2389C77.9931 91.8805 79.4008 91.8805 80.4544 91.2389H76.9395ZM65.6773 91.2389L65.7482 91.3619L65.9252 91.8365L66.1731 96.5562C66.1908 97.4 66.5273 98.1998 67.1382 98.7974C68.3778 100.028 70.5381 100.028 71.7865 98.7974C72.4063 98.1822 72.7427 97.3648 72.7427 96.4947V91.2389H65.6773ZM91.7785 91.2389C91.9379 91.6871 92.1947 92.0914 92.54 92.4342C93.7618 93.6559 95.9664 93.6559 97.1882 92.4342C97.5335 92.0914 97.7903 91.6871 97.9497 91.2389H91.7785ZM84.7928 91.2389C85.2975 91.5553 85.8818 91.7399 86.4839 91.7574H86.6344C87.0594 91.7574 87.4844 91.6696 87.8917 91.5026C88.0688 91.4323 88.2369 91.3444 88.3963 91.2389H84.7928ZM76.9395 91.2389C77.9931 91.8805 79.4008 91.8805 80.4544 91.2389H76.9395ZM65.6773 91.2389L65.7482 91.3619L65.9252 91.8365L66.1731 96.5562C66.1908 97.4 66.5273 98.1998 67.1382 98.7974C68.3778 100.028 70.5381 100.028 71.7865 98.7974C72.4063 98.1822 72.7427 97.3648 72.7427 96.4947V91.2389H65.6773ZM91.7785 91.2389C91.9379 91.6871 92.1947 92.0914 92.54 92.4342C93.7618 93.6559 95.9664 93.6559 97.1882 92.4342C97.5335 92.0914 97.7903 91.6871 97.9497 91.2389H91.7785ZM84.7928 91.2389C85.2975 91.5553 85.8818 91.7399 86.4839 91.7574H86.6344C87.0594 91.7574 87.4844 91.6696 87.8917 91.5026C88.0688 91.4323 88.2369 91.3444 88.3963 91.2389H84.7928ZM76.9395 91.2389C77.9931 91.8805 79.4008 91.8805 80.4544 91.2389H76.9395ZM65.6773 91.2389L65.7482 91.3619L65.9252 91.8365L66.1731 96.5562C66.1908 97.4 66.5273 98.1998 67.1382 98.7974C68.3778 100.028 70.5381 100.028 71.7865 98.7974C72.4063 98.1822 72.7427 97.3648 72.7427 96.4947V91.2389H65.6773ZM91.7785 91.2389C91.9379 91.6871 92.1947 92.0914 92.54 92.4342C93.7618 93.6559 95.9664 93.6559 97.1882 92.4342C97.5335 92.0914 97.7903 91.6871 97.9497 91.2389H91.7785ZM86.4839 91.7574H86.6344C87.0594 91.7574 87.4844 91.6696 87.8917 91.5026C88.0688 91.4323 88.2369 91.3444 88.3963 91.2389H84.7928C85.2975 91.5553 85.8818 91.7399 86.4839 91.7574ZM80.4544 91.2389H76.9395C77.9931 91.8805 79.4008 91.8805 80.4544 91.2389ZM65.7482 91.3619L65.9252 91.8365L66.1731 96.5562C66.1908 97.4 66.5273 98.1998 67.1382 98.7974C68.3778 100.028 70.5381 100.028 71.7865 98.7974C72.4063 98.1822 72.7427 97.3648 72.7427 96.4947V91.2389H65.6773L65.7482 91.3619ZM103.51 82.9333C103.262 82.3532 102.917 81.8259 102.465 81.3776C102.014 80.9294 101.491 80.5691 100.898 80.323C99.7205 79.8396 98.3747 79.8396 97.1882 80.323C96.6039 80.5691 96.0726 80.9206 95.6211 81.3776C95.5591 81.4392 95.4971 81.5007 95.444 81.5622C95.3023 80.657 94.8951 79.8044 94.2753 79.1101C93.4784 78.24 92.3983 77.6863 91.2207 77.5632C90.0343 77.449 88.8567 77.7566 87.9005 78.4509C87.6526 78.6267 87.4313 78.8288 87.2276 79.0398C87.086 78.0642 86.6344 77.1501 85.9172 76.4382C85.0496 75.5769 83.8897 75.1023 82.6679 75.1023C81.4372 75.1023 80.2773 75.5769 79.4097 76.4382C79.3654 76.4822 79.3122 76.5349 79.268 76.5877V53.5429C79.268 52.7168 79.0732 51.9258 78.7102 51.2138C78.4623 50.7217 78.1347 50.2734 77.7363 49.8779C76.7535 48.9023 75.4431 48.3662 74.0442 48.3662C72.6453 48.3662 71.335 48.9023 70.3522 49.8779C69.9538 50.2734 69.6261 50.7217 69.3782 51.2138C69.0152 51.9258 68.8204 52.7168 68.8204 53.5429V88.8219L68.1387 87.5651L67.0674 85.6052L66.9611 85.4294C65.7924 83.7595 64.2253 82.3708 62.4102 81.4304C60.5952 80.4812 58.5588 79.9802 56.5047 79.9802C56.1329 79.9802 55.761 80.0769 55.4511 80.2439C55.1147 80.4197 54.8313 80.6833 54.6277 80.9909C54.4329 81.2985 54.3089 81.6589 54.2735 82.0192C54.247 82.3972 54.309 82.7751 54.4683 83.1091L54.7339 83.7067C55.3006 84.9723 55.823 86.2555 56.2922 87.5651C56.7261 88.778 57.1245 89.9996 57.4698 91.2389C57.576 91.6168 57.6734 92.0035 57.7708 92.3815L61.1707 105.609C61.8081 107.736 63.1451 109.643 64.9424 110.961C66.7309 112.28 68.9355 113 71.1401 113H93.3899C96.1877 113 98.8173 111.911 100.792 109.951C102.766 107.991 103.855 105.38 103.864 102.603V84.7878C103.864 84.1462 103.749 83.531 103.51 82.9333ZM99.9418 102.603C99.9329 104.334 99.2512 105.969 98.0205 107.2C96.781 108.43 95.1341 109.107 93.3899 109.107H71.149C69.7678 109.107 68.3954 108.659 67.2799 107.841C66.1643 107.015 65.3231 105.829 64.9513 104.572L61.578 91.4235C61.5603 91.3619 61.5426 91.3004 61.5248 91.2389C61.2061 90.0084 60.8431 88.778 60.4358 87.5651C60.0728 86.4665 59.6744 85.3854 59.2494 84.3132C59.7098 84.4626 60.1525 84.6472 60.5863 84.8757C61.8082 85.5085 62.8795 86.4401 63.6763 87.5563L63.6852 87.5651L65.6773 91.2389L65.7482 91.3619L65.9252 91.8365L66.1731 96.5562C66.1908 97.4 66.5273 98.1998 67.1382 98.7974C68.3778 100.028 70.5381 100.028 71.7865 98.7974C72.4063 98.1822 72.7427 97.3648 72.7427 96.4947V53.5429C72.7427 53.2002 72.8843 52.875 73.1234 52.6289C73.6192 52.1455 74.4692 52.1455 74.965 52.6377C75.2041 52.875 75.3457 53.2002 75.3457 53.5429V81.6237C75.3457 81.8259 75.3723 82.0368 75.4077 82.239V88.4879C75.4077 89.3493 75.7619 90.193 76.3728 90.7994C76.541 90.9664 76.7358 91.1158 76.9395 91.2389C77.9931 91.8805 79.4008 91.8805 80.4544 91.2389C80.6581 91.1158 80.8528 90.9664 81.0211 90.7994C81.632 90.193 81.9861 89.3493 81.9861 88.4879V79.6638C81.9861 79.488 82.057 79.3122 82.1809 79.1892C82.4377 78.9343 82.8892 78.9343 83.146 79.1892C83.2699 79.3122 83.3408 79.488 83.3408 79.6638V81.3776C83.3054 81.6765 83.2877 81.9841 83.2788 82.2917V88.4879C83.2788 89.3493 83.633 90.193 84.2439 90.7994C84.4121 90.9664 84.598 91.1158 84.7928 91.2389C85.2975 91.5553 85.8818 91.7399 86.4839 91.7574H86.6344C87.0594 91.7574 87.4844 91.6696 87.8917 91.5026C88.0688 91.4323 88.2369 91.3444 88.3963 91.2389C88.5999 91.1158 88.7859 90.9664 88.9541 90.7994C89.264 90.5006 89.5031 90.1403 89.6625 89.7448C89.8307 89.3493 89.9192 88.9274 89.9192 88.4879V81.9665C89.9812 81.8171 90.0786 81.694 90.2114 81.5974C90.3796 81.4743 90.5921 81.4128 90.8046 81.4392C91.0171 81.4568 91.2119 81.5622 91.3535 81.7116C91.4952 81.8698 91.5749 82.072 91.5749 82.2917V90.1315C91.5749 90.5094 91.6457 90.8873 91.7785 91.2389C91.9379 91.6871 92.1947 92.0914 92.54 92.4342C93.7618 93.6559 95.9664 93.6559 97.1882 92.4342C97.5335 92.0914 97.7903 91.6871 97.9497 91.2389C98.0825 90.8873 98.1533 90.5094 98.1533 90.1315V84.7526C98.1533 84.6296 98.171 84.5153 98.2153 84.4011C98.2595 84.2956 98.3215 84.1989 98.4101 84.1198C98.4898 84.0319 98.5871 83.9616 98.7022 83.9177C98.9236 83.8298 99.1715 83.8298 99.384 83.9177C99.4991 83.9616 99.5965 84.0319 99.6762 84.111C99.7647 84.1989 99.8267 84.2956 99.8709 84.4011C99.9152 84.5153 99.9418 84.6296 99.9418 84.7702V102.603ZM65.6773 91.2389L65.7482 91.3619L65.9252 91.8365L66.1731 96.5562C66.1908 97.4 66.5273 98.1998 67.1382 98.7974C68.3778 100.028 70.5381 100.028 71.7865 98.7974C72.4063 98.1822 72.7427 97.3648 72.7427 96.4947V91.2389H65.6773ZM76.9395 91.2389C77.9931 91.8805 79.4008 91.8805 80.4544 91.2389H76.9395ZM84.7928 91.2389C85.2975 91.5553 85.8818 91.7399 86.4839 91.7574H86.6344C87.0594 91.7574 87.4844 91.6696 87.8917 91.5026C88.0688 91.4323 88.2369 91.3444 88.3963 91.2389H84.7928ZM91.7785 91.2389C91.9379 91.6871 92.1947 92.0914 92.54 92.4342C93.7618 93.6559 95.9664 93.6559 97.1882 92.4342C97.5335 92.0914 97.7903 91.6871 97.9497 91.2389H91.7785ZM65.6773 91.2389L65.7482 91.3619L65.9252 91.8365L66.1731 96.5562C66.1908 97.4 66.5273 98.1998 67.1382 98.7974C68.3778 100.028 70.5381 100.028 71.7865 98.7974C72.4063 98.1822 72.7427 97.3648 72.7427 96.4947V91.2389H65.6773ZM76.9395 91.2389C77.9931 91.8805 79.4008 91.8805 80.4544 91.2389H76.9395ZM84.7928 91.2389C85.2975 91.5553 85.8818 91.7399 86.4839 91.7574H86.6344C87.0594 91.7574 87.4844 91.6696 87.8917 91.5026C88.0688 91.4323 88.2369 91.3444 88.3963 91.2389H84.7928ZM91.7785 91.2389C91.9379 91.6871 92.1947 92.0914 92.54 92.4342C93.7618 93.6559 95.9664 93.6559 97.1882 92.4342C97.5335 92.0914 97.7903 91.6871 97.9497 91.2389H91.7785ZM65.6773 91.2389L65.7482 91.3619L65.9252 91.8365L66.1731 96.5562C66.1908 97.4 66.5273 98.1998 67.1382 98.7974C68.3778 100.028 70.5381 100.028 71.7865 98.7974C72.4063 98.1822 72.7427 97.3648 72.7427 96.4947V91.2389H65.6773ZM76.9395 91.2389C77.9931 91.8805 79.4008 91.8805 80.4544 91.2389H76.9395ZM84.7928 91.2389C85.2975 91.5553 85.8818 91.7399 86.4839 91.7574H86.6344C87.0594 91.7574 87.4844 91.6696 87.8917 91.5026C88.0688 91.4323 88.2369 91.3444 88.3963 91.2389H84.7928ZM91.7785 91.2389C91.9379 91.6871 92.1947 92.0914 92.54 92.4342C93.7618 93.6559 95.9664 93.6559 97.1882 92.4342C97.5335 92.0914 97.7903 91.6871 97.9497 91.2389H91.7785Z" fill="#0E1A2D"/>
<path d="M91.7785 91.2389C91.9379 91.6871 92.1947 92.0914 92.54 92.4342C93.7618 93.6559 95.9664 93.6559 97.1882 92.4342C97.5335 92.0914 97.7903 91.6871 97.9497 91.2389H91.7785ZM84.7928 91.2389C85.2975 91.5553 85.8818 91.7399 86.4839 91.7574H86.6344C87.0594 91.7574 87.4844 91.6696 87.8917 91.5026C88.0688 91.4323 88.2369 91.3444 88.3963 91.2389H84.7928ZM76.9395 91.2389C77.9931 91.8805 79.4008 91.8805 80.4544 91.2389H76.9395ZM65.6773 91.2389L65.7482 91.3619L65.9252 91.8365L66.1731 96.5562C66.1908 97.4 66.5273 98.1998 67.1382 98.7974C68.3778 100.028 70.5381 100.028 71.7865 98.7974C72.4063 98.1822 72.7427 97.3648 72.7427 96.4947V91.2389H65.6773ZM91.7785 91.2389C91.9379 91.6871 92.1947 92.0914 92.54 92.4342C93.7618 93.6559 95.9664 93.6559 97.1882 92.4342C97.5335 92.0914 97.7903 91.6871 97.9497 91.2389H91.7785ZM84.7928 91.2389C85.2975 91.5553 85.8818 91.7399 86.4839 91.7574H86.6344C87.0594 91.7574 87.4844 91.6696 87.8917 91.5026C88.0688 91.4323 88.2369 91.3444 88.3963 91.2389H84.7928ZM76.9395 91.2389C77.9931 91.8805 79.4008 91.8805 80.4544 91.2389H76.9395ZM65.6773 91.2389L65.7482 91.3619L65.9252 91.8365L66.1731 96.5562C66.1908 97.4 66.5273 98.1998 67.1382 98.7974C68.3778 100.028 70.5381 100.028 71.7865 98.7974C72.4063 98.1822 72.7427 97.3648 72.7427 96.4947V91.2389H65.6773ZM91.7785 91.2389C91.9379 91.6871 92.1947 92.0914 92.54 92.4342C93.7618 93.6559 95.9664 93.6559 97.1882 92.4342C97.5335 92.0914 97.7903 91.6871 97.9497 91.2389H91.7785ZM84.7928 91.2389C85.2975 91.5553 85.8818 91.7399 86.4839 91.7574H86.6344C87.0594 91.7574 87.4844 91.6696 87.8917 91.5026C88.0688 91.4323 88.2369 91.3444 88.3963 91.2389H84.7928ZM76.9395 91.2389C77.9931 91.8805 79.4008 91.8805 80.4544 91.2389H76.9395ZM65.6773 91.2389L65.7482 91.3619L65.9252 91.8365L66.1731 96.5562C66.1908 97.4 66.5273 98.1998 67.1382 98.7974C68.3778 100.028 70.5381 100.028 71.7865 98.7974C72.4063 98.1822 72.7427 97.3648 72.7427 96.4947V91.2389H65.6773ZM91.7785 91.2389C91.9379 91.6871 92.1947 92.0914 92.54 92.4342C93.7618 93.6559 95.9664 93.6559 97.1882 92.4342C97.5335 92.0914 97.7903 91.6871 97.9497 91.2389H91.7785ZM86.4839 91.7574H86.6344C87.0594 91.7574 87.4844 91.6696 87.8917 91.5026C88.0688 91.4323 88.2369 91.3444 88.3963 91.2389H84.7928C85.2975 91.5553 85.8818 91.7399 86.4839 91.7574ZM80.4544 91.2389H76.9395C77.9931 91.8805 79.4008 91.8805 80.4544 91.2389ZM65.7482 91.3619L65.9252 91.8365L66.1731 96.5562C66.1908 97.4 66.5273 98.1998 67.1382 98.7974C68.3778 100.028 70.5381 100.028 71.7865 98.7974C72.4063 98.1822 72.7427 97.3648 72.7427 96.4947V91.2389H65.6773L65.7482 91.3619ZM103.51 82.9333C103.262 82.3532 102.917 81.8259 102.465 81.3776C102.014 80.9294 101.491 80.5691 100.898 80.323C99.7205 79.8396 98.3747 79.8396 97.1882 80.323C96.6039 80.5691 96.0726 80.9206 95.6211 81.3776C95.5591 81.4392 95.4971 81.5007 95.444 81.5622C95.3023 80.657 94.8951 79.8044 94.2753 79.1101C93.4784 78.24 92.3983 77.6863 91.2207 77.5632C90.0343 77.449 88.8567 77.7566 87.9005 78.4509C87.6526 78.6267 87.4313 78.8288 87.2276 79.0398C87.086 78.0642 86.6344 77.1501 85.9172 76.4382C85.0496 75.5769 83.8897 75.1023 82.6679 75.1023C81.4372 75.1023 80.2773 75.5769 79.4097 76.4382C79.3654 76.4822 79.3122 76.5349 79.268 76.5877V53.5429C79.268 52.7168 79.0732 51.9258 78.7102 51.2138C78.4623 50.7217 78.1347 50.2734 77.7363 49.8779C76.7535 48.9023 75.4431 48.3662 74.0442 48.3662C72.6453 48.3662 71.335 48.9023 70.3522 49.8779C69.9538 50.2734 69.6261 50.7217 69.3782 51.2138C69.0152 51.9258 68.8204 52.7168 68.8204 53.5429V88.8219L68.1387 87.5651L67.0674 85.6052L66.9611 85.4294C65.7924 83.7595 64.2253 82.3708 62.4102 81.4304C60.5952 80.4812 58.5588 79.9802 56.5047 79.9802C56.1329 79.9802 55.761 80.0769 55.4511 80.2439C55.1147 80.4197 54.8313 80.6833 54.6277 80.9909C54.4329 81.2985 54.3089 81.6589 54.2735 82.0192C54.247 82.3972 54.309 82.7751 54.4683 83.1091L54.7339 83.7067C55.3006 84.9723 55.823 86.2555 56.2922 87.5651C56.7261 88.778 57.1245 89.9996 57.4698 91.2389C57.576 91.6168 57.6734 92.0035 57.7708 92.3815L61.1707 105.609C61.8081 107.736 63.1451 109.643 64.9424 110.961C66.7309 112.28 68.9355 113 71.1401 113H93.3899C96.1877 113 98.8173 111.911 100.792 109.951C102.766 107.991 103.855 105.38 103.864 102.603V84.7878C103.864 84.1462 103.749 83.531 103.51 82.9333ZM99.9418 102.603C99.9329 104.334 99.2512 105.969 98.0205 107.2C96.781 108.43 95.1341 109.107 93.3899 109.107H71.149C69.7678 109.107 68.3954 108.659 67.2799 107.841C66.1643 107.015 65.3231 105.829 64.9513 104.572L61.578 91.4235C61.5603 91.3619 61.5426 91.3004 61.5248 91.2389C61.2061 90.0084 60.8431 88.778 60.4358 87.5651C60.0728 86.4665 59.6744 85.3854 59.2494 84.3132C59.7098 84.4626 60.1525 84.6472 60.5863 84.8757C61.8082 85.5085 62.8795 86.4401 63.6763 87.5563L63.6852 87.5651L65.6773 91.2389L65.7482 91.3619L65.9252 91.8365L66.1731 96.5562C66.1908 97.4 66.5273 98.1998 67.1382 98.7974C68.3778 100.028 70.5381 100.028 71.7865 98.7974C72.4063 98.1822 72.7427 97.3648 72.7427 96.4947V53.5429C72.7427 53.2002 72.8843 52.875 73.1234 52.6289C73.6192 52.1455 74.4692 52.1455 74.965 52.6377C75.2041 52.875 75.3457 53.2002 75.3457 53.5429V81.6237C75.3457 81.8259 75.3723 82.0368 75.4077 82.239V88.4879C75.4077 89.3493 75.7619 90.193 76.3728 90.7994C76.541 90.9664 76.7358 91.1158 76.9395 91.2389C77.9931 91.8805 79.4008 91.8805 80.4544 91.2389C80.6581 91.1158 80.8528 90.9664 81.0211 90.7994C81.632 90.193 81.9861 89.3493 81.9861 88.4879V79.6638C81.9861 79.488 82.057 79.3122 82.1809 79.1892C82.4377 78.9343 82.8892 78.9343 83.146 79.1892C83.2699 79.3122 83.3408 79.488 83.3408 79.6638V81.3776C83.3054 81.6765 83.2877 81.9841 83.2788 82.2917V88.4879C83.2788 89.3493 83.633 90.193 84.2439 90.7994C84.4121 90.9664 84.598 91.1158 84.7928 91.2389C85.2975 91.5553 85.8818 91.7399 86.4839 91.7574H86.6344C87.0594 91.7574 87.4844 91.6696 87.8917 91.5026C88.0688 91.4323 88.2369 91.3444 88.3963 91.2389C88.5999 91.1158 88.7859 90.9664 88.9541 90.7994C89.264 90.5006 89.5031 90.1403 89.6625 89.7448C89.8307 89.3493 89.9192 88.9274 89.9192 88.4879V81.9665C89.9812 81.8171 90.0786 81.694 90.2114 81.5974C90.3796 81.4743 90.5921 81.4128 90.8046 81.4392C91.0171 81.4568 91.2119 81.5622 91.3535 81.7116C91.4952 81.8698 91.5749 82.072 91.5749 82.2917V90.1315C91.5749 90.5094 91.6457 90.8873 91.7785 91.2389C91.9379 91.6871 92.1947 92.0914 92.54 92.4342C93.7618 93.6559 95.9664 93.6559 97.1882 92.4342C97.5335 92.0914 97.7903 91.6871 97.9497 91.2389C98.0825 90.8873 98.1533 90.5094 98.1533 90.1315V84.7526C98.1533 84.6296 98.171 84.5153 98.2153 84.4011C98.2595 84.2956 98.3215 84.1989 98.4101 84.1198C98.4898 84.0319 98.5871 83.9616 98.7022 83.9177C98.9236 83.8298 99.1715 83.8298 99.384 83.9177C99.4991 83.9616 99.5965 84.0319 99.6762 84.111C99.7647 84.1989 99.8267 84.2956 99.8709 84.4011C99.9152 84.5153 99.9418 84.6296 99.9418 84.7702V102.603ZM65.6773 91.2389L65.7482 91.3619L65.9252 91.8365L66.1731 96.5562C66.1908 97.4 66.5273 98.1998 67.1382 98.7974C68.3778 100.028 70.5381 100.028 71.7865 98.7974C72.4063 98.1822 72.7427 97.3648 72.7427 96.4947V91.2389H65.6773ZM76.9395 91.2389C77.9931 91.8805 79.4008 91.8805 80.4544 91.2389H76.9395ZM84.7928 91.2389C85.2975 91.5553 85.8818 91.7399 86.4839 91.7574H86.6344C87.0594 91.7574 87.4844 91.6696 87.8917 91.5026C88.0688 91.4323 88.2369 91.3444 88.3963 91.2389H84.7928ZM91.7785 91.2389C91.9379 91.6871 92.1947 92.0914 92.54 92.4342C93.7618 93.6559 95.9664 93.6559 97.1882 92.4342C97.5335 92.0914 97.7903 91.6871 97.9497 91.2389H91.7785ZM65.6773 91.2389L65.7482 91.3619L65.9252 91.8365L66.1731 96.5562C66.1908 97.4 66.5273 98.1998 67.1382 98.7974C68.3778 100.028 70.5381 100.028 71.7865 98.7974C72.4063 98.1822 72.7427 97.3648 72.7427 96.4947V91.2389H65.6773ZM76.9395 91.2389C77.9931 91.8805 79.4008 91.8805 80.4544 91.2389H76.9395ZM84.7928 91.2389C85.2975 91.5553 85.8818 91.7399 86.4839 91.7574H86.6344C87.0594 91.7574 87.4844 91.6696 87.8917 91.5026C88.0688 91.4323 88.2369 91.3444 88.3963 91.2389H84.7928ZM91.7785 91.2389C91.9379 91.6871 92.1947 92.0914 92.54 92.4342C93.7618 93.6559 95.9664 93.6559 97.1882 92.4342C97.5335 92.0914 97.7903 91.6871 97.9497 91.2389H91.7785ZM65.6773 91.2389L65.7482 91.3619L65.9252 91.8365L66.1731 96.5562C66.1908 97.4 66.5273 98.1998 67.1382 98.7974C68.3778 100.028 70.5381 100.028 71.7865 98.7974C72.4063 98.1822 72.7427 97.3648 72.7427 96.4947V91.2389H65.6773ZM76.9395 91.2389C77.9931 91.8805 79.4008 91.8805 80.4544 91.2389H76.9395ZM84.7928 91.2389C85.2975 91.5553 85.8818 91.7399 86.4839 91.7574H86.6344C87.0594 91.7574 87.4844 91.6696 87.8917 91.5026C88.0688 91.4323 88.2369 91.3444 88.3963 91.2389H84.7928ZM91.7785 91.2389C91.9379 91.6871 92.1947 92.0914 92.54 92.4342C93.7618 93.6559 95.9664 93.6559 97.1882 92.4342C97.5335 92.0914 97.7903 91.6871 97.9497 91.2389H91.7785Z" fill="#0E1A2D"/>
</svg>
