<svg version="1.1" id="Layer_1" xmlns="http://www.w3.org/2000/svg" xmlns:xlink="http://www.w3.org/1999/xlink" x="0px" y="0px"
	 width="100%" viewBox="0 0 512 512" enable-background="new 0 0 512 512" xml:space="preserve">
<path fill="#000000" opacity="1.000000" stroke="none" 
	d="
M513.000000,175.000000 
	C513.000000,287.972534 513.000000,400.445068 513.000000,512.958801 
	C342.402466,512.958801 171.804901,512.958801 1.103673,512.958801 
	C1.103673,342.444153 1.103673,171.888245 1.103673,1.166158 
	C171.666534,1.166158 342.333252,1.166158 513.000000,1.166158 
	C513.000000,58.861729 513.000000,116.680862 513.000000,175.000000 
M26.799639,183.734268 
	C21.429394,189.073257 16.059149,194.412231 11.213032,199.230133 
	C19.241879,207.256744 26.914410,214.927124 34.660290,222.670853 
	C35.509274,221.947983 36.750732,220.890945 38.684158,220.196487 
	C41.178097,227.467087 43.672035,234.737686 46.023472,242.778549 
	C46.346985,243.669968 46.693905,244.553680 46.990513,245.453964 
	C51.655235,259.612732 56.313492,273.773621 60.343475,288.221497 
	C49.510220,295.013794 38.714558,301.867554 27.808811,308.541412 
	C25.861284,309.733215 25.047735,310.393768 25.804092,313.036652 
	C28.911402,323.894226 31.498072,334.899384 34.431602,345.808502 
	C37.233047,356.226379 40.227222,366.592438 43.021523,377.783203 
	C44.990833,384.891571 46.960144,391.999969 48.983837,399.911224 
	C49.014088,400.573975 48.924892,401.268585 49.092148,401.894745 
	C52.801811,415.782684 56.494247,429.675507 60.287521,443.540710 
	C63.077629,453.739166 66.006729,463.899567 68.951118,474.890320 
	C70.065987,479.603668 71.180862,484.316986 72.249260,488.833862 
	C76.039696,488.833862 79.030563,488.833862 82.948776,488.956635 
	C92.958878,488.916412 102.968979,488.876190 113.910736,488.956085 
	C119.279602,488.922333 124.648468,488.888550 130.946793,488.963257 
	C138.290771,488.920593 145.634750,488.877930 153.908966,488.954376 
	C158.946426,488.914703 163.983902,488.875000 169.948685,488.958496 
	C180.292038,488.917419 190.635376,488.876343 201.908966,488.954376 
	C206.946426,488.914703 211.983902,488.875000 217.948685,488.958496 
	C228.292557,488.917328 238.636429,488.876129 249.909988,488.953400 
	C254.946487,488.913910 259.982971,488.874420 265.947052,488.958923 
	C276.290955,488.917694 286.634857,488.876495 297.908997,488.954346 
	C302.946442,488.914673 307.983856,488.875000 313.948669,488.958496 
	C324.292023,488.917419 334.635406,488.876343 345.908997,488.954346 
	C350.946442,488.914673 355.983856,488.875000 361.948608,488.958496 
	C369.293579,488.926605 376.638580,488.894684 384.914642,488.976746 
	C390.283386,488.929596 395.652161,488.882416 401.948395,488.957703 
	C411.959808,488.925720 421.971222,488.893707 432.876068,488.976501 
	C434.704529,488.981049 436.581451,489.240051 438.345062,488.904175 
	C439.602448,488.664703 441.465668,487.853760 441.751556,486.904236 
	C443.117584,482.367767 444.037354,477.696930 445.708466,472.596924 
	C446.991180,467.691193 448.279236,462.786804 449.555695,457.879456 
	C454.744080,437.932556 459.928894,417.984741 465.713898,397.566193 
	C467.158569,391.412537 468.603210,385.258881 470.677979,378.651764 
	C476.265717,357.490570 481.784790,336.310791 487.505676,315.185638 
	C488.513550,311.463928 487.493500,309.511719 484.258392,307.560791 
	C473.756134,301.227386 463.455231,294.559967 453.015869,287.234772 
	C457.955078,272.159210 462.894318,257.083679 467.992126,241.238892 
	C474.664856,220.922516 481.170319,200.548996 488.081573,180.314072 
	C491.491821,170.329529 485.309723,158.988861 475.898315,156.842255 
	C466.987762,154.809921 458.339783,151.653671 449.503235,149.261795 
	C441.057404,146.975662 431.158447,151.310654 427.507202,159.086105 
	C424.850891,164.742676 422.890198,170.725876 420.477600,176.927933 
	C418.993042,175.783615 417.382721,174.745178 416.014832,173.450546 
	C411.639343,169.309311 403.691223,168.665497 399.448212,172.038437 
	C392.228577,177.777588 392.957520,185.112930 396.253845,189.691650 
	C399.670380,194.437256 403.234985,199.106644 407.096832,203.490463 
	C409.636078,206.372971 410.775604,209.074142 409.028229,212.718964 
	C408.415131,213.997757 408.279022,215.505219 407.236877,217.263031 
	C406.977448,218.184814 406.757141,219.119705 406.452698,220.026367 
	C402.533539,231.699219 398.602386,243.368011 394.048523,255.408951 
	C392.001556,261.606323 390.076813,267.847260 387.884369,273.992737 
	C381.696045,291.338837 375.397888,308.645752 369.035614,325.037079 
	C369.023743,289.212616 369.127136,253.387482 368.910187,217.564285 
	C368.862396,209.671188 368.418304,201.637665 366.882019,193.922638 
	C361.814972,168.476318 349.487793,147.170349 329.006073,129.940781 
	C329.045471,108.978485 329.084869,88.016197 329.902832,67.004242 
	C334.743408,65.648811 339.584015,64.293381 344.472137,62.924637 
	C346.701324,78.155281 344.668030,94.655472 338.512543,112.981407 
	C337.838470,114.988266 337.178467,117.088844 337.059143,119.177223 
	C336.610535,127.027084 338.544922,128.986328 346.314697,128.998749 
	C350.481049,129.005417 354.676086,128.686340 358.807861,129.064407 
	C367.766693,129.884155 370.597900,125.783928 368.301025,115.700310 
	C368.047211,114.586113 367.468414,113.546219 367.211792,112.432350 
	C365.231293,103.835091 360.451935,96.024841 360.893646,86.701385 
	C361.365662,76.738159 361.000000,66.735268 361.000000,56.424065 
	C351.926147,53.613667 343.028870,50.850121 334.126770,48.102264 
	C309.810211,40.596348 285.507904,33.043232 261.148621,25.678633 
	C258.721558,24.944859 255.738342,24.679653 253.360718,25.378731 
	C239.210861,29.539141 225.176956,34.091835 211.077103,38.424915 
	C199.324936,42.036522 187.513153,45.454876 175.770950,49.097980 
	C168.188721,51.450432 160.684402,54.053932 153.145157,56.544922 
	C153.121475,56.955025 153.097794,57.365124 153.074112,57.775223 
	C163.674530,60.868259 174.274948,63.961292 184.964600,67.980415 
	C184.968781,88.941788 184.972961,109.903160 184.365494,131.179871 
	C178.488052,137.373428 172.015686,143.110672 166.847610,149.848328 
	C152.832413,168.120117 145.110046,188.856918 145.026199,212.078781 
	C144.887909,250.379227 144.912491,288.680267 144.274719,326.599915 
	C141.169067,318.002899 138.050903,309.410339 134.960556,300.807831 
	C129.551117,285.749664 124.158775,270.685364 118.918236,254.891068 
	C114.556824,242.263046 110.195412,229.635010 105.974586,216.234985 
	C104.774506,212.766357 103.539200,209.309464 102.380669,205.827011 
	C98.184593,193.213882 94.014305,180.592163 90.121529,167.356491 
	C100.474747,156.920731 110.827965,146.484970 121.802223,135.808304 
	C123.070663,134.514587 124.386765,133.263870 125.599411,131.919800 
	C131.308884,125.591621 130.855347,110.743134 120.789330,106.347687 
	C114.641319,103.663094 104.295448,103.278503 97.345360,113.128471 
	C84.879181,125.716675 72.412994,138.304871 59.132545,150.987457 
	C52.010452,152.987045 44.871807,154.929840 37.770088,156.999313 
	C26.673452,160.232910 21.466034,170.903198 26.799639,183.734268 
M434.485596,66.985588 
	C423.885773,77.594795 413.287445,88.205505 402.685699,98.812790 
	C393.880402,107.622696 393.988068,107.512848 402.928467,116.570763 
	C405.743408,119.422668 407.377441,119.279770 410.146210,116.483902 
	C432.425415,93.986679 454.860687,71.643974 477.242706,49.248508 
	C477.918701,48.572124 478.533875,47.834946 479.085388,47.227493 
	C474.886993,43.032379 470.928345,39.076797 466.559143,34.710991 
	C456.070343,45.266571 445.527985,55.876072 434.485596,66.985588 
M98.489128,20.077353 
	C98.568085,21.122503 98.284561,22.396013 98.778351,23.179827 
	C117.023361,52.140865 135.340332,81.056557 153.748764,110.138405 
	C158.585419,107.111595 163.327347,104.144066 168.447021,100.940155 
	C159.857513,87.549706 151.404739,74.484627 143.067657,61.346130 
	C133.338501,46.013866 123.660522,30.648396 114.098503,15.211749 
	C112.832291,13.167606 111.770538,11.718756 109.398697,13.202840 
	C105.954285,15.358047 102.623039,17.694132 98.489128,20.077353 
M80.497093,68.002907 
	C69.382576,56.875748 58.268055,45.748592 47.560429,35.028786 
	C43.196316,39.458549 39.274181,43.439690 36.169624,46.590950 
	C51.834980,62.404152 67.779602,78.499260 82.881668,93.743866 
	C86.743515,90.319977 90.927361,86.610611 95.455429,82.596046 
	C90.502434,77.768150 85.749771,73.135521 80.497093,68.002907 
M492.029297,110.481499 
	C495.379364,108.269699 498.729431,106.057899 502.228729,103.747581 
	C498.818726,98.764168 495.725250,94.243286 492.604279,89.682251 
	C476.959290,100.026695 461.799927,110.003349 446.734558,120.120033 
	C445.767395,120.769508 444.695892,122.985176 445.083588,123.651459 
	C447.602692,127.980888 450.512512,132.082977 453.390381,136.403595 
	C466.417603,127.719460 478.958954,119.359222 492.029297,110.481499 
M26.504183,93.002876 
	C24.908077,91.957359 23.311972,90.911842 21.374149,89.642487 
	C18.477432,93.899567 15.604832,97.835922 13.137707,102.011833 
	C12.697340,102.757210 13.547583,105.065979 14.459866,105.688255 
	C26.252129,113.731827 38.135311,121.644119 50.100353,129.428452 
	C51.028351,130.032211 53.468506,129.970261 53.971184,129.296539 
	C56.945602,125.309967 59.555073,121.051102 62.335079,116.810982 
	C50.317043,108.882767 38.674355,101.202164 26.504183,93.002876 
M407.941925,34.400414 
	C410.736847,29.895166 413.531738,25.389921 416.317291,20.899748 
	C411.150757,17.719740 406.406189,14.799462 401.667603,11.882872 
	C393.472107,24.827419 385.552673,37.427658 377.509186,49.948196 
	C376.200958,51.984604 376.218811,53.440544 378.255219,54.690636 
	C382.232513,57.132183 386.250732,59.507023 390.430328,62.016552 
	C396.118408,53.014023 401.809082,44.007378 407.941925,34.400414 
M15.490911,27.991722 
	C19.245003,31.859579 22.999092,35.727436 26.069067,38.890442 
	C30.780361,34.393135 34.811394,30.545191 38.112438,27.394081 
	C32.946865,22.112629 27.678160,16.725727 22.822096,11.760726 
	C19.180710,15.454314 15.266204,19.424936 10.621540,24.136185 
	C11.855693,25.082146 13.424255,26.284428 15.490911,27.991722 
M477.434265,30.952517 
	C480.133545,33.809967 482.832825,36.667416 485.262543,39.239498 
	C491.377014,33.124554 496.913971,27.587152 501.825592,22.675163 
	C498.259308,19.024021 494.473785,15.148467 490.247345,10.821479 
	C485.741394,15.461805 481.093018,20.374052 476.294495,25.134983 
	C474.057465,27.354467 475.084076,28.860697 477.434265,30.952517 
z"/>
<path fill="#426887" opacity="1.000000" stroke="none" 
	d="
M118.759277,255.623627 
	C124.158775,270.685364 129.551117,285.749664 134.960556,300.807831 
	C138.050903,309.410339 141.169067,318.002899 144.624741,327.176758 
	C146.362488,331.523987 147.750214,335.294403 149.095062,339.454285 
	C150.412201,344.215698 151.772217,348.587585 152.750229,352.918854 
	C150.151749,352.369629 147.935257,351.861053 145.425903,351.285309 
	C144.816574,353.420502 144.247787,355.138519 143.837280,356.893585 
	C138.202148,380.986359 132.598709,405.086548 126.967133,429.180145 
	C122.318436,449.068665 117.642784,468.950958 112.979080,488.835999 
	C102.968979,488.876190 92.958878,488.916412 82.495987,488.524658 
	C82.127403,487.601715 82.142532,487.086487 82.305649,486.623322 
	C96.553955,446.166687 110.847855,405.726044 125.048584,365.252686 
	C128.595795,355.142853 128.426239,355.195190 117.930611,351.766327 
	C114.710793,350.714447 112.906670,351.228241 111.931969,354.606262 
	C110.921150,358.109406 109.660095,361.542603 108.447937,364.985077 
	C98.398407,393.525146 88.405777,422.085602 78.229759,450.580536 
	C75.396400,458.514557 72.007790,466.250244 68.873901,474.076935 
	C66.006729,463.899567 63.077629,453.739166 60.287521,443.540710 
	C56.494247,429.675507 52.801811,415.782684 49.092148,401.894745 
	C48.924892,401.268585 49.014088,400.573975 49.123276,399.206482 
	C61.084000,381.623840 72.950043,364.777008 84.708389,347.855377 
	C90.922302,338.912811 90.764343,338.965942 81.441269,332.863678 
	C78.257011,330.779449 76.655167,331.469482 74.645302,334.443573 
	C67.853920,344.493164 60.909081,354.445221 53.774155,364.253632 
	C50.528938,368.714844 46.700550,372.751862 43.136677,376.981262 
	C40.227222,366.592438 37.233047,356.226379 34.431602,345.808502 
	C31.498072,334.899384 28.911402,323.894226 25.804092,313.036652 
	C25.047735,310.393768 25.861284,309.733215 27.808811,308.541412 
	C38.714558,301.867554 49.510220,295.013794 61.020325,288.100464 
	C73.917450,280.957611 86.116966,273.899261 98.366203,266.928314 
	C105.120781,263.084351 111.958847,259.387054 118.759277,255.623627 
M88.292076,314.803650 
	C92.020035,318.398407 95.747986,321.993164 99.881287,325.978790 
	C102.227486,322.562500 103.730789,320.401672 105.205391,318.221466 
	C111.498039,308.917786 111.400726,309.059265 101.872993,302.805328 
	C98.998100,300.918304 97.389435,301.550507 95.717873,303.925354 
	C93.326416,307.322998 90.964409,310.741333 88.292076,314.803650 
z"/>
<path fill="#426887" opacity="1.000000" stroke="none" 
	d="
M369.143005,325.968109 
	C375.397888,308.645752 381.696045,291.338837 387.884369,273.992737 
	C390.076813,267.847260 392.001556,261.606323 394.701447,255.349243 
	C412.655914,265.356018 429.946533,275.441437 447.275146,285.461090 
	C449.094269,286.512939 451.137543,287.177124 453.076813,288.021179 
	C463.455231,294.559967 473.756134,301.227386 484.258392,307.560791 
	C487.493500,309.511719 488.513550,311.463928 487.505676,315.185638 
	C481.784790,336.310791 476.265717,357.490570 470.215698,378.560577 
	C464.859833,371.354431 459.986908,364.225128 455.068359,357.127441 
	C444.185059,341.422424 433.381134,325.660889 422.345490,310.063446 
	C415.174774,299.928589 415.122162,300.176392 405.528442,307.542969 
	C402.843201,309.604828 403.303741,311.066162 404.833771,313.252045 
	C421.601318,337.207153 438.307434,361.205383 455.120636,385.128357 
	C458.246368,389.575897 461.773254,393.741516 465.114990,398.037262 
	C459.928894,417.984741 454.744080,437.932556 449.555695,457.879456 
	C448.279236,462.786804 446.991180,467.691193 445.137695,472.603699 
	C441.590546,464.861572 438.466583,457.165558 435.663971,449.354248 
	C425.107666,419.932068 414.691925,390.459442 404.146240,361.033447 
	C400.253540,350.171448 400.190613,350.300140 389.308044,354.320435 
	C386.187897,355.473083 385.749512,356.866302 386.878754,359.909729 
	C391.450500,372.230560 395.746521,384.653564 400.160431,397.033142 
	C408.649963,420.843353 417.210632,444.628479 425.607971,468.471161 
	C427.972137,475.183746 429.870575,482.060333 431.982635,488.861694 
	C421.971222,488.893707 411.959808,488.925720 401.459015,488.504700 
	C390.259338,442.497528 379.549072,396.943359 368.945862,351.844666 
	C365.639404,351.844666 363.274017,351.844666 360.923950,351.460449 
	C361.943939,347.435730 362.948547,343.795288 364.237244,339.933228 
	C366.061859,335.130463 367.602417,330.549286 369.143005,325.968109 
z"/>
<path fill="#844E3A" opacity="1.000000" stroke="none" 
	d="
M149.137939,339.064819 
	C147.750214,335.294403 146.362488,331.523987 144.921600,327.367310 
	C144.912491,288.680267 144.887909,250.379227 145.026199,212.078781 
	C145.110046,188.856918 152.832413,168.120117 166.847610,149.848328 
	C172.015686,143.110672 178.488052,137.373428 185.138092,131.067841 
	C197.252304,131.014313 208.593948,131.072815 219.709991,131.363708 
	C201.992859,141.560516 188.191940,155.055008 179.309250,173.330215 
	C174.851776,182.501038 174.845657,182.244247 184.542236,185.809708 
	C188.932861,187.424149 191.195999,186.555496 192.952530,182.242905 
	C198.058823,169.706070 206.914520,160.071945 217.566681,152.051605 
	C226.698914,145.175674 236.851288,140.438019 248.572937,138.382538 
	C249.089157,144.163635 250.299042,149.443619 244.937149,153.663300 
	C237.376907,159.613083 230.307053,166.189423 222.705063,172.081848 
	C214.455154,178.476486 205.835510,184.394073 197.037796,190.765396 
	C198.700806,193.521927 200.465408,196.115967 201.889877,198.884979 
	C204.063400,203.110092 206.564941,203.817154 210.484695,200.775711 
	C221.896301,191.921188 233.424042,183.214035 245.005997,174.582962 
	C247.851151,172.462692 250.921280,169.645859 254.155945,169.229156 
	C264.953400,167.838135 264.999908,168.199753 265.000031,157.228348 
	C265.000092,152.729691 264.963745,148.230530 265.022827,143.732651 
	C265.041077,142.346069 265.320099,140.962936 265.484253,139.538498 
	C293.186676,145.190231 320.673004,174.557892 322.962891,192.936905 
	C321.462006,192.060699 320.075226,191.482819 318.966797,190.567734 
	C309.244629,182.541412 299.486664,174.554672 289.916443,166.349564 
	C284.004761,161.281128 283.237274,168.521759 280.477295,170.323074 
	C278.287140,171.752487 273.781952,173.971710 278.397766,177.903412 
	C280.925079,180.056122 283.489777,182.172836 285.911072,184.440826 
	C297.851379,195.625076 310.660278,205.625214 325.292847,213.075150 
	C328.074249,214.491241 329.171112,216.286102 329.046204,219.342941 
	C328.862701,223.833847 329.008759,228.338226 328.571472,232.892059 
	C313.067261,232.597244 299.360901,228.071594 287.122955,219.322342 
	C271.013580,207.805283 261.393585,192.017715 257.264038,171.873489 
	C246.865479,209.470490 224.014603,230.870285 184.989304,232.375259 
	C184.996933,225.280548 184.902252,218.641556 185.027237,212.006714 
	C185.213623,202.113342 185.279633,202.114075 175.311401,200.295578 
	C174.823013,200.206482 174.155701,199.897202 173.869858,200.103516 
	C172.527313,201.072510 170.262878,202.109634 170.177307,203.260071 
	C169.539719,211.831039 169.389496,220.436966 168.979446,229.026825 
	C168.832199,232.111526 170.223724,233.227112 173.138885,233.015625 
	C174.457825,232.919907 175.791946,233.033783 177.072754,233.515839 
	C177.387512,251.965179 177.748703,269.951233 177.833191,288.256714 
	C177.370605,290.540680 177.027252,292.504913 177.023163,294.469849 
	C176.982758,313.931946 176.998535,333.394165 176.554230,352.900635 
	C173.732544,352.916077 171.355011,352.887177 168.764160,352.571472 
	C160.229584,350.595123 154.420013,345.217285 149.137939,339.064819 
z"/>
<path fill="#395D7B" opacity="1.000000" stroke="none" 
	d="
M360.908630,351.844666 
	C363.274017,351.844666 365.639404,351.844666 368.945862,351.844666 
	C379.549072,396.943359 390.259338,442.497528 400.995270,488.443481 
	C395.652161,488.882416 390.283386,488.929596 384.455414,488.500000 
	C383.928314,486.695587 384.062439,485.320374 383.762390,484.047455 
	C378.809052,463.031769 373.768677,442.036530 368.839783,421.015137 
	C368.086578,417.802734 366.326752,416.930084 363.160767,416.940308 
	C332.189606,417.040405 301.217682,417.071289 270.246948,416.918152 
	C266.008270,416.897217 264.895325,418.352112 264.925293,422.396759 
	C265.089447,444.541840 265.013153,466.688690 265.019470,488.834930 
	C259.982971,488.874420 254.946487,488.913910 249.450592,488.437134 
	C248.994003,466.116180 248.880264,444.310303 249.095673,422.507721 
	C249.139984,418.023132 247.674286,416.891449 243.367889,416.914154 
	C212.742310,417.075684 182.114960,417.084534 151.489609,416.902557 
	C147.251389,416.877380 145.755676,418.458954 144.869736,422.327240 
	C140.496689,441.421173 135.840515,460.450104 131.383255,479.525116 
	C130.670624,482.574860 130.460037,485.741943 130.017334,488.854767 
	C124.648468,488.888550 119.279602,488.922333 113.444908,488.896057 
	C117.642784,468.950958 122.318436,449.068665 126.967133,429.180145 
	C132.598709,405.086548 138.202148,380.986359 143.837280,356.893585 
	C144.247787,355.138519 144.816574,353.420502 145.425903,351.285309 
	C147.935257,351.861053 150.151749,352.369629 153.170334,352.931641 
	C155.654770,353.036346 157.337128,353.087677 159.085083,353.517944 
	C159.295944,355.842865 159.878662,357.877350 159.506149,359.718536 
	C158.288864,365.735260 156.666061,371.668518 155.306564,377.658234 
	C153.595718,385.195984 151.990692,392.757812 150.369781,400.173096 
	C151.231415,400.575073 151.527328,400.833710 151.823730,400.834290 
	C183.106674,400.895081 214.389832,400.975616 245.671829,400.819000 
	C246.784775,400.813477 248.688278,398.538788 248.840530,397.168060 
	C249.278900,393.221893 249.007843,389.196930 249.475128,385.121704 
	C254.951309,385.094635 259.967834,385.148773 264.987427,385.657593 
	C264.993744,389.108124 265.236115,392.127533 264.944366,395.094391 
	C264.503418,399.578064 266.001953,401.137054 270.737274,401.103607 
	C300.028870,400.896820 329.322632,401.004333 358.615692,400.986603 
	C360.214569,400.985657 361.813324,400.797394 363.903412,400.665222 
	C363.449219,398.343292 363.172272,396.580200 362.754974,394.850952 
	C360.339508,384.841309 357.690552,374.882111 355.557190,364.813354 
	C354.759827,361.050049 355.138367,357.037537 355.368896,353.073486 
	C357.474243,352.620422 359.191437,352.232544 360.908630,351.844666 
z"/>
<path fill="#426887" opacity="1.000000" stroke="none" 
	d="
M184.875366,67.054329 
	C174.274948,63.961292 163.674530,60.868259 153.074112,57.775223 
	C153.097794,57.365124 153.121475,56.955025 153.145157,56.544922 
	C160.684402,54.053932 168.188721,51.450432 175.770950,49.097980 
	C187.513153,45.454876 199.324936,42.036522 211.077103,38.424915 
	C225.176956,34.091835 239.210861,29.539141 253.360718,25.378731 
	C255.738342,24.679653 258.721558,24.944859 261.148621,25.678633 
	C285.507904,33.043232 309.810211,40.596348 334.126770,48.102264 
	C343.028870,50.850121 351.926147,53.613667 361.000000,56.424065 
	C361.000000,66.735268 361.365662,76.738159 360.893646,86.701385 
	C360.451935,96.024841 365.231293,103.835091 367.211792,112.432350 
	C367.468414,113.546219 368.047211,114.586113 368.301025,115.700310 
	C370.597900,125.783928 367.766693,129.884155 358.807861,129.064407 
	C354.676086,128.686340 350.481049,129.005417 346.314697,128.998749 
	C338.544922,128.986328 336.610535,127.027084 337.059143,119.177223 
	C337.178467,117.088844 337.838470,114.988266 338.512543,112.981407 
	C344.668030,94.655472 346.701324,78.155281 344.472137,62.924637 
	C339.584015,64.293381 334.743408,65.648811 329.127563,67.069168 
	C305.646881,74.115204 282.953857,81.137154 260.213837,88.003525 
	C258.295685,88.582718 255.925232,88.601967 254.000488,88.053909 
	C246.812057,86.007095 239.745209,83.538254 232.589828,81.369270 
	C216.698761,76.552246 200.781784,71.820717 184.875366,67.054329 
z"/>
<path fill="#395D7B" opacity="1.000000" stroke="none" 
	d="
M184.919983,67.517372 
	C200.781784,71.820717 216.698761,76.552246 232.589828,81.369270 
	C239.745209,83.538254 246.812057,86.007095 254.000488,88.053909 
	C255.925232,88.601967 258.295685,88.582718 260.213837,88.003525 
	C282.953857,81.137154 305.646881,74.115204 328.738281,67.094002 
	C329.084869,88.016197 329.045471,108.978485 328.547546,130.447754 
	C315.408295,131.014847 302.727570,131.074982 289.574951,131.089859 
	C266.047241,131.073517 242.991409,131.102417 219.935577,131.131317 
	C208.593948,131.072815 197.252304,131.014313 185.443909,130.910187 
	C184.972961,109.903160 184.968781,88.941788 184.919983,67.517372 
z"/>
<path fill="#844E3A" opacity="1.000000" stroke="none" 
	d="
M290.046814,131.135101 
	C302.727570,131.074982 315.408295,131.014847 328.555603,130.907593 
	C349.487793,147.170349 361.814972,168.476318 366.882019,193.922638 
	C368.418304,201.637665 368.862396,209.671188 368.910187,217.564285 
	C369.127136,253.387482 369.023743,289.212616 369.089294,325.502594 
	C367.602417,330.549286 366.061859,335.130463 363.913910,340.018921 
	C359.016907,347.136597 352.153442,350.191986 344.580688,352.904480 
	C341.759308,352.919220 339.380402,352.887634 337.001343,352.400269 
	C337.001129,332.501740 337.031952,313.058929 336.952332,293.616547 
	C336.944580,291.722565 336.255341,289.831390 335.858093,287.505249 
	C336.182922,269.065155 336.532135,251.058655 337.335541,233.038971 
	C344.995422,232.947083 345.137665,232.943588 344.957672,225.616898 
	C344.787079,218.672333 344.977966,211.613052 343.787872,204.818268 
	C339.381989,179.663498 327.025299,158.999374 307.022278,143.084717 
	C301.616547,138.783844 295.718750,135.101395 290.046814,131.135101 
z"/>
<path fill="#426887" opacity="1.000000" stroke="none" 
	d="
M265.483276,488.896912 
	C265.013153,466.688690 265.089447,444.541840 264.925293,422.396759 
	C264.895325,418.352112 266.008270,416.897217 270.246948,416.918152 
	C301.217682,417.071289 332.189606,417.040405 363.160767,416.940308 
	C366.326752,416.930084 368.086578,417.802734 368.839783,421.015137 
	C373.768677,442.036530 378.809052,463.031769 383.762390,484.047455 
	C384.062439,485.320374 383.928314,486.695587 383.989868,488.442993 
	C376.638580,488.894684 369.293579,488.926605 361.479004,488.439880 
	C361.006256,473.093353 361.086487,458.264832 360.973846,443.437805 
	C360.882599,431.428955 362.872223,433.308289 350.296051,432.925507 
	C346.102295,432.797852 344.876312,434.248047 344.921021,438.354767 
	C345.104095,455.179810 344.985992,472.008179 344.978760,488.835297 
	C334.635406,488.876343 324.292023,488.917419 313.479004,488.439880 
	C313.006256,473.093353 313.086487,458.264832 312.973846,443.437805 
	C312.882599,431.428986 314.872253,433.308258 302.296051,432.925476 
	C298.102295,432.797852 296.876312,434.248047 296.921021,438.354767 
	C297.104095,455.179810 296.985992,472.008179 296.978760,488.835297 
	C286.634857,488.876495 276.290955,488.917694 265.483276,488.896912 
z"/>
<path fill="#426887" opacity="1.000000" stroke="none" 
	d="
M130.482071,488.908997 
	C130.460037,485.741943 130.670624,482.574860 131.383255,479.525116 
	C135.840515,460.450104 140.496689,441.421173 144.869736,422.327240 
	C145.755676,418.458954 147.251389,416.877380 151.489609,416.902557 
	C182.114960,417.084534 212.742310,417.075684 243.367889,416.914154 
	C247.674286,416.891449 249.139984,418.023132 249.095673,422.507721 
	C248.880264,444.310303 248.994003,466.116180 248.985748,488.377899 
	C238.636429,488.876129 228.292557,488.917328 217.479065,488.439880 
	C217.006287,473.093353 217.086487,458.264801 216.973801,443.437775 
	C216.882538,431.428894 218.872299,433.308319 206.296066,432.925507 
	C202.102341,432.797821 200.876389,434.247986 200.921082,438.354736 
	C201.104156,455.179779 200.985992,472.008148 200.978729,488.835266 
	C190.635376,488.876343 180.292038,488.917419 169.479065,488.439880 
	C169.006287,473.093353 169.086487,458.264801 168.973801,443.437775 
	C168.882538,431.428894 170.872299,433.308289 158.296066,432.925476 
	C154.102341,432.797791 152.876389,434.247986 152.921066,438.354736 
	C153.104141,455.179779 152.985992,472.008148 152.978729,488.835266 
	C145.634750,488.877930 138.290771,488.920593 130.482071,488.908997 
z"/>
<path fill="#FDC8A2" opacity="1.000000" stroke="none" 
	d="
M407.925140,216.908264 
	C408.279022,215.505219 408.415131,213.997757 409.028229,212.718964 
	C410.775604,209.074142 409.636078,206.372971 407.096832,203.490463 
	C403.234985,199.106644 399.670380,194.437256 396.253845,189.691650 
	C392.957520,185.112930 392.228577,177.777588 399.448212,172.038437 
	C403.691223,168.665497 411.639343,169.309311 416.014832,173.450546 
	C417.382721,174.745178 418.993042,175.783615 420.477600,176.927933 
	C422.890198,170.725876 424.850891,164.742676 427.507202,159.086105 
	C431.158447,151.310654 441.057404,146.975662 449.503235,149.261795 
	C458.339783,151.653671 466.987762,154.809921 475.898315,156.842255 
	C485.309723,158.988861 491.491821,170.329529 488.081573,180.314072 
	C481.170319,200.548996 474.664856,220.922516 467.557556,241.560944 
	C464.962097,241.029144 462.781616,240.221390 460.643372,239.314133 
	C443.066193,231.855988 425.496857,224.379318 407.925140,216.908264 
z"/>
<path fill="#FDC8A2" opacity="1.000000" stroke="none" 
	d="
M46.165970,242.008286 
	C43.672035,234.737686 41.178097,227.467087 38.402908,219.687271 
	C39.844337,217.189896 41.569927,215.204254 43.289154,213.213104 
	C48.421604,207.268875 54.044861,201.986313 58.504791,195.166122 
	C64.036163,186.707428 63.734371,179.875305 60.521347,171.184830 
	C57.622581,163.344345 61.993923,155.916168 69.159386,153.507385 
	C76.158043,151.154694 82.860458,154.463684 86.541130,162.009354 
	C87.535500,164.047867 88.731071,165.988266 89.834290,167.973694 
	C94.014305,180.592163 98.184593,193.213882 102.380669,205.827011 
	C103.539200,209.309464 104.774506,212.766357 105.548584,216.679718 
	C102.969406,217.971970 100.795471,218.770584 98.666336,219.674698 
	C81.161507,227.108139 63.665001,234.561188 46.165970,242.008286 
z"/>
<path fill="#F1DDC1" opacity="1.000000" stroke="none" 
	d="
M89.977905,167.665100 
	C88.731071,165.988266 87.535500,164.047867 86.541130,162.009354 
	C82.860458,154.463684 76.158043,151.154694 69.159386,153.507385 
	C61.993923,155.916168 57.622581,163.344345 60.521347,171.184830 
	C63.734371,179.875305 64.036163,186.707428 58.504791,195.166122 
	C54.044861,201.986313 48.421604,207.268875 43.289154,213.213104 
	C41.569927,215.204254 39.844337,217.189896 38.056927,219.505981 
	C36.750732,220.890945 35.509274,221.947983 34.660290,222.670853 
	C26.914410,214.927124 19.241879,207.256744 11.213032,199.230133 
	C16.059149,194.412231 21.429394,189.073257 27.219418,183.342865 
	C38.408401,172.265320 49.177608,161.579193 59.946815,150.893066 
	C72.412994,138.304871 84.879181,125.716675 97.673340,113.408508 
	C97.918381,114.513504 97.913704,115.355263 97.740837,116.160927 
	C94.818764,129.779144 103.986214,139.010376 117.717453,136.293365 
	C118.844025,136.070435 120.025314,136.124084 121.181183,136.049225 
	C110.827965,146.484970 100.474747,156.920731 89.977905,167.665100 
z"/>
<path fill="#F1DDC1" opacity="1.000000" stroke="none" 
	d="
M46.094719,242.393417 
	C63.665001,234.561188 81.161507,227.108139 98.666336,219.674698 
	C100.795471,218.770584 102.969406,217.971970 105.478287,217.065720 
	C110.195412,229.635010 114.556824,242.263046 118.838760,255.257355 
	C111.958847,259.387054 105.120781,263.084351 98.366203,266.928314 
	C86.116966,273.899261 73.917450,280.957611 61.335205,287.956757 
	C56.313492,273.773621 51.655235,259.612732 46.990513,245.453964 
	C46.693905,244.553680 46.346985,243.669968 46.094719,242.393417 
z"/>
<path fill="#F1DDC1" opacity="1.000000" stroke="none" 
	d="
M407.580994,217.085663 
	C425.496857,224.379318 443.066193,231.855988 460.643372,239.314133 
	C462.781616,240.221390 464.962097,241.029144 467.478271,241.945572 
	C462.894318,257.083679 457.955078,272.159210 453.046326,287.627991 
	C451.137543,287.177124 449.094269,286.512939 447.275146,285.461090 
	C429.946533,275.441437 412.655914,265.356018 395.014282,255.163681 
	C398.602386,243.368011 402.533539,231.699219 406.452698,220.026367 
	C406.757141,219.119705 406.977448,218.184814 407.580994,217.085663 
z"/>
<path fill="#395D7B" opacity="1.000000" stroke="none" 
	d="
M68.912506,474.483643 
	C72.007790,466.250244 75.396400,458.514557 78.229759,450.580536 
	C88.405777,422.085602 98.398407,393.525146 108.447937,364.985077 
	C109.660095,361.542603 110.921150,358.109406 111.931969,354.606262 
	C112.906670,351.228241 114.710793,350.714447 117.930611,351.766327 
	C128.426239,355.195190 128.595795,355.142853 125.048584,365.252686 
	C110.847855,405.726044 96.553955,446.166687 82.305649,486.623322 
	C82.142532,487.086487 82.127403,487.601715 82.032318,488.463257 
	C79.030563,488.833862 76.039696,488.833862 72.249260,488.833862 
	C71.180862,484.316986 70.065987,479.603668 68.912506,474.483643 
z"/>
<path fill="#395D7B" opacity="1.000000" stroke="none" 
	d="
M432.429352,488.919098 
	C429.870575,482.060333 427.972137,475.183746 425.607971,468.471161 
	C417.210632,444.628479 408.649963,420.843353 400.160431,397.033142 
	C395.746521,384.653564 391.450500,372.230560 386.878754,359.909729 
	C385.749512,356.866302 386.187897,355.473083 389.308044,354.320435 
	C400.190613,350.300140 400.253540,350.171448 404.146240,361.033447 
	C414.691925,390.459442 425.107666,419.932068 435.663971,449.354248 
	C438.466583,457.165558 441.590546,464.861572 444.841370,472.842163 
	C444.037354,477.696930 443.117584,482.367767 441.751556,486.904236 
	C441.465668,487.853760 439.602448,488.664703 438.345062,488.904175 
	C436.581451,489.240051 434.704529,488.981049 432.429352,488.919098 
z"/>
<path fill="#FFB431" opacity="1.000000" stroke="none" 
	d="
M434.735596,66.735580 
	C445.527985,55.876072 456.070343,45.266571 466.559143,34.710991 
	C470.928345,39.076797 474.886993,43.032379 479.085388,47.227493 
	C478.533875,47.834946 477.918701,48.572124 477.242706,49.248508 
	C454.860687,71.643974 432.425415,93.986679 410.146210,116.483902 
	C407.377441,119.279770 405.743408,119.422668 402.928467,116.570763 
	C393.988068,107.512848 393.880402,107.622696 402.685699,98.812790 
	C413.287445,88.205505 423.885773,77.594795 434.735596,66.735580 
z"/>
<path fill="#FFB431" opacity="1.000000" stroke="none" 
	d="
M98.866333,20.015213 
	C102.623039,17.694132 105.954285,15.358047 109.398697,13.202840 
	C111.770538,11.718756 112.832291,13.167606 114.098503,15.211749 
	C123.660522,30.648396 133.338501,46.013866 143.067657,61.346130 
	C151.404739,74.484627 159.857513,87.549706 168.447021,100.940155 
	C163.327347,104.144066 158.585419,107.111595 153.748764,110.138405 
	C135.340332,81.056557 117.023361,52.140865 98.778351,23.179827 
	C98.284561,22.396013 98.568085,21.122503 98.866333,20.015213 
z"/>
<path fill="#395D7B" opacity="1.000000" stroke="none" 
	d="
M465.414429,397.801727 
	C461.773254,393.741516 458.246368,389.575897 455.120636,385.128357 
	C438.307434,361.205383 421.601318,337.207153 404.833771,313.252045 
	C403.303741,311.066162 402.843201,309.604828 405.528442,307.542969 
	C415.122162,300.176392 415.174774,299.928589 422.345490,310.063446 
	C433.381134,325.660889 444.185059,341.422424 455.068359,357.127441 
	C459.986908,364.225128 464.859833,371.354431 469.900635,378.787323 
	C468.603210,385.258881 467.158569,391.412537 465.414429,397.801727 
z"/>
<path fill="#FFB431" opacity="1.000000" stroke="none" 
	d="
M80.747101,68.252899 
	C85.749771,73.135521 90.502434,77.768150 95.455429,82.596046 
	C90.927361,86.610611 86.743515,90.319977 82.881668,93.743866 
	C67.779602,78.499260 51.834980,62.404152 36.169624,46.590950 
	C39.274181,43.439690 43.196316,39.458549 47.560429,35.028786 
	C58.268055,45.748592 69.382576,56.875748 80.747101,68.252899 
z"/>
<path fill="#395D7B" opacity="1.000000" stroke="none" 
	d="
M43.079102,377.382233 
	C46.700550,372.751862 50.528938,368.714844 53.774155,364.253632 
	C60.909081,354.445221 67.853920,344.493164 74.645302,334.443573 
	C76.655167,331.469482 78.257011,330.779449 81.441269,332.863678 
	C90.764343,338.965942 90.922302,338.912811 84.708389,347.855377 
	C72.950043,364.777008 61.084000,381.623840 49.096085,398.805054 
	C46.960144,391.999969 44.990833,384.891571 43.079102,377.382233 
z"/>
<path fill="#FFB431" opacity="1.000000" stroke="none" 
	d="
M491.764801,110.740242 
	C478.958954,119.359222 466.417603,127.719460 453.390381,136.403595 
	C450.512512,132.082977 447.602692,127.980888 445.083588,123.651459 
	C444.695892,122.985176 445.767395,120.769508 446.734558,120.120033 
	C461.799927,110.003349 476.959290,100.026695 492.604279,89.682251 
	C495.725250,94.243286 498.818726,98.764168 502.228729,103.747581 
	C498.729431,106.057899 495.379364,108.269699 491.764801,110.740242 
z"/>
<path fill="#395D7B" opacity="1.000000" stroke="none" 
	d="
M153.443848,488.894836 
	C152.985992,472.008148 153.104141,455.179779 152.921066,438.354736 
	C152.876389,434.247986 154.102341,432.797791 158.296066,432.925476 
	C170.872299,433.308289 168.882538,431.428894 168.973801,443.437775 
	C169.086487,458.264801 169.006287,473.093353 169.015396,488.378296 
	C163.983902,488.875000 158.946426,488.914703 153.443848,488.894836 
z"/>
<path fill="#395D7B" opacity="1.000000" stroke="none" 
	d="
M201.443848,488.894836 
	C200.985992,472.008148 201.104156,455.179779 200.921082,438.354736 
	C200.876389,434.247986 202.102341,432.797821 206.296066,432.925507 
	C218.872299,433.308319 216.882538,431.428894 216.973801,443.437775 
	C217.086487,458.264801 217.006287,473.093353 217.015396,488.378296 
	C211.983902,488.875000 206.946426,488.914703 201.443848,488.894836 
z"/>
<path fill="#395D7B" opacity="1.000000" stroke="none" 
	d="
M297.443848,488.894836 
	C296.985992,472.008179 297.104095,455.179810 296.921021,438.354767 
	C296.876312,434.248047 298.102295,432.797852 302.296051,432.925476 
	C314.872253,433.308258 312.882599,431.428986 312.973846,443.437805 
	C313.086487,458.264832 313.006256,473.093353 313.015320,488.378265 
	C307.983856,488.875000 302.946442,488.914673 297.443848,488.894836 
z"/>
<path fill="#395D7B" opacity="1.000000" stroke="none" 
	d="
M345.443848,488.894836 
	C344.985992,472.008179 345.104095,455.179810 344.921021,438.354767 
	C344.876312,434.248047 346.102295,432.797852 350.296051,432.925507 
	C362.872223,433.308289 360.882599,431.428955 360.973846,443.437805 
	C361.086487,458.264832 361.006256,473.093353 361.015320,488.378265 
	C355.983856,488.875000 350.946442,488.914673 345.443848,488.894836 
z"/>
<path fill="#FFB431" opacity="1.000000" stroke="none" 
	d="
M26.767923,93.262215 
	C38.674355,101.202164 50.317043,108.882767 62.335079,116.810982 
	C59.555073,121.051102 56.945602,125.309967 53.971184,129.296539 
	C53.468506,129.970261 51.028351,130.032211 50.100353,129.428452 
	C38.135311,121.644119 26.252129,113.731827 14.459866,105.688255 
	C13.547583,105.065979 12.697340,102.757210 13.137707,102.011833 
	C15.604832,97.835922 18.477432,93.899567 21.374149,89.642487 
	C23.311972,90.911842 24.908077,91.957359 26.767923,93.262215 
z"/>
<path fill="#D3C1A9" opacity="1.000000" stroke="none" 
	d="
M121.491699,135.928772 
	C120.025314,136.124084 118.844025,136.070435 117.717453,136.293365 
	C103.986214,139.010376 94.818764,129.779144 97.740837,116.160927 
	C97.913704,115.355263 97.918381,114.513504 97.976685,113.255409 
	C104.295448,103.278503 114.641319,103.663094 120.789330,106.347687 
	C130.855347,110.743134 131.308884,125.591621 125.599411,131.919800 
	C124.386765,133.263870 123.070663,134.514587 121.491699,135.928772 
z"/>
<path fill="#FFB431" opacity="1.000000" stroke="none" 
	d="
M407.720825,34.700573 
	C401.809082,44.007378 396.118408,53.014023 390.430328,62.016552 
	C386.250732,59.507023 382.232513,57.132183 378.255219,54.690636 
	C376.218811,53.440544 376.200958,51.984604 377.509186,49.948196 
	C385.552673,37.427658 393.472107,24.827419 401.667603,11.882872 
	C406.406189,14.799462 411.150757,17.719740 416.317291,20.899748 
	C413.531738,25.389921 410.736847,29.895166 407.720825,34.700573 
z"/>
<path fill="#FDC8A2" opacity="1.000000" stroke="none" 
	d="
M59.539680,150.940262 
	C49.177608,161.579193 38.408401,172.265320 27.299543,183.020508 
	C21.466034,170.903198 26.673452,160.232910 37.770088,156.999313 
	C44.871807,154.929840 52.010452,152.987045 59.539680,150.940262 
z"/>
<path fill="#FFB431" opacity="1.000000" stroke="none" 
	d="
M15.241865,27.739216 
	C13.424255,26.284428 11.855693,25.082146 10.621540,24.136185 
	C15.266204,19.424936 19.180710,15.454314 22.822096,11.760726 
	C27.678160,16.725727 32.946865,22.112629 38.112438,27.394081 
	C34.811394,30.545191 30.780361,34.393135 26.069067,38.890442 
	C22.999092,35.727436 19.245003,31.859579 15.241865,27.739216 
z"/>
<path fill="#FFB431" opacity="1.000000" stroke="none" 
	d="
M477.188477,30.684788 
	C475.084076,28.860697 474.057465,27.354467 476.294495,25.134983 
	C481.093018,20.374052 485.741394,15.461805 490.247345,10.821479 
	C494.473785,15.148467 498.259308,19.024021 501.825592,22.675163 
	C496.913971,27.587152 491.377014,33.124554 485.262543,39.239498 
	C482.832825,36.667416 480.133545,33.809967 477.188477,30.684788 
z"/>
<path fill="#395D7B" opacity="1.000000" stroke="none" 
	d="
M88.440948,314.477234 
	C90.964409,310.741333 93.326416,307.322998 95.717873,303.925354 
	C97.389435,301.550507 98.998100,300.918304 101.872993,302.805328 
	C111.400726,309.059265 111.498039,308.917786 105.205391,318.221466 
	C103.730789,320.401672 102.227486,322.562500 99.881287,325.978790 
	C95.747986,321.993164 92.020035,318.398407 88.440948,314.477234 
z"/>
<path fill="#000000" opacity="1.000000" stroke="none" 
	d="
M159.019470,353.139008 
	C157.337128,353.087677 155.654770,353.036346 153.552322,352.972290 
	C151.772217,348.587585 150.412201,344.215698 149.095062,339.454285 
	C154.420013,345.217285 160.229584,350.595123 168.312408,352.625671 
	C165.055801,353.024109 162.037643,353.081573 159.019470,353.139008 
z"/>
<path fill="#000000" opacity="1.000000" stroke="none" 
	d="
M345.023193,352.858093 
	C352.153442,350.191986 359.016907,347.136597 363.629852,340.240479 
	C362.948547,343.795288 361.943939,347.435730 360.923950,351.460419 
	C359.191437,352.232544 357.474243,352.620422 354.919678,353.023071 
	C351.062592,352.977936 348.042877,352.918030 345.023193,352.858093 
z"/>
<path fill="#FDC7A2" opacity="1.000000" stroke="none" 
	d="
M336.881348,233.052155 
	C336.532135,251.058655 336.182922,269.065155 335.667664,287.826172 
	C332.145325,304.604645 324.870087,318.591492 313.055420,329.931122 
	C308.069885,334.716187 302.261658,338.644104 296.481506,343.030640 
	C286.121002,346.379608 276.106415,349.659668 265.618408,352.961365 
	C259.399536,352.968536 253.654022,352.954102 247.619171,352.699768 
	C237.280746,349.291534 227.231659,346.123199 217.009186,342.657898 
	C210.554169,337.225983 203.800354,332.563080 198.092514,326.854370 
	C187.355148,316.115356 181.628906,302.527100 178.109879,287.937286 
	C177.748703,269.951233 177.387512,251.965179 177.508057,233.494537 
	C180.321640,232.950912 182.653458,232.891876 184.985291,232.832840 
	C224.014603,230.870285 246.865479,209.470490 257.264038,171.873489 
	C261.393585,192.017715 271.013580,207.805283 287.122955,219.322342 
	C299.360901,228.071594 313.067261,232.597244 329.005615,232.955627 
	C332.215546,232.993378 334.548462,233.022766 336.881348,233.052155 
M233.001358,288.369293 
	C233.072098,298.693024 237.816650,306.328583 246.993469,310.706421 
	C255.664764,314.843109 264.247040,313.757477 271.818848,307.743347 
	C280.407471,300.921600 282.104309,291.695770 280.555725,281.307434 
	C264.672913,281.307434 249.129089,281.307434 233.000366,281.307434 
	C233.000366,283.553528 233.000366,285.499603 233.001358,288.369293 
M291.763672,233.917587 
	C283.446320,237.728271 279.497437,244.850174 281.405457,252.598907 
	C283.505249,261.126404 292.116058,266.579224 300.410553,264.633942 
	C308.992706,262.621185 314.525879,254.121658 312.686096,245.777496 
	C310.666321,236.616791 302.372498,231.639465 291.763672,233.917587 
M209.615936,234.835953 
	C202.511902,239.490952 199.626572,245.938553 201.514603,252.939316 
	C203.362793,259.792358 209.393814,264.698517 216.320816,264.983948 
	C222.729263,265.247986 228.960663,261.496124 231.523849,255.623856 
	C234.243225,249.393753 233.427078,243.494858 228.882721,238.464905 
	C223.744751,232.777954 217.402802,231.572464 209.615936,234.835953 
z"/>
<path fill="#784533" opacity="1.000000" stroke="none" 
	d="
M337.335541,233.038971 
	C334.548462,233.022766 332.215546,232.993378 329.448547,232.900421 
	C329.008759,228.338226 328.862701,223.833847 329.046204,219.342941 
	C329.171112,216.286102 328.074249,214.491241 325.292847,213.075150 
	C310.660278,205.625214 297.851379,195.625076 285.911072,184.440826 
	C283.489777,182.172836 280.925079,180.056122 278.397766,177.903412 
	C273.781952,173.971710 278.287140,171.752487 280.477295,170.323074 
	C283.237274,168.521759 284.004761,161.281128 289.916443,166.349564 
	C299.486664,174.554672 309.244629,182.541412 318.966797,190.567734 
	C320.075226,191.482819 321.462006,192.060699 322.962891,192.936905 
	C320.673004,174.557892 293.186676,145.190231 265.484253,139.538498 
	C265.320099,140.962936 265.041077,142.346069 265.022827,143.732651 
	C264.963745,148.230530 265.000092,152.729691 265.000031,157.228348 
	C264.999908,168.199753 264.953400,167.838135 254.155945,169.229156 
	C250.921280,169.645859 247.851151,172.462692 245.005997,174.582962 
	C233.424042,183.214035 221.896301,191.921188 210.484695,200.775711 
	C206.564941,203.817154 204.063400,203.110092 201.889877,198.884979 
	C200.465408,196.115967 198.700806,193.521927 197.037796,190.765396 
	C205.835510,184.394073 214.455154,178.476486 222.705063,172.081848 
	C230.307053,166.189423 237.376907,159.613083 244.937149,153.663300 
	C250.299042,149.443619 249.089157,144.163635 248.572937,138.382538 
	C236.851288,140.438019 226.698914,145.175674 217.566681,152.051605 
	C206.914520,160.071945 198.058823,169.706070 192.952530,182.242905 
	C191.195999,186.555496 188.932861,187.424149 184.542236,185.809708 
	C174.845657,182.244247 174.851776,182.501038 179.309250,173.330215 
	C188.191940,155.055008 201.992859,141.560516 219.709991,131.363708 
	C242.991409,131.102417 266.047241,131.073517 289.574951,131.089859 
	C295.718750,135.101395 301.616547,138.783844 307.022278,143.084717 
	C327.025299,158.999374 339.381989,179.663498 343.787872,204.818268 
	C344.977966,211.613052 344.787079,218.672333 344.957672,225.616898 
	C345.137665,232.943588 344.995422,232.947083 337.335541,233.038971 
z"/>
<path fill="#426887" opacity="1.000000" stroke="none" 
	d="
M159.085083,353.517944 
	C162.037643,353.081573 165.055801,353.024109 168.525726,352.912476 
	C171.355011,352.887177 173.732544,352.916077 177.020477,352.949707 
	C183.057236,353.024872 188.183609,353.095306 193.448151,353.444885 
	C207.544647,372.172577 226.120926,382.489655 249.015488,385.202911 
	C249.007843,389.196930 249.278900,393.221893 248.840530,397.168060 
	C248.688278,398.538788 246.784775,400.813477 245.671829,400.819000 
	C214.389832,400.975616 183.106674,400.895081 151.823730,400.834290 
	C151.527328,400.833710 151.231415,400.575073 150.369781,400.173096 
	C151.990692,392.757812 153.595718,385.195984 155.306564,377.658234 
	C156.666061,371.668518 158.288864,365.735260 159.506149,359.718536 
	C159.878662,357.877350 159.295944,355.842865 159.085083,353.517944 
z"/>
<path fill="#794634" opacity="1.000000" stroke="none" 
	d="
M193.309967,353.165771 
	C188.183609,353.095306 183.057236,353.024872 177.464630,352.905396 
	C176.998535,333.394165 176.982758,313.931946 177.023163,294.469849 
	C177.027252,292.504913 177.370605,290.540680 177.833191,288.256714 
	C181.628906,302.527100 187.355148,316.115356 198.092514,326.854370 
	C203.800354,332.563080 210.554169,337.225983 216.942062,343.109741 
	C217.005096,346.871826 216.961899,349.885101 216.456879,352.940247 
	C208.433334,353.043274 200.871658,353.104523 193.309967,353.165771 
z"/>
<path fill="#784533" opacity="1.000000" stroke="none" 
	d="
M184.989304,232.375259 
	C182.653458,232.891876 180.321640,232.950912 177.554504,233.031250 
	C175.791946,233.033783 174.457825,232.919907 173.138885,233.015625 
	C170.223724,233.227112 168.832199,232.111526 168.979446,229.026825 
	C169.389496,220.436966 169.539719,211.831039 170.177307,203.260071 
	C170.262878,202.109634 172.527313,201.072510 173.869858,200.103516 
	C174.155701,199.897202 174.823013,200.206482 175.311401,200.295578 
	C185.279633,202.114075 185.213623,202.113342 185.027237,212.006714 
	C184.902252,218.641556 184.996933,225.280548 184.989304,232.375259 
z"/>
<path fill="#426887" opacity="1.000000" stroke="none" 
	d="
M344.580688,352.904449 
	C348.042877,352.918030 351.062592,352.977936 354.531494,353.088257 
	C355.138367,357.037537 354.759827,361.050049 355.557190,364.813354 
	C357.690552,374.882111 360.339508,384.841309 362.754974,394.850952 
	C363.172272,396.580200 363.449219,398.343292 363.903412,400.665222 
	C361.813324,400.797394 360.214569,400.985657 358.615692,400.986603 
	C329.322632,401.004333 300.028870,400.896820 270.737274,401.103607 
	C266.001953,401.137054 264.503418,399.578064 264.944366,395.094391 
	C265.236115,392.127533 264.993744,389.108124 265.405396,385.589111 
	C288.608185,382.174408 307.067230,371.834930 321.176270,353.121948 
	C326.775360,352.997986 331.888428,352.927032 337.001526,352.856079 
	C339.380402,352.887634 341.759308,352.919220 344.580688,352.904449 
z"/>
<path fill="#F0DCC1" opacity="1.000000" stroke="none" 
	d="
M320.690308,353.174957 
	C307.067230,371.834930 288.608185,382.174408 265.402344,385.134430 
	C259.967834,385.148773 254.951309,385.094635 249.475128,385.121704 
	C226.120926,382.489655 207.544647,372.172577 193.448151,353.444916 
	C200.871658,353.104523 208.433334,353.043274 216.928284,352.971558 
	C227.877182,352.953949 237.892853,352.946777 247.908508,352.939636 
	C253.654022,352.954102 259.399536,352.968536 266.076599,352.974121 
	C277.032532,352.942993 287.056885,352.920685 297.543091,352.940186 
	C305.566742,353.046326 313.128510,353.110657 320.690308,353.174957 
z"/>
<path fill="#794634" opacity="1.000000" stroke="none" 
	d="
M321.176270,353.121948 
	C313.128510,353.110657 305.566742,353.046326 297.510986,352.494324 
	C296.953827,348.991608 296.890594,345.976654 296.827393,342.961670 
	C302.261658,338.644104 308.069885,334.716187 313.055420,329.931122 
	C324.870087,318.591492 332.145325,304.604645 335.692017,288.259827 
	C336.255341,289.831390 336.944580,291.722565 336.952332,293.616547 
	C337.031952,313.058929 337.001129,332.501740 337.001343,352.400269 
	C331.888428,352.927032 326.775360,352.997986 321.176270,353.121948 
z"/>
<path fill="#DE5641" opacity="1.000000" stroke="none" 
	d="
M233.000854,287.907471 
	C233.000366,285.499603 233.000366,283.553528 233.000366,281.307434 
	C249.129089,281.307434 264.672913,281.307434 280.555725,281.307434 
	C282.104309,291.695770 280.407471,300.921600 271.818848,307.743347 
	C264.247040,313.757477 255.664764,314.843109 246.993469,310.706421 
	C237.816650,306.328583 233.072098,298.693024 233.000854,287.907471 
z"/>
<path fill="#86503C" opacity="1.000000" stroke="none" 
	d="
M292.150391,233.801575 
	C302.372498,231.639465 310.666321,236.616791 312.686096,245.777496 
	C314.525879,254.121658 308.992706,262.621185 300.410553,264.633942 
	C292.116058,266.579224 283.505249,261.126404 281.405457,252.598907 
	C279.497437,244.850174 283.446320,237.728271 292.150391,233.801575 
z"/>
<path fill="#86503C" opacity="1.000000" stroke="none" 
	d="
M209.957214,234.653992 
	C217.402802,231.572464 223.744751,232.777954 228.882721,238.464905 
	C233.427078,243.494858 234.243225,249.393753 231.523849,255.623856 
	C228.960663,261.496124 222.729263,265.247986 216.320816,264.983948 
	C209.393814,264.698517 203.362793,259.792358 201.514603,252.939316 
	C199.626572,245.938553 202.511902,239.490952 209.957214,234.653992 
z"/>
<path fill="#FDB684" opacity="1.000000" stroke="none" 
	d="
M247.619171,352.699768 
	C237.892853,352.946777 227.877182,352.953949 217.390121,352.929749 
	C216.961899,349.885101 217.005096,346.871826 217.115417,343.406677 
	C227.231659,346.123199 237.280746,349.291534 247.619171,352.699768 
z"/>
<path fill="#FDB684" opacity="1.000000" stroke="none" 
	d="
M296.481506,343.030640 
	C296.890594,345.976654 296.953827,348.991608 297.049133,352.452484 
	C287.056885,352.920685 277.032532,352.942993 266.549988,352.952515 
	C276.106415,349.659668 286.121002,346.379608 296.481506,343.030640 
z"/>
</svg>