<svg width="109" height="113" viewBox="0 0 109 113" fill="none" xmlns="http://www.w3.org/2000/svg">
<path d="M99.839 0H9.53215C4.53121 0 0.470703 4.12203 0.470703 9.30754V82.1155C0.470703 87.3098 4.53121 91.4318 9.53215 91.4318H27.9275V87.758H9.53215C6.56147 87.758 4.14449 85.2883 4.14449 82.1155V25.9539H105.227V82.1155C105.227 85.2883 102.81 87.758 99.839 87.758H81.2151V91.4318H99.839C104.84 91.4318 108.9 87.3098 108.9 82.1155V9.30754C108.9 4.12203 104.84 0 99.839 0ZM105.227 22.2801H4.14449V9.30754C4.14449 6.1435 6.56147 3.6738 9.53215 3.6738H99.839C102.81 3.6738 105.227 6.1435 105.227 9.30754V22.2801Z" fill="#0E1A2D"/>
<path d="M28.7978 6.21387C25.124 6.21387 22.1445 9.2988 22.1445 13.1044C22.1445 16.9013 25.124 19.995 28.7978 19.995C32.4628 19.995 35.4511 16.9013 35.4511 13.1044C35.4511 9.2988 32.4628 6.21387 28.7978 6.21387ZM28.7978 16.3124C27.1543 16.3124 25.8183 14.871 25.8183 13.1044C25.8183 11.3291 27.1543 9.88766 28.7978 9.88766C30.4413 9.88766 31.7773 11.3291 31.7773 13.1044C31.7773 14.871 30.4413 16.3124 28.7978 16.3124Z" fill="#0E1A2D"/>
<path d="M44.4501 6.21387C40.7763 6.21387 37.7969 9.2988 37.7969 13.1044C37.7969 16.9013 40.7763 19.995 44.4501 19.995C48.1152 19.995 51.1034 16.9013 51.1034 13.1044C51.1034 9.2988 48.1152 6.21387 44.4501 6.21387ZM44.4501 16.3124C42.8066 16.3124 41.4707 14.871 41.4707 13.1044C41.4707 11.3291 42.8066 9.88766 44.4501 9.88766C46.0937 9.88766 47.4296 11.3291 47.4296 13.1044C47.4296 14.871 46.0937 16.3124 44.4501 16.3124Z" fill="#0E1A2D"/>
<path d="M13.1435 6.21387C9.46971 6.21387 6.49023 9.2988 6.49023 13.1044C6.49023 16.9013 9.46971 19.995 13.1435 19.995C16.8085 19.995 19.7968 16.9013 19.7968 13.1044C19.7968 9.2988 16.8085 6.21387 13.1435 6.21387ZM13.1435 16.3124C11.5 16.3124 10.164 14.871 10.164 13.1044C10.164 11.3291 11.5 9.88766 13.1435 9.88766C14.787 9.88766 16.123 11.3291 16.123 13.1044C16.123 14.871 14.787 16.3124 13.1435 16.3124Z" fill="#0E1A2D"/>
<path d="M84.6245 47.1085L70.7203 33.2044C70.3336 32.8176 69.8063 32.5979 69.2526 32.6067H25.7647C25.2198 32.5979 24.6924 32.8264 24.2969 33.2131C23.919 33.6086 23.708 34.136 23.7256 34.6809V110.837C23.6905 111.998 24.6045 112.964 25.7647 113H83.1655C84.3257 112.964 85.2397 111.998 85.2046 110.837V48.5675C85.2046 48.0226 84.9937 47.504 84.6245 47.1085ZM71.274 39.7521L78.0943 46.5372H71.274V39.7521ZM80.9947 108.798H27.9356V36.8078H67.0729V48.6027C67.1081 49.7804 68.0748 50.7208 69.2526 50.7296H80.9947V108.798Z" fill="#0E1A2D"/>
<path d="M68.6482 55.5469H40.2685C39.1084 55.5469 38.168 56.4873 38.168 57.6387V82.6082C38.168 83.7595 39.1084 84.6999 40.2685 84.6999H68.6482C69.8083 84.6999 70.7487 83.7595 70.7487 82.6082V57.6387C70.7487 56.4873 69.8083 55.5469 68.6482 55.5469ZM66.5388 80.7625H42.3691V59.748H66.5388V80.7625Z" fill="#0E1A2D"/>
<path d="M62.188 68.4229L50.4547 61.8488C49.8043 61.4884 49.0133 61.4972 48.3717 61.8752C47.7389 62.2531 47.3521 62.9474 47.3697 63.6857V76.8252C47.3609 77.5635 47.7388 78.2578 48.3804 78.6357C49.022 79.0137 49.8131 79.0225 50.4547 78.6533L62.188 72.088C62.8559 71.7188 63.269 71.0069 63.269 70.2511C63.269 69.4952 62.8559 68.7833 62.188 68.4229ZM51.5621 73.2305V67.2716L56.897 70.2511L51.5621 73.2305Z" fill="#0E1A2D"/>
<path d="M66.7234 98.3662H36.1025C34.9424 98.3662 34.002 99.3066 34.002 100.467C34.002 101.627 34.9424 102.567 36.1025 102.567H66.7234C67.8835 102.567 68.8239 101.627 68.8239 100.467C68.8239 99.3066 67.8835 98.3662 66.7234 98.3662Z" fill="#0E1A2D"/>
<path d="M36.1025 95.7392H55.5262C56.6863 95.7392 57.6268 94.7988 57.6268 93.6387C57.6268 92.4785 56.6863 91.5381 55.5262 91.5381H36.1025C34.9424 91.5381 34.002 92.4785 34.002 93.6387C34.002 94.7988 34.9424 95.7392 36.1025 95.7392Z" fill="#0E1A2D"/>
</svg>
