<svg version="1.1" id="Layer_1" xmlns="http://www.w3.org/2000/svg" xmlns:xlink="http://www.w3.org/1999/xlink" x="0px" y="0px"
	 width="100%" viewBox="0 0 512 512" enable-background="new 0 0 512 512" xml:space="preserve">
<path fill="#FFD2D2" opacity="1.000000" stroke="none" 
	d="
M513.000000,343.000000 
	C513.000000,358.020905 513.000000,373.041779 512.658142,388.210144 
	C510.878143,393.735779 509.553558,399.147369 507.983063,404.486664 
	C499.178467,434.419678 481.758881,458.501648 456.659790,476.588593 
	C436.824677,490.882294 414.138306,498.964691 389.702026,500.854584 
	C371.823181,502.237335 354.028351,500.484436 337.030945,494.295654 
	C326.945343,490.623444 317.356567,485.541779 307.195679,482.133362 
	C296.327850,478.487885 285.050201,476.064148 274.093903,472.794556 
	C277.009583,469.723145 279.715576,466.892273 282.573273,464.223877 
	C286.019653,461.005798 289.645813,457.980438 293.099915,454.770294 
	C296.568970,451.546265 299.754120,447.999420 303.359253,444.942627 
	C312.305664,437.356934 321.470642,430.029388 330.439850,422.470032 
	C333.464874,419.920471 336.164856,416.985229 339.477966,414.166626 
	C349.628479,414.066956 359.314392,414.026917 369.457703,414.014221 
	C373.276733,414.027710 376.638367,414.013855 380.468140,414.024200 
	C386.721436,414.059357 392.506592,414.081512 398.291718,414.077362 
	C402.194031,414.074554 406.096344,414.034607 410.466949,414.035034 
	C420.079132,414.068695 429.224121,414.169922 438.366638,414.061951 
	C446.942657,413.960693 452.944305,407.785889 452.992859,399.136047 
	C453.016144,394.987213 452.813446,390.837128 452.860382,386.378998 
	C456.873505,381.555603 458.208130,376.332947 458.179260,370.409119 
	C458.074615,348.943054 458.229950,327.475677 458.540588,305.949860 
	C458.624908,305.257599 458.455811,304.624298 458.209412,303.532776 
	C458.180389,298.717834 458.228729,294.361053 458.627777,289.993134 
	C463.018127,286.594025 467.097565,283.252167 471.086304,279.805359 
	C475.150391,276.293488 478.839111,272.267700 483.215729,269.218384 
	C488.061890,265.841919 488.942352,262.237152 485.013855,257.824799 
	C484.543732,257.296783 484.628235,256.274994 484.252289,254.547623 
	C486.680084,256.051239 488.256927,257.027832 489.907074,258.438232 
	C490.356995,265.713165 490.012360,272.693359 491.298157,279.359070 
	C492.805756,287.174377 495.610748,294.755188 498.069122,302.367889 
	C502.296417,315.458435 506.672150,328.501312 511.073090,341.534637 
	C511.286865,342.167786 512.338501,342.518036 513.000000,343.000000 
z"/>
<path fill="#000000" opacity="1.000000" stroke="none" 
	d="
M273.951416,473.107117 
	C285.050201,476.064148 296.327850,478.487885 307.195679,482.133362 
	C317.356567,485.541779 326.945343,490.623444 337.030945,494.295654 
	C354.028351,500.484436 371.823181,502.237335 389.702026,500.854584 
	C414.138306,498.964691 436.824677,490.882294 456.659790,476.588593 
	C481.758881,458.501648 499.178467,434.419678 507.983063,404.486664 
	C509.553558,399.147369 510.878143,393.735779 512.658142,388.678772 
	C513.000000,430.309479 513.000000,471.618988 513.000000,512.964233 
	C342.455627,512.964233 171.911224,512.964233 1.000000,512.964233 
	C1.000000,472.313171 1.000000,431.625244 1.331025,390.141724 
	C2.016696,389.689392 2.629328,389.993134 2.688775,390.381561 
	C5.026472,405.653900 10.621003,419.813202 18.134670,433.145050 
	C21.726984,439.519043 26.640730,445.148315 30.979164,451.462830 
	C46.275936,469.865082 64.353516,484.028503 87.008514,492.407654 
	C89.096809,493.209717 91.027557,493.662994 93.132515,494.456543 
	C96.205338,495.475830 99.103958,496.154816 102.402367,496.914062 
	C106.091507,497.669037 109.391121,498.297577 112.668442,499.026398 
	C128.504150,502.547729 144.427475,501.594574 160.124573,498.802094 
	C175.192795,496.121490 189.229935,490.036896 203.122086,483.569214 
	C215.711929,477.707825 229.238754,474.259216 243.073517,473.168304 
	C253.304153,472.361603 263.654449,473.072388 273.951416,473.107117 
z"/>
<path fill="#000000" opacity="1.000000" stroke="none" 
	d="
M0.999999,124.000000 
	C1.000000,83.023659 1.000000,42.047321 1.000000,1.035491 
	C171.544510,1.035491 342.089020,1.035491 513.000000,1.035491 
	C513.000000,41.686829 513.000000,82.374756 512.677734,123.874451 
	C511.921967,124.207962 511.236115,123.794868 511.093201,123.241562 
	C509.324127,116.390732 508.363892,109.225578 505.745941,102.725090 
	C502.174805,93.857773 497.355927,85.492981 493.062256,76.937347 
	C493.052490,76.961960 493.101013,76.940880 493.055237,76.634216 
	C492.713684,75.864639 492.417938,75.401741 491.977478,74.616470 
	C487.976379,69.116409 484.470276,63.627583 480.198547,58.818935 
	C466.975555,43.933910 451.411072,32.027359 433.074463,24.094351 
	C427.279907,21.587437 421.038544,20.113226 414.643738,17.991703 
	C404.414581,16.210794 394.592010,14.036241 384.656128,13.186741 
	C377.334564,12.560760 369.742523,12.944102 362.491150,14.174876 
	C352.551788,15.861888 342.820953,18.777302 332.625061,21.094048 
	C327.486359,23.308502 322.723328,25.595175 317.601868,27.935236 
	C315.814880,28.620749 314.386353,29.252872 312.579590,29.941338 
	C309.121094,31.292503 306.040833,32.587330 302.563721,33.935780 
	C296.111572,35.715149 290.056305,37.440895 283.624817,39.091099 
	C282.255157,39.137894 281.261780,39.260235 279.948883,39.626816 
	C276.419708,40.302944 273.209991,40.734825 269.546204,41.091042 
	C259.798187,41.001137 250.303482,42.191292 241.258606,40.683323 
	C228.490387,38.554596 216.054886,34.430172 203.269043,30.888214 
	C185.125748,21.263178 166.201248,14.714799 146.015884,13.165616 
	C128.957367,11.856411 112.049255,13.668647 95.503532,18.764673 
	C68.581589,27.056545 46.655861,42.512333 29.257839,64.369545 
	C15.745113,81.345642 6.959322,100.661461 2.930100,122.071404 
	C2.791247,122.809212 1.665667,123.361328 0.999999,124.000000 
z"/>
<path fill="#FFB9B9" opacity="1.000000" stroke="none" 
	d="
M0.999999,124.468658 
	C1.665667,123.361328 2.791247,122.809212 2.930100,122.071404 
	C6.959322,100.661461 15.745113,81.345642 29.257839,64.369545 
	C46.655861,42.512333 68.581589,27.056545 95.503532,18.764673 
	C112.049255,13.668647 128.957367,11.856411 146.015884,13.165616 
	C166.201248,14.714799 185.125748,21.263178 203.082840,31.246399 
	C197.811310,36.341965 192.463531,40.746086 187.235672,45.288231 
	C176.106049,54.958015 165.065735,64.730576 153.939133,74.403862 
	C139.442551,87.006958 124.872002,99.525024 110.385963,112.140175 
	C104.278748,117.458641 98.376633,123.013153 92.252541,128.311554 
	C85.998749,133.722183 79.527832,138.882904 73.315712,144.339432 
	C72.493469,145.061661 72.637115,146.883545 72.071945,148.480957 
	C64.336143,149.795486 59.765495,154.367294 56.522911,161.010605 
	C54.532185,161.765549 52.619415,162.183060 51.320763,163.308914 
	C42.317688,171.114105 33.579048,179.228958 24.467354,186.902206 
	C20.019651,190.647751 14.953161,193.658508 10.002249,196.657104 
	C7.551520,188.341202 5.297093,180.360550 2.916353,172.417755 
	C2.733718,171.808441 1.659691,171.466324 0.999997,171.000000 
	C1.000000,155.645767 1.000000,140.291550 0.999999,124.468658 
z"/>
<path fill="#FEC9CA" opacity="1.000000" stroke="none" 
	d="
M493.071991,76.912735 
	C497.355927,85.492981 502.174805,93.857773 505.745941,102.725090 
	C508.363892,109.225578 509.324127,116.390732 511.093201,123.241562 
	C511.236115,123.794868 511.921967,124.207962 512.677734,124.343109 
	C513.000000,139.354233 513.000000,154.708450 512.677917,170.188339 
	C511.922974,170.790833 511.244934,171.200943 511.094269,171.754562 
	C509.158325,178.869370 508.091125,186.336914 505.270416,193.072998 
	C496.541168,213.919189 490.520325,235.298172 489.833771,258.004425 
	C488.256927,257.027832 486.680084,256.051239 484.252289,254.547623 
	C484.628235,256.274994 484.543732,257.296783 485.013855,257.824799 
	C488.942352,262.237152 488.061890,265.841919 483.215729,269.218384 
	C478.839111,272.267700 475.150391,276.293488 471.086304,279.805359 
	C467.097565,283.252167 463.018127,286.594025 458.546021,289.530579 
	C458.095123,249.103867 458.115784,209.128418 458.035461,169.153183 
	C458.010223,156.589081 449.577026,148.252502 437.050293,148.111603 
	C433.117950,148.067368 429.184631,148.104706 425.155609,148.104706 
	C425.155609,144.956711 425.155609,142.479324 425.488342,139.947571 
	C430.571808,135.204865 435.322571,130.516510 440.403198,126.006470 
	C442.957489,127.068642 445.181976,127.952515 447.752533,128.973907 
	C448.197601,131.899506 448.046021,135.868408 452.993103,135.968231 
	C458.361420,136.076553 457.620209,131.450607 458.580750,128.260681 
	C462.088623,127.924408 465.752228,128.001755 465.970398,123.315063 
	C466.217468,118.007751 462.031433,118.133759 458.396759,117.627731 
	C458.114807,115.670189 457.859802,113.899765 457.933929,111.986450 
	C461.984161,108.587639 465.704285,105.330589 469.426575,102.076027 
	C475.486755,96.777351 481.370239,91.254463 487.683319,86.276405 
	C490.912689,83.729919 493.227570,81.167412 493.071991,76.912735 
z"/>
<path fill="#FFC3C3" opacity="1.000000" stroke="none" 
	d="
M30.955967,451.114868 
	C26.640730,445.148315 21.726984,439.519043 18.134670,433.145050 
	C10.621003,419.813202 5.026472,405.653900 2.688775,390.381561 
	C2.629328,389.993134 2.016696,389.689392 1.331025,389.673096 
	C1.000000,374.645782 1.000000,359.291534 1.258095,343.775299 
	C2.066325,343.076660 2.616459,342.540039 3.507544,341.941040 
	C5.312006,340.220184 6.601027,338.356018 8.270267,336.940063 
	C14.378322,331.758911 20.759123,326.892517 26.759966,321.593597 
	C33.124550,315.973511 38.996433,309.789459 45.438469,304.265717 
	C48.457706,301.676880 52.310894,300.060669 55.857414,298.467163 
	C55.937733,322.545593 56.061546,346.161469 55.877270,369.774933 
	C55.829590,375.884277 57.256756,381.225220 60.996582,386.451965 
	C60.982327,396.940399 59.222107,407.546417 69.884247,414.250671 
	C69.510399,415.307831 69.259277,416.081909 68.637573,416.921387 
	C63.566452,420.487335 60.441704,425.647125 55.261871,429.021271 
	C53.431602,429.713684 51.727512,430.122498 50.504032,431.120544 
	C45.671047,435.063019 40.801880,438.997437 36.329849,443.330811 
	C34.109329,445.482544 32.720863,448.492950 30.955967,451.114868 
z"/>
<path fill="#000000" opacity="1.000000" stroke="none" 
	d="
M489.907074,258.438232 
	C490.520325,235.298172 496.541168,213.919189 505.270416,193.072998 
	C508.091125,186.336914 509.158325,178.869370 511.094269,171.754562 
	C511.244934,171.200943 511.922974,170.790833 512.677917,170.656998 
	C513.000000,228.020889 513.000000,285.041779 513.000000,342.531342 
	C512.338501,342.518036 511.286865,342.167786 511.073090,341.534637 
	C506.672150,328.501312 502.296417,315.458435 498.069122,302.367889 
	C495.610748,294.755188 492.805756,287.174377 491.298157,279.359070 
	C490.012360,272.693359 490.356995,265.713165 489.907074,258.438232 
z"/>
<path fill="#000000" opacity="1.000000" stroke="none" 
	d="
M3.166598,342.003418 
	C2.616459,342.540039 2.066325,343.076660 1.258095,343.306641 
	C1.000000,285.979095 1.000000,228.958206 0.999997,171.468658 
	C1.659691,171.466324 2.733718,171.808441 2.916353,172.417755 
	C5.297093,180.360550 7.551520,188.341202 9.931302,197.029816 
	C11.687271,201.742172 13.514608,205.677444 14.983614,209.742188 
	C21.447435,227.627548 25.108366,245.949783 22.981066,265.074646 
	C22.189972,272.186798 21.955732,279.488953 20.078245,286.322784 
	C17.106842,297.138306 12.742070,307.562622 9.394250,318.285919 
	C6.960897,326.080170 5.217583,334.089813 3.166598,342.003418 
z"/>
<path fill="#2928BC" opacity="1.000000" stroke="none" 
	d="
M61.008587,385.983185 
	C57.256756,381.225220 55.829590,375.884277 55.877270,369.774933 
	C56.061546,346.161469 55.937733,322.545593 55.931515,298.003448 
	C55.944592,254.973434 55.934635,212.870575 56.004765,170.767838 
	C56.010189,167.511734 56.578415,164.256561 56.885059,161.000961 
	C59.765495,154.367294 64.336143,149.795486 72.515533,148.532623 
	C78.322594,148.299500 83.424568,148.299500 89.083107,148.299500 
	C89.083107,144.886902 89.041496,142.105286 89.091682,139.325317 
	C89.199516,133.352570 94.304214,127.648819 100.343117,127.056900 
	C103.796265,126.718430 107.270676,126.445908 110.737442,126.421829 
	C132.490402,126.270760 154.243927,126.197945 176.456329,126.204979 
	C190.276459,126.236671 203.637543,126.162621 217.456772,126.193436 
	C221.747437,126.314972 225.580170,126.365456 229.412415,126.341820 
	C239.991302,126.276558 248.999619,129.671936 255.758575,138.141266 
	C256.119446,138.593445 256.752411,138.828491 256.161041,138.435867 
	C262.950531,133.958160 269.098022,129.903839 275.950684,125.384460 
	C275.950684,117.915985 275.901733,109.257706 275.965485,100.600250 
	C276.020752,93.097649 279.841949,89.268990 287.385651,89.170494 
	C294.050385,89.083481 300.720459,89.274788 307.381714,89.098206 
	C311.195557,88.997108 313.865234,90.197189 314.913574,94.339432 
	C313.919647,98.177856 311.563782,99.323822 308.141418,99.272415 
	C300.909424,99.163773 293.674683,99.239326 286.148376,99.239326 
	C286.148376,107.529633 286.148376,115.261772 286.080078,123.458527 
	C286.011810,146.841812 286.011810,169.760468 286.011810,192.711029 
	C321.297638,192.711029 355.990906,192.711029 390.834503,192.711029 
	C390.834503,169.235458 390.834503,146.113815 390.904541,122.528206 
	C390.974579,114.622787 390.974579,107.181328 390.974579,99.242302 
	C388.682343,99.242302 386.893494,99.242348 385.104614,99.242294 
	C370.954193,99.241898 356.802765,99.149590 342.653931,99.299110 
	C338.601349,99.341934 335.842773,98.198257 335.076416,93.697754 
	C336.183319,92.124336 337.167297,90.841743 338.599304,89.452866 
	C355.005829,89.273460 370.964264,89.179298 386.922882,89.134407 
	C398.097595,89.102974 401.010651,92.069450 401.016754,103.346519 
	C401.020844,110.916260 401.017517,118.486000 401.017517,126.359879 
	C412.623932,125.589157 422.402924,126.918968 425.155609,140.001938 
	C425.155609,142.479324 425.155609,144.956711 425.155609,148.104706 
	C429.184631,148.104706 433.117950,148.067368 437.050293,148.111603 
	C449.577026,148.252502 458.010223,156.589081 458.035461,169.153183 
	C458.115784,209.128418 458.095123,249.103867 458.195251,289.541748 
	C458.228729,294.361053 458.180389,298.717834 458.130371,303.866028 
	C458.181519,305.107941 458.234375,305.558380 458.287170,306.008820 
	C458.229950,327.475677 458.074615,348.943054 458.179260,370.409119 
	C458.208130,376.332947 456.873505,381.555603 452.541748,386.504608 
	C445.808716,392.948395 437.840424,392.691620 429.554199,392.860596 
	C419.388062,392.820618 409.674286,392.850159 399.510345,392.807800 
	C395.722534,392.779266 392.384888,392.822632 388.671722,392.705750 
	C372.190399,392.632355 356.084564,392.719177 339.529633,392.668823 
	C309.483643,392.531586 279.886749,392.531586 249.176620,392.531586 
	C249.176620,400.173828 249.176620,407.118561 249.031998,414.360046 
	C247.515778,416.321350 246.144165,417.985870 244.391876,419.744904 
	C238.628647,422.547485 234.551865,419.717896 230.269424,416.882263 
	C221.547699,411.107178 224.796432,411.137390 216.383621,416.874451 
	C211.936859,419.906860 207.577576,422.316437 201.895706,419.589874 
	C200.183105,417.523590 198.660828,415.722351 197.137634,413.457764 
	C197.136688,406.240692 197.136688,399.487000 197.136688,392.685669 
	C180.849564,392.685669 165.400238,392.685669 149.503967,392.557343 
	C125.782677,392.380280 102.507431,392.202423 79.234489,392.361298 
	C72.237999,392.409058 66.110123,390.899719 61.008587,385.983185 
M239.245651,373.048096 
	C239.245651,369.143921 239.245651,365.239777 239.245651,361.317688 
	C228.201630,361.317688 217.842590,361.317688 207.283936,361.317688 
	C207.283936,365.735321 207.283936,369.844177 207.126007,374.883942 
	C207.126007,386.534607 207.126007,398.185242 207.126007,410.757416 
	C211.716949,407.648773 215.368118,405.358551 218.812225,402.790588 
	C221.955002,400.447357 224.755127,400.544617 227.867508,402.849274 
	C231.281998,405.377563 234.907776,407.620514 238.836411,410.252350 
	C239.076508,409.019379 239.296585,408.422699 239.293243,407.827240 
	C239.229919,396.536682 239.140228,385.246246 239.245651,373.048096 
M93.766945,356.923126 
	C89.043007,352.568420 88.850739,346.810577 88.967644,340.069031 
	C88.976181,306.351013 89.026360,272.632843 88.937523,238.915100 
	C88.927101,234.956650 89.806290,232.048019 94.665947,231.292114 
	C97.810081,232.225082 99.145439,234.340027 99.030891,237.597351 
	C98.944046,240.066925 99.112564,242.545486 99.025650,245.945267 
	C99.018570,278.273010 99.006798,310.600739 99.008186,342.928497 
	C99.008484,349.754150 100.263550,350.990753 107.199760,350.991852 
	C152.692047,350.999115 198.184326,350.998871 243.676620,350.992279 
	C250.862595,350.991241 251.993027,349.836243 251.993469,342.544708 
	C251.997223,281.388428 251.995728,220.232117 251.994156,159.075821 
	C251.994141,157.909485 252.020508,156.740585 251.956192,155.577209 
	C251.404099,145.591995 243.851898,137.136993 233.911606,136.888702 
	C216.938461,136.464737 199.945374,136.839432 182.053909,136.642273 
	C174.705139,136.738190 167.356354,136.834106 159.092636,136.700867 
	C142.722672,136.762024 126.352715,136.823166 109.113388,136.653412 
	C99.483612,136.490860 98.988449,136.961273 99.012306,146.628891 
	C99.029900,153.758179 99.104073,160.887344 99.024254,168.943634 
	C99.066948,175.623657 99.109642,182.303696 99.013474,189.913116 
	C99.010338,194.508850 98.836990,199.112732 99.056213,203.697845 
	C99.242172,207.586929 97.717529,209.967865 93.324783,210.721466 
	C89.854195,209.700912 88.925781,207.220657 88.954308,203.834991 
	C89.055214,191.853760 88.993286,179.871140 88.993103,167.889053 
	C88.993057,164.794449 88.993095,161.699844 88.993095,158.240128 
	C85.156799,158.240128 82.022949,158.219299 78.889458,158.244019 
	C69.409966,158.318787 65.995049,161.752731 65.993118,171.259979 
	C65.984940,211.533127 65.974213,251.806274 65.996620,292.079407 
	C66.005692,308.385010 66.097115,324.690552 66.011406,341.927185 
	C66.002831,351.076843 65.978157,360.226562 65.990105,369.376190 
	C66.002632,378.968018 69.218643,382.163391 78.898285,382.166077 
	C116.661880,382.176605 154.425476,382.170502 192.189072,382.170593 
	C193.766510,382.170593 195.343948,382.170593 196.878052,382.170593 
	C196.878052,378.883911 196.878052,376.397034 197.040558,373.008484 
	C197.040558,369.092712 197.040558,365.176971 197.040558,361.003967 
	C194.617447,361.003967 192.812790,361.003967 191.008133,361.003967 
	C163.101532,361.003967 135.193192,361.157776 107.290092,360.845215 
	C102.890541,360.795929 98.514626,358.637482 93.766945,356.923126 
M418.545929,358.231079 
	C415.239136,359.154724 411.935333,360.870331 408.625092,360.882751 
	C361.968536,361.058380 315.311066,361.030426 268.654053,360.931549 
	C265.911499,360.925751 262.991272,360.321167 260.465668,359.255737 
	C254.484299,356.732605 249.312439,359.702423 249.345993,366.042603 
	C249.358276,368.361969 249.556290,370.680298 249.402832,373.864868 
	C249.402832,376.478485 249.402832,379.092133 249.402832,382.172485 
	C251.708801,382.172485 253.502686,382.172485 255.296585,382.172485 
	C269.441772,382.172485 283.586975,382.172607 297.732147,382.172485 
	C343.828827,382.172180 389.925507,382.181946 436.022186,382.161530 
	C443.757294,382.158081 447.870850,378.756805 447.955566,371.937134 
	C448.083649,361.625305 447.900635,351.309570 447.984924,340.067444 
	C447.993469,311.411163 448.005402,282.754883 448.009613,254.098587 
	C448.013702,226.108643 448.023743,198.118683 448.000092,170.128769 
	C447.994080,163.038528 444.837952,158.990936 438.441071,158.421432 
	C434.183319,158.042389 429.864441,158.349503 425.007111,158.349503 
	C425.007111,160.514572 425.007111,162.292282 425.007111,164.070007 
	C425.007111,200.723495 424.988831,237.377014 425.013916,274.030487 
	C425.029175,296.352692 425.111237,318.674835 425.028656,341.879700 
	C425.543823,348.110504 424.062836,353.626251 418.545929,358.231079 
M395.174530,202.151474 
	C393.055939,202.460144 390.937805,203.034225 388.818695,203.037796 
	C355.327881,203.094299 321.836914,203.098907 288.346130,203.033417 
	C285.895477,203.028625 283.446075,202.394958 280.546051,201.529831 
	C277.112854,199.098022 275.819153,195.733932 275.938965,191.596466 
	C276.069092,187.101654 275.967285,182.600143 275.967224,178.101547 
	C275.967010,164.831451 275.967133,151.561356 275.967133,137.932495 
	C274.870239,138.192612 274.206848,138.225555 273.663025,138.497528 
	C265.287201,142.686401 261.951416,149.641312 261.963104,158.818924 
	C262.040985,219.966370 262.002350,281.113953 262.004639,342.261475 
	C262.004944,350.064087 262.968445,350.995209 271.028412,350.995605 
	C316.014343,350.997833 361.000244,350.997925 405.986176,350.995514 
	C414.176819,350.995056 414.996033,350.150299 414.996155,341.739563 
	C414.997192,276.426666 414.996796,211.113770 414.996094,145.800873 
	C414.996063,144.468033 415.496033,142.789948 414.875549,141.873718 
	C413.555328,139.924255 411.927582,137.522354 409.916443,136.865387 
	C407.286316,136.006195 404.163605,136.654877 401.005981,136.654877 
	C401.005981,155.139145 400.907257,172.948639 401.072235,190.755676 
	C401.115936,195.472931 399.757721,199.200592 395.174530,202.151474 
z"/>
<path fill="#FFCBCC" opacity="1.000000" stroke="none" 
	d="
M197.138565,413.921143 
	C198.660828,415.722351 200.183105,417.523590 201.874573,420.067688 
	C202.033142,424.306183 201.812393,427.817291 202.068924,431.293213 
	C202.344772,435.031067 200.267303,439.612335 205.086090,442.008392 
	C209.854950,444.379578 212.402863,440.158173 215.445007,438.020935 
	C223.196152,432.575378 223.105103,432.464630 230.760345,438.125214 
	C232.095612,439.112549 233.478989,440.046234 234.902512,440.900757 
	C240.727921,444.397858 244.485596,442.522888 244.850662,435.621948 
	C245.131424,430.314331 244.820404,424.975403 244.772552,419.650421 
	C246.144165,417.985870 247.515778,416.321350 249.488724,414.355896 
	C273.395264,414.031067 296.700470,414.007141 320.473389,413.998535 
	C326.965210,414.084625 332.989288,414.155426 339.013367,414.226196 
	C336.164856,416.985229 333.464874,419.920471 330.439850,422.470032 
	C321.470642,430.029388 312.305664,437.356934 303.359253,444.942627 
	C299.754120,447.999420 296.568970,451.546265 293.099915,454.770294 
	C289.645813,457.980438 286.019653,461.005798 282.573273,464.223877 
	C279.715576,466.892273 277.009583,469.723145 274.093903,472.794556 
	C263.654449,473.072388 253.304153,472.361603 243.073517,473.168304 
	C229.238754,474.259216 215.711929,477.707825 203.122086,483.569214 
	C189.229935,490.036896 175.192795,496.121490 160.124573,498.802094 
	C144.427475,501.594574 128.504150,502.547729 112.668442,499.026398 
	C109.391121,498.297577 106.091507,497.669037 102.340729,496.574341 
	C100.416809,494.942810 98.954330,493.731262 96.470207,491.673370 
	C98.442741,490.028931 100.255463,488.490540 102.099899,486.991180 
	C103.078789,486.195435 104.214790,485.570618 105.104073,484.690918 
	C108.808510,481.026611 112.370224,477.215302 116.136200,473.616913 
	C118.467247,471.389587 121.004333,469.360413 123.568474,467.398529 
	C127.559937,464.344635 131.824814,461.627472 135.660187,458.395416 
	C140.595032,454.236847 145.189926,449.677185 149.989349,445.354767 
	C153.065262,442.584625 156.325638,440.016785 159.359558,437.203186 
	C163.179657,433.660553 166.789032,429.890533 170.613358,426.352661 
	C172.977234,424.165863 175.286041,421.249084 178.132721,420.418243 
	C182.002441,419.288849 182.131393,417.082825 182.470932,414.092407 
	C187.670227,414.011932 192.404404,413.966553 197.138565,413.921143 
z"/>
<path fill="#BC9BC7" opacity="1.000000" stroke="none" 
	d="
M339.477966,414.166626 
	C332.989288,414.155426 326.965210,414.084625 320.481384,413.634369 
	C323.417145,409.799683 326.821747,406.353363 330.205475,402.886658 
	C333.474487,399.537415 336.721863,396.167114 339.978760,392.806030 
	C356.084564,392.719177 372.190399,392.632355 388.619263,393.058350 
	C386.975311,395.706360 385.067017,397.899445 383.029572,399.965149 
	C378.386810,404.672302 373.680695,409.316895 369.000305,413.986877 
	C359.314392,414.026917 349.628479,414.066956 339.477966,414.166626 
z"/>
<path fill="#B697C8" opacity="1.000000" stroke="none" 
	d="
M430.006531,392.930054 
	C437.840424,392.691620 445.808716,392.948395 452.394470,386.813202 
	C452.813446,390.837128 453.016144,394.987213 452.992859,399.136047 
	C452.944305,407.785889 446.942657,413.960693 438.366638,414.061951 
	C429.224121,414.169922 420.079132,414.068695 410.477966,413.675751 
	C413.408722,409.827698 416.791687,406.357697 420.186188,402.899048 
	C423.453461,399.570007 426.732605,396.252594 430.006531,392.930054 
z"/>
<path fill="#BC9BC7" opacity="1.000000" stroke="none" 
	d="
M429.554199,392.860565 
	C426.732605,396.252594 423.453461,399.570007 420.186188,402.899048 
	C416.791687,406.357697 413.408722,409.827698 410.009674,413.651978 
	C406.096344,414.034607 402.194031,414.074554 398.291718,414.077362 
	C392.506592,414.081512 386.721436,414.059357 380.514099,413.679749 
	C384.785370,408.842468 389.558258,404.453186 394.137238,399.870148 
	C396.271973,397.733521 398.031097,395.221558 399.960480,392.879700 
	C409.674286,392.850159 419.388062,392.820618 429.554199,392.860565 
z"/>
<path fill="#BD9CC8" opacity="1.000000" stroke="none" 
	d="
M399.510345,392.807800 
	C398.031097,395.221558 396.271973,397.733521 394.137238,399.870148 
	C389.558258,404.453186 384.785370,408.842468 380.045929,413.655518 
	C376.638367,414.013855 373.276733,414.027710 369.457703,414.014221 
	C373.680695,409.316895 378.386810,404.672302 383.029572,399.965149 
	C385.067017,397.899445 386.975311,395.706360 388.994751,393.218567 
	C392.384888,392.822632 395.722534,392.779266 399.510345,392.807800 
z"/>
<path fill="#FEC9CA" opacity="1.000000" stroke="none" 
	d="
M458.540619,305.949860 
	C458.234375,305.558380 458.181519,305.107941 458.207703,304.324249 
	C458.455811,304.624298 458.624908,305.257599 458.540619,305.949860 
z"/>
<path fill="#FFC7C7" opacity="1.000000" stroke="none" 
	d="
M182.005798,414.127502 
	C182.131393,417.082825 182.002441,419.288849 178.132721,420.418243 
	C175.286041,421.249084 172.977234,424.165863 170.613358,426.352661 
	C166.789032,429.890533 163.179657,433.660553 159.359558,437.203186 
	C156.325638,440.016785 153.065262,442.584625 149.989349,445.354767 
	C145.189926,449.677185 140.595032,454.236847 135.660187,458.395416 
	C131.824814,461.627472 127.559937,464.344635 123.568474,467.398529 
	C121.004333,469.360413 118.467247,471.389587 116.136200,473.616913 
	C112.370224,477.215302 108.808510,481.026611 105.104073,484.690918 
	C104.214790,485.570618 103.078789,486.195435 102.099899,486.991180 
	C100.255463,488.490540 98.442741,490.028931 96.470207,491.673370 
	C98.954330,493.731262 100.416809,494.942810 101.940933,496.494080 
	C99.103958,496.154816 96.205338,495.475830 93.142555,494.063416 
	C92.829872,492.019684 92.681343,490.709442 92.459679,488.753967 
	C90.102966,490.142670 88.476967,491.100800 86.850967,492.058899 
	C64.353516,484.028503 46.275936,469.865082 30.979174,451.462830 
	C32.720863,448.492950 34.109329,445.482544 36.329849,443.330811 
	C40.801880,438.997437 45.671047,435.063019 50.504032,431.120544 
	C51.727512,430.122498 53.431602,429.713684 55.331604,429.427368 
	C55.678360,432.798523 56.750507,434.670532 59.901150,435.637115 
	C61.293861,436.064392 62.503239,438.006134 63.221153,439.530914 
	C64.866631,443.025787 69.636032,444.459412 72.093521,441.618256 
	C73.493462,439.999817 73.937859,437.554871 74.812538,435.482086 
	C75.157715,435.796051 75.502884,436.109985 75.848053,436.423950 
	C77.850464,434.301514 81.723999,431.840698 81.415749,430.136169 
	C80.955940,427.593567 77.547829,425.584167 75.394104,423.347931 
	C75.364479,423.336884 75.334854,423.325806 75.305229,423.314758 
	C73.206207,421.161835 71.107185,419.008911 69.008156,416.855988 
	C69.259277,416.081909 69.510399,415.307831 70.352173,414.257233 
	C90.629852,413.983276 110.316872,413.985840 130.472046,413.998230 
	C143.522385,414.011597 156.104843,413.973389 168.686447,414.059570 
	C170.790558,414.073975 172.890976,414.628479 175.003433,415.276978 
	C175.491470,416.248413 175.969162,416.876251 176.446838,417.504089 
	C176.950729,416.629913 177.454620,415.755737 178.228104,414.653076 
	C179.667068,414.325562 180.836441,414.226532 182.005798,414.127502 
M102.846313,447.466034 
	C99.525513,443.962128 96.286949,444.131622 93.020584,447.591766 
	C90.853210,449.887787 88.003677,451.768890 86.549667,454.431183 
	C85.531891,456.294647 85.412254,460.087860 86.622597,461.323120 
	C87.825912,462.551239 91.332817,462.159790 93.564369,461.533539 
	C95.233139,461.065186 96.480522,459.095337 98.065331,457.658295 
	C99.587677,459.086090 100.763359,460.234772 101.988472,461.328064 
	C104.435455,463.511719 107.184044,463.922089 109.551537,461.565918 
	C111.920525,459.208282 111.556755,456.417999 109.335419,454.011475 
	C107.419945,451.936279 105.359718,449.994720 102.846313,447.466034 
M169.533249,422.827606 
	C169.188629,422.822784 168.843857,422.814789 168.500244,422.831146 
	C168.491409,422.831573 168.485291,423.223206 168.494690,423.223969 
	C168.837555,423.251526 169.182419,423.254364 169.533249,422.827606 
M154.262817,435.506134 
	C154.012451,435.743500 153.759674,435.978638 153.524872,436.230530 
	C153.518738,436.237122 153.708023,436.425903 153.806168,436.529755 
	C154.056671,436.292053 154.307175,436.054352 154.262817,435.506134 
M145.737122,443.493866 
	C145.987488,443.256500 146.240219,443.021332 146.475098,442.769531 
	C146.481247,442.762970 146.291992,442.574158 146.193878,442.470337 
	C145.943359,442.708038 145.692841,442.945740 145.737122,443.493866 
M122.466743,463.172485 
	C122.811371,463.177307 123.156143,463.185364 123.499756,463.169006 
	C123.508583,463.168579 123.514694,462.776825 123.505310,462.776093 
	C123.162437,462.748505 122.817581,462.745697 122.466743,463.172485 
M114.506050,469.737183 
	C114.743431,469.987579 114.978607,470.240356 115.230461,470.475220 
	C115.237022,470.481384 115.425850,470.292114 115.529671,470.193970 
	C115.291977,469.943451 115.054276,469.692902 114.506050,469.737183 
M99.737099,483.493958 
	C99.987473,483.256531 100.240234,483.021362 100.475105,482.769470 
	C100.481262,482.762848 100.292007,482.574066 100.193878,482.470245 
	C99.943352,482.707947 99.692825,482.945679 99.737099,483.493958 
z"/>
<path fill="#FFCBCC" opacity="1.000000" stroke="none" 
	d="
M87.008514,492.407684 
	C88.476967,491.100800 90.102966,490.142670 92.459679,488.753967 
	C92.681343,490.709442 92.829872,492.019684 92.968353,493.723083 
	C91.027557,493.662994 89.096809,493.209717 87.008514,492.407684 
z"/>
<path fill="#FFC4C4" opacity="1.000000" stroke="none" 
	d="
M425.488342,139.947571 
	C422.402924,126.918968 412.623932,125.589157 401.017517,126.359879 
	C401.017517,118.486000 401.020844,110.916260 401.016754,103.346519 
	C401.010651,92.069450 398.097595,89.102974 386.922882,89.134407 
	C370.964264,89.179298 355.005829,89.273460 338.561829,89.064331 
	C337.575867,87.186485 337.075348,85.590889 336.505676,83.774834 
	C342.624329,85.007278 342.624329,85.007278 345.514893,76.157188 
	C346.495239,77.082008 347.342041,77.880836 349.210114,79.643074 
	C350.867920,75.943176 352.273102,72.807014 353.782043,69.439331 
	C354.558716,70.103256 355.514313,70.920158 356.626068,71.870560 
	C358.030609,70.391006 359.586243,69.368011 360.169220,67.946205 
	C360.648224,66.777992 359.971893,65.136063 359.899414,64.504181 
	C362.400330,63.993160 365.046753,64.227821 366.105255,63.043392 
	C367.484833,61.499763 367.605225,58.830780 368.336761,56.417320 
	C376.570862,60.699852 374.838348,52.970455 376.378601,48.916092 
	C377.667633,50.141914 378.514008,50.946796 379.735291,52.108181 
	C383.224365,46.243923 392.106659,45.196339 390.966095,36.391762 
	C396.368286,38.543476 396.368286,38.543476 399.535461,29.155083 
	C400.512238,30.084192 401.357605,30.888302 402.959320,32.411800 
	C407.072449,27.546217 411.037048,22.856308 415.001678,18.166397 
	C421.038544,20.113226 427.279907,21.587437 433.074463,24.094351 
	C451.411072,32.027359 466.975555,43.933910 480.198547,58.818935 
	C484.470276,63.627583 487.976379,69.116409 491.758026,74.798309 
	C492.155914,75.848648 492.628448,76.394768 493.101013,76.940880 
	C493.101013,76.940880 493.052490,76.961960 493.062256,76.937347 
	C493.227570,81.167412 490.912689,83.729919 487.683319,86.276405 
	C481.370239,91.254463 475.486755,96.777351 469.426575,102.076027 
	C465.704285,105.330589 461.984161,108.587639 457.661987,111.774750 
	C451.400024,108.334908 449.661377,109.391312 447.180511,117.709282 
	C440.685699,118.516197 440.057922,119.233345 440.073334,125.828178 
	C435.322571,130.516510 430.571808,135.204865 425.488342,139.947571 
z"/>
<path fill="#FFBFC0" opacity="1.000000" stroke="none" 
	d="
M414.643738,17.991705 
	C411.037048,22.856308 407.072449,27.546217 402.959320,32.411800 
	C401.357605,30.888302 400.512238,30.084192 399.535461,29.155083 
	C396.368286,38.543476 396.368286,38.543476 390.966095,36.391762 
	C392.106659,45.196339 383.224365,46.243923 379.735291,52.108181 
	C378.514008,50.946796 377.667633,50.141914 376.378601,48.916092 
	C374.838348,52.970455 376.570862,60.699852 368.336761,56.417320 
	C367.605225,58.830780 367.484833,61.499763 366.105255,63.043392 
	C365.046753,64.227821 362.400330,63.993160 359.899414,64.504181 
	C359.971893,65.136063 360.648224,66.777992 360.169220,67.946205 
	C359.586243,69.368011 358.030609,70.391006 356.626068,71.870560 
	C355.514313,70.920158 354.558716,70.103256 353.782043,69.439331 
	C352.273102,72.807014 350.867920,75.943176 349.210114,79.643074 
	C347.342041,77.880836 346.495239,77.082008 345.514893,76.157188 
	C342.624329,85.007278 342.624329,85.007278 336.505676,83.774834 
	C337.075348,85.590889 337.575867,87.186485 338.113831,89.170616 
	C337.167297,90.841743 336.183319,92.124336 334.650696,93.699860 
	C332.397858,93.973778 330.693726,93.954773 329.038940,93.610123 
	C329.583649,92.081810 330.079041,90.879150 330.574432,89.676491 
	C330.167694,89.489861 329.760956,89.303238 329.354218,89.116615 
	C328.575195,90.723045 327.796173,92.329475 326.556274,93.952316 
	C322.411102,93.975090 318.726868,93.981438 315.042603,93.987778 
	C313.865234,90.197189 311.195557,88.997108 307.381714,89.098206 
	C300.720459,89.274788 294.050385,89.083481 287.385651,89.170494 
	C279.841949,89.268990 276.020752,93.097649 275.965485,100.600250 
	C275.901733,109.257706 275.950684,117.915985 275.950684,125.384460 
	C269.098022,129.903839 262.950531,133.958160 256.161041,138.435867 
	C256.752411,138.828491 256.119446,138.593445 255.758575,138.141266 
	C248.999619,129.671936 239.991302,126.276558 229.412415,126.341820 
	C225.580170,126.365456 221.747437,126.314972 217.498627,125.844116 
	C217.830658,124.317909 218.401443,123.044098 219.354950,122.205307 
	C228.192154,114.431236 237.194977,106.842453 245.928558,98.955009 
	C249.250153,95.955238 251.997086,92.319199 255.399567,88.973480 
	C260.006287,89.210068 261.927002,87.011894 262.498535,82.988327 
	C266.445465,80.278824 269.925964,77.420296 273.651703,74.928505 
	C276.923523,72.740273 280.470215,70.963005 284.098724,69.314667 
	C289.470917,74.273628 291.940247,73.085030 294.398987,65.883827 
	C297.546997,63.837677 299.744629,62.409264 302.289948,60.943810 
	C304.432892,59.443645 306.228149,57.980530 308.023407,56.517410 
	C307.821472,56.183495 307.619537,55.849583 307.417633,55.515671 
	C305.549957,55.744270 303.682281,55.972870 301.768677,56.244591 
	C301.722717,56.287712 301.597198,56.299145 301.695953,55.902580 
	C303.102478,52.933739 303.848816,49.766891 305.824188,47.901638 
	C311.555176,42.490089 318.151093,37.967552 323.671844,32.370415 
	C327.032776,28.962988 333.205139,27.594923 333.000732,21.166265 
	C342.820953,18.777302 352.551788,15.861888 362.491150,14.174876 
	C369.742523,12.944102 377.334564,12.560760 384.656128,13.186741 
	C394.592010,14.036241 404.414581,16.210794 414.643738,17.991705 
M384.262878,42.506084 
	C384.012482,42.743465 383.759705,42.978615 383.524841,43.230484 
	C383.518677,43.237099 383.707916,43.425900 383.806030,43.529747 
	C384.056580,43.292038 384.307129,43.054325 384.262878,42.506084 
z"/>
<path fill="#FFBDBD" opacity="1.000000" stroke="none" 
	d="
M175.997253,126.099236 
	C154.243927,126.197945 132.490402,126.270760 110.737442,126.421829 
	C107.270676,126.445908 103.796265,126.718430 100.343117,127.056900 
	C94.304214,127.648819 89.199516,133.352570 89.091682,139.325317 
	C89.041496,142.105286 89.083107,144.886902 89.083107,148.299500 
	C83.424568,148.299500 78.322594,148.299500 72.777023,148.247818 
	C72.637115,146.883545 72.493469,145.061661 73.315712,144.339432 
	C79.527832,138.882904 85.998749,133.722183 92.252541,128.311554 
	C98.376633,123.013153 104.278748,117.458641 110.385963,112.140175 
	C124.872002,99.525024 139.442551,87.006958 153.939133,74.403862 
	C165.065735,64.730576 176.106049,54.958015 187.235672,45.288231 
	C192.463531,40.746086 197.811310,36.341965 203.290955,31.517105 
	C216.054886,34.430172 228.490387,38.554596 241.258606,40.683323 
	C250.303482,42.191292 259.798187,41.001137 269.492676,41.421799 
	C262.558838,48.703903 255.371704,55.745583 247.856155,62.417290 
	C235.858246,73.068069 223.653717,83.486450 211.513367,93.976265 
	C205.136612,99.486076 198.596786,104.812706 192.340775,110.455078 
	C186.743103,115.503677 181.433792,120.871986 175.997253,126.099236 
z"/>
<path fill="#FFBFBF" opacity="1.000000" stroke="none" 
	d="
M176.456329,126.204979 
	C181.433792,120.871986 186.743103,115.503677 192.340775,110.455078 
	C198.596786,104.812706 205.136612,99.486076 211.513367,93.976265 
	C223.653717,83.486450 235.858246,73.068069 247.856155,62.417290 
	C255.371704,55.745583 262.558838,48.703903 269.946808,41.497467 
	C273.209991,40.734825 276.419708,40.302944 280.249573,39.842545 
	C281.913544,39.598236 282.957306,39.382439 284.001068,39.166641 
	C290.056305,37.440895 296.111572,35.715149 302.564819,34.316185 
	C302.329651,35.696709 301.851776,36.894600 301.033325,37.776409 
	C298.815460,40.165966 296.453064,42.421356 294.147980,44.729950 
	C294.508636,45.100204 294.869293,45.470459 295.229950,45.840710 
	C302.609985,42.254078 307.745239,36.024010 312.957825,29.884995 
	C314.386353,29.252872 315.814880,28.620749 317.604828,28.307255 
	C317.079010,30.148857 316.487427,31.991751 315.249725,33.135471 
	C311.360748,36.729237 307.304626,40.155029 303.165161,43.460445 
	C300.240234,45.796047 297.074921,47.830589 293.824951,49.712677 
	C291.751801,48.377331 288.990509,45.989548 288.157837,46.536709 
	C285.852386,48.051720 284.351166,50.790520 282.532074,53.045601 
	C282.732513,53.788002 282.154907,53.777599 281.813721,54.056431 
	C279.842926,55.666981 276.859619,57.022800 276.238861,59.075603 
	C275.253632,62.333828 277.994995,63.612686 281.143341,64.397972 
	C282.367554,64.703339 282.995789,67.397964 283.895508,69.004234 
	C280.470215,70.963005 276.923523,72.740273 273.651703,74.928505 
	C269.925964,77.420296 266.445465,80.278824 262.338867,82.684418 
	C258.814789,79.114616 256.131104,75.421333 252.660400,72.751045 
	C251.098679,71.549492 247.338516,71.427841 245.678635,72.509079 
	C242.431046,74.624550 239.522034,77.636719 237.356567,80.869629 
	C236.348343,82.374840 236.567871,86.111778 237.759277,87.284973 
	C238.952988,88.460426 242.218781,88.251801 244.264267,87.627403 
	C246.091187,87.069740 247.492325,85.117180 249.130051,83.739159 
	C251.320282,85.690117 253.163101,87.331627 255.005936,88.973145 
	C251.997086,92.319199 249.250153,95.955238 245.928558,98.955009 
	C237.194977,106.842453 228.192154,114.431236 219.354950,122.205307 
	C218.401443,123.044098 217.830658,124.317909 217.040466,125.739250 
	C203.637543,126.162621 190.276459,126.236671 176.456329,126.204979 
z"/>
<path fill="#FFBFBF" opacity="1.000000" stroke="none" 
	d="
M294.016907,49.999535 
	C297.074921,47.830589 300.240234,45.796047 303.165161,43.460445 
	C307.304626,40.155029 311.360748,36.729237 315.249725,33.135471 
	C316.487427,31.991751 317.079010,30.148857 317.963287,28.253868 
	C322.723328,25.595175 327.486359,23.308502 332.625061,21.094046 
	C333.205139,27.594923 327.032776,28.962988 323.671844,32.370415 
	C318.151093,37.967552 311.555176,42.490089 305.824188,47.901638 
	C303.848816,49.766891 303.102478,52.933739 301.372070,55.768166 
	C299.660736,55.392879 298.384949,54.251480 297.080811,54.218102 
	C293.917938,54.137150 293.810028,52.287457 294.016907,49.999535 
z"/>
<path fill="#FFBFBF" opacity="1.000000" stroke="none" 
	d="
M312.579590,29.941334 
	C307.745239,36.024010 302.609985,42.254078 295.229950,45.840710 
	C294.869293,45.470459 294.508636,45.100204 294.147980,44.729950 
	C296.453064,42.421356 298.815460,40.165966 301.033325,37.776409 
	C301.851776,36.894600 302.329651,35.696709 302.961731,34.262566 
	C306.040833,32.587330 309.121094,31.292503 312.579590,29.941334 
z"/>
<path fill="#FFBDBD" opacity="1.000000" stroke="none" 
	d="
M283.624817,39.091095 
	C282.957306,39.382439 281.913544,39.598236 280.569092,39.598305 
	C281.261780,39.260235 282.255157,39.137894 283.624817,39.091095 
z"/>
<path fill="#FEC9CA" opacity="1.000000" stroke="none" 
	d="
M493.055237,76.634216 
	C492.628448,76.394768 492.155914,75.848648 491.902771,75.120682 
	C492.417938,75.401741 492.713684,75.864639 493.055237,76.634216 
z"/>
<path fill="#FFBDBD" opacity="1.000000" stroke="none" 
	d="
M56.522911,161.010605 
	C56.578415,164.256561 56.010189,167.511734 56.004765,170.767838 
	C55.934635,212.870575 55.944592,254.973434 55.860222,297.539978 
	C52.310894,300.060669 48.457706,301.676880 45.438469,304.265717 
	C38.996433,309.789459 33.124550,315.973511 26.759966,321.593597 
	C20.759123,326.892517 14.378322,331.758911 8.270267,336.940063 
	C6.601027,338.356018 5.312006,340.220184 3.507547,341.941040 
	C5.217583,334.089813 6.960897,326.080170 9.394250,318.285919 
	C12.742070,307.562622 17.106842,297.138306 20.078245,286.322784 
	C21.955732,279.488953 22.189972,272.186798 22.981066,265.074646 
	C25.108366,245.949783 21.447435,227.627548 14.983614,209.742188 
	C13.514608,205.677444 11.687271,201.742172 10.095818,197.374603 
	C14.953161,193.658508 20.019651,190.647751 24.467354,186.902206 
	C33.579048,179.228958 42.317688,171.114105 51.320763,163.308914 
	C52.619415,162.183060 54.532185,161.765549 56.522911,161.010605 
z"/>
<path fill="#8685FE" opacity="1.000000" stroke="none" 
	d="
M440.403198,126.006470 
	C440.057922,119.233345 440.685699,118.516197 447.180511,117.709282 
	C449.661377,109.391312 451.400024,108.334908 457.332825,111.917633 
	C457.859802,113.899765 458.114807,115.670189 458.396759,117.627731 
	C462.031433,118.133759 466.217468,118.007751 465.970398,123.315063 
	C465.752228,128.001755 462.088623,127.924408 458.580750,128.260681 
	C457.620209,131.450607 458.361420,136.076553 452.993103,135.968231 
	C448.046021,135.868408 448.197601,131.899506 447.752533,128.973907 
	C445.181976,127.952515 442.957489,127.068642 440.403198,126.006470 
z"/>
<path fill="#DAAAC3" opacity="1.000000" stroke="none" 
	d="
M130.003891,413.988403 
	C110.316872,413.985840 90.629852,413.983276 70.474899,413.974182 
	C59.222107,407.546417 60.982327,396.940399 60.996582,386.451965 
	C66.110123,390.899719 72.237999,392.409058 79.234489,392.361298 
	C102.507431,392.202423 125.782677,392.380280 149.514496,392.888733 
	C148.976776,394.901123 148.229141,396.707306 146.943588,397.962585 
	C141.382812,403.392365 135.664734,408.661102 130.003891,413.988403 
z"/>
<path fill="#FF6E6E" opacity="1.000000" stroke="none" 
	d="
M68.637573,416.921387 
	C71.107185,419.008911 73.206207,421.161835 75.305229,423.314758 
	C75.334854,423.325806 75.364479,423.336884 75.394104,423.347931 
	C77.547829,425.584167 80.955940,427.593567 81.415749,430.136169 
	C81.723999,431.840698 77.850464,434.301514 75.848053,436.423950 
	C75.502884,436.109985 75.157715,435.796051 74.812538,435.482086 
	C73.937859,437.554871 73.493462,439.999817 72.093521,441.618256 
	C69.636032,444.459412 64.866631,443.025787 63.221153,439.530914 
	C62.503239,438.006134 61.293861,436.064392 59.901150,435.637115 
	C56.750507,434.670532 55.678360,432.798523 55.678635,429.414551 
	C60.441704,425.647125 63.566452,420.487335 68.637573,416.921387 
z"/>
<path fill="#FEFEFF" opacity="1.000000" stroke="none" 
	d="
M182.960663,136.878662 
	C199.945374,136.839432 216.938461,136.464737 233.911606,136.888702 
	C243.851898,137.136993 251.404099,145.591995 251.956192,155.577209 
	C252.020508,156.740585 251.994141,157.909485 251.994156,159.075821 
	C251.995728,220.232117 251.997223,281.388428 251.993469,342.544708 
	C251.993027,349.836243 250.862595,350.991241 243.676620,350.992279 
	C198.184326,350.998871 152.692047,350.999115 107.199760,350.991852 
	C100.263550,350.990753 99.008484,349.754150 99.008186,342.928497 
	C99.006798,310.600739 99.018570,278.273010 99.473648,245.539307 
	C125.226456,252.275604 147.144455,247.344284 164.699463,225.371506 
	C166.113235,229.398132 167.034348,232.021622 167.532349,234.716187 
	C166.610138,234.806549 166.110107,234.855408 165.612030,234.840302 
	C162.150696,234.735291 158.961472,235.314911 158.964828,239.641602 
	C158.968307,244.120148 162.226151,244.878265 165.894684,244.875778 
	C186.043549,244.862122 206.192413,244.864197 226.341278,244.872131 
	C229.853790,244.873505 232.869308,243.965546 232.986099,239.843140 
	C233.107346,235.563644 230.077805,234.834824 226.532623,234.828629 
	C220.711945,234.818481 214.891556,234.649017 208.993530,234.245880 
	C206.387512,228.591125 204.785843,232.849655 202.486465,234.603180 
	C198.369858,234.637314 194.701553,234.589981 190.963806,234.220367 
	C189.611191,231.036835 188.328018,228.175568 187.505219,225.239517 
	C200.949219,225.144730 213.934570,225.223221 226.914520,224.994949 
	C228.789474,224.961975 231.150894,223.884491 232.323837,222.483719 
	C233.138641,221.510635 232.972168,218.416626 232.053345,217.583740 
	C230.525513,216.198761 228.054001,215.237778 225.958344,215.196655 
	C212.648575,214.935501 199.332886,214.975632 186.013000,214.474319 
	C186.008545,211.371552 186.010254,208.710907 186.476105,205.985306 
	C200.085938,205.902847 213.231598,205.882751 226.377258,205.869507 
	C230.146927,205.865723 233.185043,204.731277 232.982941,200.318665 
	C232.800949,196.345444 229.791885,195.841324 226.516235,195.834381 
	C213.041962,195.805817 199.567841,195.705353 186.067841,195.213043 
	C186.053864,191.962448 186.065720,189.130188 186.536484,186.231171 
	C189.824036,186.145828 192.652679,186.113297 195.481339,186.111145 
	C205.965271,186.103195 216.449295,186.081177 226.933105,186.117279 
	C230.356598,186.129059 233.026917,185.130798 232.993942,181.209885 
	C232.961929,177.404053 230.339798,176.171753 226.946396,176.103912 
	C225.615585,176.077316 224.283875,176.098221 222.952606,176.092087 
	C210.641251,176.035339 198.329895,175.977386 186.012512,175.476654 
	C186.008133,172.371399 186.009796,169.709259 186.475586,166.982651 
	C200.091965,166.901367 213.244522,166.930740 226.396317,166.843826 
	C231.284332,166.811523 234.467361,163.720184 232.689575,160.417603 
	C231.729050,158.633270 228.650497,157.067047 226.481995,157.005493 
	C213.010590,156.623199 199.526306,156.695221 186.035797,156.179031 
	C185.003769,149.453918 183.982208,143.166290 182.960663,136.878662 
M185.500000,299.114929 
	C165.196503,299.115143 144.892990,299.099792 124.589516,299.124512 
	C117.979210,299.132538 116.790512,300.365997 116.758797,307.035675 
	C116.735062,312.028198 116.781982,317.021088 116.753181,322.013580 
	C116.731010,325.854645 118.477715,327.989044 122.427925,327.990173 
	C157.376556,328.000031 192.325180,327.998840 227.273819,327.993866 
	C231.127014,327.993317 233.138596,326.106140 233.131927,322.181305 
	C233.123169,317.022247 233.161926,311.863007 233.130814,306.704132 
	C233.093521,300.522614 231.721817,299.142426 225.442749,299.125702 
	C212.461914,299.091187 199.480927,299.115112 185.500000,299.114929 
M176.500000,273.849670 
	C159.002716,273.850189 141.505386,273.867035 124.008156,273.837616 
	C120.453400,273.831635 116.950920,274.012207 116.921738,278.719055 
	C116.893242,283.315857 120.298187,283.868256 123.887749,283.868622 
	C157.882477,283.871826 191.877197,283.863800 225.871933,283.879883 
	C229.503586,283.881592 232.877701,283.276489 232.976990,278.811798 
	C233.080917,274.139069 229.586807,273.828979 225.992447,273.836639 
	C209.828369,273.870941 193.664154,273.850250 176.500000,273.849670 
M220.430573,254.092422 
	C188.766739,254.092514 157.102890,254.084366 125.439095,254.114166 
	C123.628349,254.115875 121.412552,253.844849 120.113747,254.748169 
	C118.616112,255.789780 116.997826,258.085785 117.151878,259.669800 
	C117.303635,261.230377 119.399101,262.933777 121.038689,263.902924 
	C122.161713,264.566772 123.964462,264.104767 125.463364,264.105072 
	C151.627686,264.110107 177.792007,264.110077 203.956329,264.107971 
	C211.955582,264.107330 219.969955,264.356384 227.942368,263.890961 
	C229.715683,263.787445 232.871872,260.921875 232.692993,259.734619 
	C232.388733,257.715179 230.272903,255.343979 228.302185,254.379684 
	C226.408463,253.453033 223.733093,254.123749 220.430573,254.092422 
z"/>
<path fill="#FEFEFF" opacity="1.000000" stroke="none" 
	d="
M396.002289,202.033386 
	C399.757721,199.200592 401.115936,195.472931 401.072235,190.755676 
	C400.907257,172.948639 401.005981,155.139145 401.005981,136.654877 
	C404.163605,136.654877 407.286316,136.006195 409.916443,136.865387 
	C411.927582,137.522354 413.555328,139.924255 414.875549,141.873718 
	C415.496033,142.789948 414.996063,144.468033 414.996094,145.800873 
	C414.996796,211.113770 414.997192,276.426666 414.996155,341.739563 
	C414.996033,350.150299 414.176819,350.995056 405.986176,350.995514 
	C361.000244,350.997925 316.014343,350.997833 271.028412,350.995605 
	C262.968445,350.995209 262.004944,350.064087 262.004639,342.261475 
	C262.002350,281.113953 262.040985,219.966370 261.963104,158.818924 
	C261.951416,149.641312 265.287201,142.686401 273.663025,138.497528 
	C274.206848,138.225555 274.870239,138.192612 275.967133,137.932495 
	C275.967133,151.561356 275.967010,164.831451 275.967224,178.101547 
	C275.967285,182.600143 276.069092,187.101654 275.938965,191.596466 
	C275.819153,195.733932 277.112854,199.098022 280.771362,202.244049 
	C280.998505,203.788925 281.001343,204.619553 281.001923,205.450195 
	C281.008636,215.349701 281.644714,215.997894 291.366882,215.998016 
	C321.602020,215.998428 351.837128,215.998154 382.072266,215.998169 
	C395.982178,215.998169 395.982178,215.998184 396.002289,202.033386 
M281.320038,324.659973 
	C283.357086,325.771362 285.345551,327.719391 287.440094,327.841125 
	C294.405182,328.245972 301.408875,327.945801 308.396851,328.012024 
	C313.006134,328.055725 315.021545,325.840759 315.015869,321.288605 
	C314.976685,289.839996 314.963348,258.391235 315.030823,226.942703 
	C315.040771,222.308853 312.890533,220.154617 308.430298,220.125229 
	C301.442017,220.079178 294.453247,220.105591 287.464661,220.111557 
	C283.238525,220.115173 280.967957,222.050049 280.976013,226.468796 
	C281.035034,258.914368 281.060333,291.360046 281.320038,324.659973 
M386.466095,230.107376 
	C389.465546,230.097916 392.618774,230.650742 395.411987,229.886978 
	C397.368256,229.352066 400.083862,227.086365 400.170258,225.471146 
	C400.259125,223.809555 397.692291,221.865891 396.026672,220.328293 
	C395.462311,219.807312 394.102386,220.102402 393.105988,220.101929 
	C373.275299,220.092300 353.444550,220.112686 333.613922,220.077225 
	C329.781525,220.070374 326.138489,220.708954 326.211121,225.383362 
	C326.280731,229.862549 329.879425,230.148254 333.484436,230.134964 
	C350.815247,230.071182 368.146393,230.107056 386.466095,230.107376 
M394.847565,249.850616 
	C398.212769,249.481598 400.804260,248.029083 400.394592,244.260330 
	C399.986725,240.508347 397.101013,239.814697 393.765106,239.824448 
	C374.150177,239.881653 354.535004,239.851334 334.919891,239.853058 
	C333.590210,239.853180 331.932953,239.376480 331.000153,239.990570 
	C329.150635,241.208176 326.687164,242.873077 326.405762,244.657272 
	C326.179474,246.091614 328.557007,248.297424 330.239288,249.536057 
	C331.239624,250.272583 333.130066,249.861176 334.620361,249.862091 
	C354.401703,249.874176 374.183014,249.867828 394.847565,249.850616 
M327.853027,318.993500 
	C325.203522,323.438934 326.190033,327.557678 330.498016,327.610413 
	C352.436279,327.879028 374.381470,327.780029 396.318817,327.448669 
	C397.749390,327.427063 400.435150,324.186646 400.219208,322.806030 
	C399.934204,320.983582 397.438843,319.422882 395.713226,317.962830 
	C395.220856,317.546204 394.102905,317.854736 393.271820,317.854614 
	C373.317902,317.851929 353.363983,317.837677 333.410156,317.880035 
	C331.780273,317.883484 330.151276,318.277130 327.853027,318.993500 
M364.500000,269.107727 
	C374.331543,269.107208 384.163635,269.046722 393.994354,269.136993 
	C397.696991,269.170959 400.514404,267.959778 400.425293,263.971100 
	C400.342346,260.257935 397.427643,259.107178 394.081085,259.105377 
	C373.584839,259.094330 353.088593,259.096802 332.592346,259.098877 
	C328.986908,259.099243 326.093414,260.404480 326.190094,264.408356 
	C326.280823,268.163727 329.049744,269.166016 332.505920,269.136292 
	C342.836609,269.047333 353.168549,269.106506 364.500000,269.107727 
M331.191467,288.833832 
	C351.975281,288.845459 372.759125,288.853882 393.542938,288.871796 
	C397.236694,288.874969 400.565857,287.901062 400.420624,283.562500 
	C400.286224,279.548798 397.120728,278.808807 393.575623,278.820618 
	C373.290680,278.888123 353.005310,278.880585 332.720276,278.825836 
	C329.607086,278.817444 326.434357,279.411407 326.430237,282.826233 
	C326.427887,284.791656 328.956024,286.760132 331.191467,288.833832 
M345.502136,308.149261 
	C361.834259,308.145782 378.166412,308.123993 394.498474,308.153107 
	C398.071686,308.159454 400.511505,306.623047 400.438049,302.978302 
	C400.369110,299.557312 397.778870,298.160614 394.579407,298.155640 
	C373.747711,298.123444 352.915894,298.123871 332.084137,298.147369 
	C328.613708,298.151276 326.079132,299.730225 326.178802,303.418823 
	C326.271240,306.840454 328.678101,308.204102 332.004578,308.155884 
	C336.170013,308.095490 340.337067,308.146545 345.502136,308.149261 
z"/>
<path fill="#FF6C6C" opacity="1.000000" stroke="none" 
	d="
M390.834503,122.992165 
	C390.834503,146.113815 390.834503,169.235458 390.834503,192.711029 
	C355.990906,192.711029 321.297638,192.711029 286.011810,192.711029 
	C286.011810,169.760468 286.011810,146.841812 286.538879,123.461166 
	C321.655457,122.996849 356.244965,122.994507 390.834503,122.992165 
M334.279510,168.779465 
	C339.308929,165.836212 344.367584,162.941376 349.355560,159.929535 
	C351.900879,158.392609 353.304840,156.087128 350.190491,154.105835 
	C343.592712,149.908432 336.797089,146.001205 329.921478,142.272095 
	C327.403168,140.906250 325.149414,141.945999 325.093597,145.136978 
	C324.959595,152.799423 324.914185,160.469391 325.116608,168.128830 
	C325.198425,171.224991 326.929260,172.771149 330.157623,171.099991 
	C331.339508,170.488190 332.470703,169.778381 334.279510,168.779465 
z"/>
<path fill="#FF6C6C" opacity="1.000000" stroke="none" 
	d="
M93.997955,231.011383 
	C89.806290,232.048019 88.927101,234.956650 88.937523,238.915100 
	C89.026360,272.632843 88.976181,306.351013 88.444092,340.529053 
	C80.664040,340.991425 73.407555,340.993774 66.151062,340.996124 
	C66.097115,324.690552 66.005692,308.385010 65.996620,292.079407 
	C65.974213,251.806274 65.984940,211.533127 65.993118,171.259979 
	C65.995049,161.752731 69.409966,158.318787 78.889458,158.244019 
	C82.022949,158.219299 85.156799,158.240128 88.993095,158.240128 
	C88.993095,161.699844 88.993057,164.794449 88.993103,167.889053 
	C88.993286,179.871140 89.055214,191.853760 88.954308,203.834991 
	C88.925781,207.220657 89.854195,209.700912 93.661728,211.324249 
	C93.998428,218.288483 93.998192,224.649933 93.997955,231.011383 
z"/>
<path fill="#FF6C6C" opacity="1.000000" stroke="none" 
	d="
M425.163300,340.997009 
	C425.111237,318.674835 425.029175,296.352692 425.013916,274.030487 
	C424.988831,237.377014 425.007111,200.723495 425.007111,164.070007 
	C425.007111,162.292282 425.007111,160.514572 425.007111,158.349503 
	C429.864441,158.349503 434.183319,158.042389 438.441071,158.421432 
	C444.837952,158.990936 447.994080,163.038528 448.000092,170.128769 
	C448.023743,198.118683 448.013702,226.108643 448.009613,254.098587 
	C448.005402,282.754883 447.993469,311.411163 447.458771,340.527527 
	C439.676178,340.990753 432.419739,340.993896 425.163300,340.997009 
z"/>
<path fill="#FDC399" opacity="1.000000" stroke="none" 
	d="
M390.904541,122.528206 
	C356.244965,122.994507 321.655457,122.996849 286.607147,122.996552 
	C286.148376,115.261772 286.148376,107.529633 286.148376,99.239326 
	C293.674683,99.239326 300.909424,99.163773 308.141418,99.272415 
	C311.563782,99.323822 313.919647,98.177856 314.913574,94.339439 
	C318.726868,93.981438 322.411102,93.975090 326.884674,93.967682 
	C328.112518,93.956337 328.551056,93.946053 328.989594,93.935768 
	C330.693726,93.954773 332.397858,93.973778 334.527710,93.990677 
	C335.842773,98.198257 338.601349,99.341934 342.653931,99.299110 
	C356.802765,99.149590 370.954193,99.241898 385.104614,99.242294 
	C386.893494,99.242348 388.682343,99.242302 390.974579,99.242302 
	C390.974579,107.181328 390.974579,114.622787 390.904541,122.528206 
M300.350739,114.953712 
	C301.474701,113.600754 302.821198,112.352119 303.543671,110.810936 
	C303.696716,110.484436 301.662323,108.571609 300.463348,108.358109 
	C299.579529,108.200737 297.472504,109.758286 297.553741,110.309708 
	C297.789917,111.913422 298.852386,113.395447 300.350739,114.953712 
M319.180450,111.546486 
	C320.559052,112.672485 321.837555,113.999969 323.391968,114.771965 
	C323.746582,114.948082 325.862213,113.079689 325.752228,112.372299 
	C325.534210,110.970039 324.401398,108.706940 323.516846,108.644684 
	C322.164612,108.549507 320.702423,110.017044 319.180450,111.546486 
M312.239380,114.815262 
	C312.964813,113.238914 313.927856,111.707695 314.242065,110.053238 
	C314.316986,109.658791 312.027405,108.160934 311.177246,108.403557 
	C309.999115,108.739792 308.156036,110.600540 308.362244,111.174362 
	C308.877747,112.608681 310.387909,113.685532 312.239380,114.815262 
z"/>
<path fill="#FE9C33" opacity="1.000000" stroke="none" 
	d="
M425.095978,341.438354 
	C432.419739,340.993896 439.676178,340.990753 447.391235,340.991577 
	C447.900635,351.309570 448.083649,361.625305 447.955566,371.937134 
	C447.870850,378.756805 443.757294,382.158081 436.022186,382.161530 
	C389.925507,382.181946 343.828827,382.172180 297.732147,382.172485 
	C283.586975,382.172607 269.441772,382.172485 255.296585,382.172485 
	C253.502686,382.172485 251.708801,382.172485 249.402832,382.172485 
	C249.402832,379.092133 249.402832,376.478485 249.837311,373.347473 
	C252.600052,371.087036 254.928299,369.344025 257.256531,367.601013 
	C257.078247,368.056305 256.899963,368.511597 256.721710,368.966888 
	C260.995544,370.624969 265.258698,373.692078 269.544891,373.724518 
	C315.505676,374.072571 361.470276,373.999756 407.433502,373.894684 
	C417.316254,373.872101 421.686523,367.696594 419.269836,357.955536 
	C424.062836,353.626251 425.543823,348.110504 425.095978,341.438354 
z"/>
<path fill="#EAEAFF" opacity="1.000000" stroke="none" 
	d="
M94.331955,231.151749 
	C93.998192,224.649933 93.998428,218.288483 93.998306,211.457825 
	C97.717529,209.967865 99.242172,207.586929 99.056213,203.697845 
	C98.836990,199.112732 99.010338,194.508850 99.428116,189.403427 
	C103.055817,187.191010 106.184242,185.299042 109.496391,183.817886 
	C124.861832,176.946655 140.936432,172.723328 157.677338,170.847382 
	C159.994278,170.587753 163.829697,171.462128 164.456757,166.987122 
	C171.952972,166.971466 178.982224,167.009308 186.011459,167.047134 
	C186.009796,169.709259 186.008133,172.371399 185.545273,175.534531 
	C178.516571,176.050980 171.921555,175.729935 165.396362,176.263184 
	C163.091476,176.451553 160.957138,178.726685 158.330093,180.036438 
	C142.049011,181.787674 126.896675,185.638412 114.007317,195.667252 
	C104.112854,203.365829 103.175308,223.875870 112.107094,232.627884 
	C119.834969,240.200226 132.484940,239.309052 143.167343,232.984482 
	C148.865402,229.610916 153.448730,224.354538 158.664948,220.325180 
	C159.431229,224.090027 161.670944,225.120316 164.872864,225.115723 
	C172.263397,225.105087 179.654175,225.238998 187.044846,225.314285 
	C188.328018,228.175568 189.611191,231.036835 190.504913,234.333206 
	C182.728806,234.727234 175.342133,234.686172 167.955475,234.645111 
	C167.034348,232.021622 166.113235,229.398132 164.699463,225.371506 
	C147.144455,247.344284 125.226456,252.275604 99.544540,245.076691 
	C99.112564,242.545486 98.944046,240.066925 99.030891,237.597351 
	C99.145439,234.340027 97.810081,232.225082 94.331955,231.151749 
z"/>
<path fill="#FF7402" opacity="1.000000" stroke="none" 
	d="
M418.907898,358.093323 
	C421.686523,367.696594 417.316254,373.872101 407.433502,373.894684 
	C361.470276,373.999756 315.505676,374.072571 269.544891,373.724518 
	C265.258698,373.692078 260.995544,370.624969 256.721710,368.966888 
	C256.899963,368.511597 257.078247,368.056305 257.256531,367.601013 
	C254.928299,369.344025 252.600052,371.087036 249.970688,372.914581 
	C249.556290,370.680298 249.358276,368.361969 249.345993,366.042603 
	C249.312439,359.702423 254.484299,356.732605 260.465668,359.255737 
	C262.991272,360.321167 265.911499,360.925751 268.654053,360.931549 
	C315.311066,361.030426 361.968536,361.058380 408.625092,360.882751 
	C411.935333,360.870331 415.239136,359.154724 418.907898,358.093323 
z"/>
<path fill="#FFFFFF" opacity="1.000000" stroke="none" 
	d="
M163.989777,167.040619 
	C163.829697,171.462128 159.994278,170.587753 157.677338,170.847382 
	C140.936432,172.723328 124.861832,176.946655 109.496391,183.817886 
	C106.184242,185.299042 103.055817,187.191010 99.497543,188.938721 
	C99.109642,182.303696 99.066948,175.623657 99.505753,168.470901 
	C106.209465,167.956451 111.913834,166.683472 115.118004,160.628906 
	C118.323944,154.570984 116.173157,149.307312 112.583420,144.103638 
	C111.179100,142.067947 110.818634,139.312149 109.982750,136.884323 
	C126.352715,136.823166 142.722672,136.762024 159.589142,137.186340 
	C161.069946,141.107452 162.054245,144.543091 162.799713,148.189117 
	C163.035522,149.266098 163.510147,150.132660 163.989929,151.400940 
	C163.980927,153.406281 163.966782,155.009933 163.578308,156.719971 
	C161.768585,158.527557 158.934067,160.537872 159.225632,161.857544 
	C159.663483,163.839355 162.292465,165.337067 163.989777,167.040619 
z"/>
<path fill="#FF9D33" opacity="1.000000" stroke="none" 
	d="
M66.081238,341.461670 
	C73.407555,340.993774 80.664040,340.991425 88.378220,340.993408 
	C88.850739,346.810577 89.043007,352.568420 93.913773,357.671204 
	C93.822395,370.307007 97.338692,373.943726 109.128059,373.942322 
	C138.378052,373.938782 167.628052,373.921722 196.878052,373.910126 
	C196.878052,376.397034 196.878052,378.883911 196.878052,382.170593 
	C195.343948,382.170593 193.766510,382.170593 192.189072,382.170593 
	C154.425476,382.170502 116.661880,382.176605 78.898285,382.166077 
	C69.218643,382.163391 66.002632,378.968018 65.990105,369.376190 
	C65.978157,360.226562 66.002831,351.076843 66.081238,341.461670 
z"/>
<path fill="#CAA4C7" opacity="1.000000" stroke="none" 
	d="
M339.529663,392.668823 
	C336.721863,396.167114 333.474487,399.537415 330.205475,402.886658 
	C326.821747,406.353363 323.417145,409.799683 320.013672,413.619080 
	C296.700470,414.007141 273.395264,414.031067 249.633347,414.059143 
	C249.176620,407.118561 249.176620,400.173828 249.176620,392.531586 
	C279.886749,392.531586 309.483643,392.531586 339.529663,392.668823 
z"/>
<path fill="#F5F1FE" opacity="1.000000" stroke="none" 
	d="
M395.588409,202.092438 
	C395.982178,215.998184 395.982178,215.998169 382.072266,215.998169 
	C351.837128,215.998154 321.602020,215.998428 291.366882,215.998016 
	C281.644714,215.997894 281.008636,215.349701 281.001923,205.450195 
	C281.001343,204.619553 280.998505,203.788925 280.996399,202.505981 
	C283.446075,202.394958 285.895477,203.028625 288.346130,203.033417 
	C321.836914,203.098907 355.327881,203.094299 388.818695,203.037796 
	C390.937805,203.034225 393.055939,202.460144 395.588409,202.092438 
z"/>
<path fill="#FF7402" opacity="1.000000" stroke="none" 
	d="
M196.959305,373.459290 
	C167.628052,373.921722 138.378052,373.938782 109.128059,373.942322 
	C97.338692,373.943726 93.822395,370.307007 94.094193,357.936768 
	C98.514626,358.637482 102.890541,360.795929 107.290092,360.845215 
	C135.193192,361.157776 163.101532,361.003967 191.008133,361.003967 
	C192.812790,361.003967 194.617447,361.003967 197.040558,361.003967 
	C197.040558,365.176971 197.040558,369.092712 196.959305,373.459290 
z"/>
<path fill="#D1A5C4" opacity="1.000000" stroke="none" 
	d="
M130.472046,413.998230 
	C135.664734,408.661102 141.382812,403.392365 146.943588,397.962585 
	C148.229141,396.707306 148.976776,394.901123 149.961426,393.017059 
	C165.400238,392.685669 180.849564,392.685669 197.136688,392.685669 
	C197.136688,399.487000 197.136688,406.240692 197.137634,413.457764 
	C192.404404,413.966553 187.670227,414.011932 182.470932,414.092407 
	C180.836441,414.226532 179.667068,414.325562 177.858368,414.667603 
	C176.477036,414.918182 175.735077,414.925781 174.993103,414.933411 
	C172.890976,414.628479 170.790558,414.073975 168.686447,414.059570 
	C156.104843,413.973389 143.522385,414.011597 130.472046,413.998230 
z"/>
<path fill="#FD6B6D" opacity="1.000000" stroke="none" 
	d="
M239.056000,373.955811 
	C239.140228,385.246246 239.229919,396.536682 239.293243,407.827240 
	C239.296585,408.422699 239.076508,409.019379 238.836411,410.252350 
	C234.907776,407.620514 231.281998,405.377563 227.867508,402.849274 
	C224.755127,400.544617 221.955002,400.447357 218.812225,402.790588 
	C215.368118,405.358551 211.716949,407.648773 207.126007,410.757416 
	C207.126007,398.185242 207.126007,386.534607 207.654633,374.424957 
	C218.474182,373.962585 228.765091,373.959198 239.056000,373.955811 
z"/>
<path fill="#CEA6C7" opacity="1.000000" stroke="none" 
	d="
M244.391876,419.744904 
	C244.820404,424.975403 245.131424,430.314331 244.850662,435.621948 
	C244.485596,442.522888 240.727921,444.397858 234.902512,440.900757 
	C233.478989,440.046234 232.095612,439.112549 230.760345,438.125214 
	C223.105103,432.464630 223.196152,432.575378 215.445007,438.020935 
	C212.402863,440.158173 209.854950,444.379578 205.086090,442.008392 
	C200.267303,439.612335 202.344772,435.031067 202.068924,431.293213 
	C201.812393,427.817291 202.033142,424.306183 202.064911,420.332764 
	C207.577576,422.316437 211.936859,419.906860 216.383621,416.874451 
	C224.796432,411.137390 221.547699,411.107178 230.269424,416.882263 
	C234.551865,419.717896 238.628647,422.547485 244.391876,419.744904 
z"/>
<path fill="#E9E9FF" opacity="1.000000" stroke="none" 
	d="
M163.952621,156.613571 
	C163.966782,155.009933 163.980927,153.406281 163.991837,151.067261 
	C163.671906,149.547501 163.355209,148.763107 163.038528,147.978714 
	C162.054245,144.543091 161.069946,141.107452 160.046616,137.300934 
	C167.356354,136.834106 174.705139,136.738190 182.507294,136.760468 
	C183.982208,143.166290 185.003769,149.453918 185.571274,156.268158 
	C178.062363,156.734360 171.007492,156.673965 163.952621,156.613571 
z"/>
<path fill="#EBEBFF" opacity="1.000000" stroke="none" 
	d="
M109.548065,136.768860 
	C110.818634,139.312149 111.179100,142.067947 112.583420,144.103638 
	C116.173157,149.307312 118.323944,154.570984 115.118004,160.628906 
	C111.913834,166.683472 106.209465,167.956451 99.570145,168.007355 
	C99.104073,160.887344 99.029900,153.758179 99.012306,146.628891 
	C98.988449,136.961273 99.483612,136.490860 109.548065,136.768860 
z"/>
<path fill="#FE4E4F" opacity="1.000000" stroke="none" 
	d="
M239.150818,373.501953 
	C228.765091,373.959198 218.474182,373.962585 207.733612,373.959503 
	C207.283936,369.844177 207.283936,365.735321 207.283936,361.317688 
	C217.842590,361.317688 228.201630,361.317688 239.245651,361.317688 
	C239.245651,365.239777 239.245651,369.143921 239.150818,373.501953 
z"/>
<path fill="#8785FD" opacity="1.000000" stroke="none" 
	d="
M103.104904,447.730072 
	C105.359718,449.994720 107.419945,451.936279 109.335419,454.011475 
	C111.556755,456.417999 111.920525,459.208282 109.551537,461.565918 
	C107.184044,463.922089 104.435455,463.511719 101.988472,461.328064 
	C100.763359,460.234772 99.587677,459.086090 98.065331,457.658295 
	C96.480522,459.095337 95.233139,461.065186 93.564369,461.533539 
	C91.332817,462.159790 87.825912,462.551239 86.622597,461.323120 
	C85.412254,460.087860 85.531891,456.294647 86.549667,454.431183 
	C88.003677,451.768890 90.853210,449.887787 93.020584,447.591766 
	C96.286949,444.131622 99.525513,443.962128 103.104904,447.730072 
z"/>
<path fill="#FFCBCC" opacity="1.000000" stroke="none" 
	d="
M175.003433,415.276978 
	C175.735077,414.925781 176.477036,414.918182 177.588745,414.896057 
	C177.454620,415.755737 176.950729,416.629913 176.446838,417.504089 
	C175.969162,416.876251 175.491470,416.248413 175.003433,415.276978 
z"/>
<path fill="#FFCBCC" opacity="1.000000" stroke="none" 
	d="
M169.530121,423.044098 
	C169.182419,423.254364 168.837555,423.251526 168.494690,423.223969 
	C168.485291,423.223206 168.491409,422.831573 168.500244,422.831146 
	C168.843857,422.814789 169.188629,422.822784 169.530121,423.044098 
z"/>
<path fill="#FFCBCC" opacity="1.000000" stroke="none" 
	d="
M154.410248,435.661377 
	C154.307175,436.054352 154.056671,436.292053 153.806168,436.529724 
	C153.708023,436.425903 153.518738,436.237122 153.524872,436.230530 
	C153.759674,435.978638 154.012451,435.743500 154.410248,435.661377 
z"/>
<path fill="#FFCBCC" opacity="1.000000" stroke="none" 
	d="
M145.589722,443.338623 
	C145.692841,442.945740 145.943359,442.708038 146.193878,442.470337 
	C146.291992,442.574158 146.481247,442.762970 146.475098,442.769531 
	C146.240219,443.021332 145.987488,443.256500 145.589722,443.338623 
z"/>
<path fill="#FFCBCC" opacity="1.000000" stroke="none" 
	d="
M122.469864,462.955994 
	C122.817581,462.745697 123.162437,462.748505 123.505310,462.776093 
	C123.514694,462.776825 123.508583,463.168579 123.499756,463.169006 
	C123.156143,463.185364 122.811371,463.177307 122.469864,462.955994 
z"/>
<path fill="#FFCBCC" opacity="1.000000" stroke="none" 
	d="
M114.661316,469.589783 
	C115.054276,469.692902 115.291977,469.943451 115.529671,470.193970 
	C115.425850,470.292114 115.237022,470.481384 115.230461,470.475220 
	C114.978607,470.240356 114.743431,469.987579 114.661316,469.589783 
z"/>
<path fill="#FFCBCC" opacity="1.000000" stroke="none" 
	d="
M99.589691,483.338684 
	C99.692825,482.945679 99.943352,482.707947 100.193886,482.470245 
	C100.292007,482.574066 100.481262,482.762848 100.475105,482.769470 
	C100.240234,483.021362 99.987473,483.256531 99.589691,483.338684 
z"/>
<path fill="#FF6E6E" opacity="1.000000" stroke="none" 
	d="
M293.824951,49.712677 
	C293.810028,52.287457 293.917938,54.137150 297.080811,54.218102 
	C298.384949,54.251480 299.660736,55.392879 301.273315,56.164730 
	C301.597198,56.299145 301.722717,56.287712 301.751038,56.636723 
	C301.833679,58.317436 301.887970,59.649136 301.942261,60.980843 
	C299.744629,62.409264 297.546997,63.837677 294.398987,65.883827 
	C291.940247,73.085030 289.470917,74.273628 284.098724,69.314667 
	C282.995789,67.397964 282.367554,64.703339 281.143341,64.397972 
	C277.994995,63.612686 275.253632,62.333828 276.238861,59.075603 
	C276.859619,57.022800 279.842926,55.666981 281.813721,54.056431 
	C282.154907,53.777599 282.732513,53.788002 282.532074,53.045601 
	C284.351166,50.790520 285.852386,48.051720 288.157837,46.536709 
	C288.990509,45.989548 291.751801,48.377331 293.824951,49.712677 
z"/>
<path fill="#FF9E39" opacity="1.000000" stroke="none" 
	d="
M255.399567,88.973480 
	C253.163101,87.331627 251.320282,85.690117 249.130051,83.739159 
	C247.492325,85.117180 246.091187,87.069740 244.264267,87.627403 
	C242.218781,88.251801 238.952988,88.460426 237.759277,87.284973 
	C236.567871,86.111778 236.348343,82.374840 237.356567,80.869629 
	C239.522034,77.636719 242.431046,74.624550 245.678635,72.509079 
	C247.338516,71.427841 251.098679,71.549492 252.660400,72.751045 
	C256.131104,75.421333 258.814789,79.114616 261.979004,82.694786 
	C261.927002,87.011894 260.006287,89.210068 255.399567,88.973480 
z"/>
<path fill="#FFBFBF" opacity="1.000000" stroke="none" 
	d="
M302.289948,60.943802 
	C301.887970,59.649136 301.833679,58.317436 301.796997,56.593597 
	C303.682281,55.972870 305.549957,55.744270 307.417633,55.515671 
	C307.619537,55.849583 307.821472,56.183495 308.023407,56.517410 
	C306.228149,57.980530 304.432892,59.443645 302.289948,60.943802 
z"/>
<path fill="#FFC4C4" opacity="1.000000" stroke="none" 
	d="
M329.038940,93.610123 
	C328.551056,93.946053 328.112518,93.956337 327.345581,93.951256 
	C327.796173,92.329475 328.575195,90.723045 329.354218,89.116615 
	C329.760956,89.303238 330.167694,89.489861 330.574432,89.676491 
	C330.079041,90.879150 329.583649,92.081810 329.038940,93.610123 
z"/>
<path fill="#FFC4C4" opacity="1.000000" stroke="none" 
	d="
M384.410278,42.661350 
	C384.307129,43.054325 384.056580,43.292038 383.806030,43.529743 
	C383.707916,43.425900 383.518677,43.237099 383.524841,43.230484 
	C383.759705,42.978615 384.012482,42.743465 384.410278,42.661350 
z"/>
<path fill="#FF9E35" opacity="1.000000" stroke="none" 
	d="
M186.000000,299.114960 
	C199.480927,299.115112 212.461914,299.091187 225.442749,299.125702 
	C231.721817,299.142426 233.093521,300.522614 233.130814,306.704132 
	C233.161926,311.863007 233.123169,317.022247 233.131927,322.181305 
	C233.138596,326.106140 231.127014,327.993317 227.273819,327.993866 
	C192.325180,327.998840 157.376556,328.000031 122.427925,327.990173 
	C118.477715,327.989044 116.731010,325.854645 116.753181,322.013580 
	C116.781982,317.021088 116.735062,312.028198 116.758797,307.035675 
	C116.790512,300.365997 117.979210,299.132538 124.589516,299.124512 
	C144.892990,299.099792 165.196503,299.115143 186.000000,299.114960 
z"/>
<path fill="#8686FF" opacity="1.000000" stroke="none" 
	d="
M177.000000,273.849548 
	C193.664154,273.850250 209.828369,273.870941 225.992447,273.836639 
	C229.586807,273.828979 233.080917,274.139069 232.976990,278.811798 
	C232.877701,283.276489 229.503586,283.881592 225.871933,283.879883 
	C191.877197,283.863800 157.882477,283.871826 123.887749,283.868622 
	C120.298187,283.868256 116.893242,283.315857 116.921738,278.719055 
	C116.950920,274.012207 120.453400,273.831635 124.008156,273.837616 
	C141.505386,273.867035 159.002716,273.850189 177.000000,273.849548 
z"/>
<path fill="#8686FF" opacity="1.000000" stroke="none" 
	d="
M220.915894,254.092499 
	C223.733093,254.123749 226.408463,253.453033 228.302185,254.379684 
	C230.272903,255.343979 232.388733,257.715179 232.692993,259.734619 
	C232.871872,260.921875 229.715683,263.787445 227.942368,263.890961 
	C219.969955,264.356384 211.955582,264.107330 203.956329,264.107971 
	C177.792007,264.110077 151.627686,264.110107 125.463364,264.105072 
	C123.964462,264.104767 122.161713,264.566772 121.038689,263.902924 
	C119.399101,262.933777 117.303635,261.230377 117.151878,259.669800 
	C116.997826,258.085785 118.616112,255.789780 120.113747,254.748169 
	C121.412552,253.844849 123.628349,254.115875 125.439095,254.114166 
	C157.102890,254.084366 188.766739,254.092514 220.915894,254.092499 
z"/>
<path fill="#8686FF" opacity="1.000000" stroke="none" 
	d="
M186.093674,195.631348 
	C199.567841,195.705353 213.041962,195.805817 226.516235,195.834381 
	C229.791885,195.841324 232.800949,196.345444 232.982941,200.318665 
	C233.185043,204.731277 230.146927,205.865723 226.377258,205.869507 
	C213.231598,205.882751 200.085938,205.902847 186.009216,205.928833 
	C177.720123,205.953705 170.362076,205.970062 162.698547,205.802170 
	C161.232590,203.825134 158.878677,201.757080 159.212708,200.309052 
	C159.633514,198.484894 162.250046,197.167252 164.385406,195.715500 
	C171.932266,195.743729 179.012970,195.687531 186.093674,195.631348 
z"/>
<path fill="#8686FF" opacity="1.000000" stroke="none" 
	d="
M187.505219,225.239517 
	C179.654175,225.238998 172.263397,225.105087 164.872864,225.115723 
	C161.670944,225.120316 159.431229,224.090027 158.773773,220.002716 
	C159.209518,218.286224 159.666229,217.269409 160.521179,216.134064 
	C162.849838,215.701904 164.774658,215.164246 166.711746,215.115692 
	C173.145172,214.954483 179.583008,214.969208 186.019150,214.916473 
	C199.332886,214.975632 212.648575,214.935501 225.958344,215.196655 
	C228.054001,215.237778 230.525513,216.198761 232.053345,217.583740 
	C232.972168,218.416626 233.138641,221.510635 232.323837,222.483719 
	C231.150894,223.884491 228.789474,224.961975 226.914520,224.994949 
	C213.934570,225.223221 200.949219,225.144730 187.505219,225.239517 
z"/>
<path fill="#8686FF" opacity="1.000000" stroke="none" 
	d="
M158.744949,180.049088 
	C160.957138,178.726685 163.091476,176.451553 165.396362,176.263184 
	C171.921555,175.729935 178.516571,176.050980 185.551300,175.977661 
	C198.329895,175.977386 210.641251,176.035339 222.952606,176.092087 
	C224.283875,176.098221 225.615585,176.077316 226.946396,176.103912 
	C230.339798,176.171753 232.961929,177.404053 232.993942,181.209885 
	C233.026917,185.130798 230.356598,186.129059 226.933105,186.117279 
	C216.449295,186.081177 205.965271,186.103195 195.481339,186.111145 
	C192.652679,186.113297 189.824036,186.145828 186.067169,186.153564 
	C178.069992,186.190720 171.001053,186.238754 163.565948,186.197540 
	C159.686722,185.579666 158.799179,183.120712 158.744949,180.049088 
z"/>
<path fill="#8686FF" opacity="1.000000" stroke="none" 
	d="
M163.578308,156.719971 
	C171.007492,156.673965 178.062363,156.734360 185.581757,156.705627 
	C199.526306,156.695221 213.010590,156.623199 226.481995,157.005493 
	C228.650497,157.067047 231.729050,158.633270 232.689575,160.417603 
	C234.467361,163.720184 231.284332,166.811523 226.396317,166.843826 
	C213.244522,166.930740 200.091965,166.901367 186.475586,166.982651 
	C178.982224,167.009308 171.952972,166.971466 164.456757,166.987122 
	C162.292465,165.337067 159.663483,163.839355 159.225632,161.857544 
	C158.934067,160.537872 161.768585,158.527557 163.578308,156.719971 
z"/>
<path fill="#8686FF" opacity="1.000000" stroke="none" 
	d="
M167.532364,234.716187 
	C175.342133,234.686172 182.728806,234.727234 190.574371,234.655457 
	C194.701553,234.589981 198.369858,234.637314 202.913681,234.721619 
	C205.549820,234.687988 207.310440,234.617371 209.071045,234.546738 
	C214.891556,234.649017 220.711945,234.818481 226.532623,234.828629 
	C230.077805,234.834824 233.107346,235.563644 232.986099,239.843140 
	C232.869308,243.965546 229.853790,244.873505 226.341278,244.872131 
	C206.192413,244.864197 186.043549,244.862122 165.894684,244.875778 
	C162.226151,244.878265 158.968307,244.120148 158.964828,239.641602 
	C158.961472,235.314911 162.150696,234.735291 165.612030,234.840302 
	C166.110107,234.855408 166.610138,234.806549 167.532364,234.716187 
z"/>
<path fill="#EBEBFF" opacity="1.000000" stroke="none" 
	d="
M186.013000,214.474335 
	C179.583008,214.969208 173.145172,214.954483 166.711746,215.115692 
	C164.774658,215.164246 162.849838,215.701904 160.525574,215.741028 
	C161.089188,212.306503 162.046616,209.146469 163.004028,205.986435 
	C170.362076,205.970062 177.720123,205.953705 185.545059,205.993805 
	C186.010254,208.710907 186.008545,211.371552 186.013000,214.474335 
z"/>
<path fill="#E5E5FF" opacity="1.000000" stroke="none" 
	d="
M163.932129,186.286804 
	C171.001053,186.238754 178.069992,186.190720 185.608246,186.220306 
	C186.065720,189.130188 186.053864,191.962448 186.067841,195.213028 
	C179.012970,195.687531 171.932266,195.743729 164.406265,195.296631 
	C163.951355,191.957825 163.941742,189.122299 163.932129,186.286804 
z"/>
<path fill="#EAEAFF" opacity="1.000000" stroke="none" 
	d="
M208.993530,234.245880 
	C207.310440,234.617371 205.549820,234.687988 203.362000,234.640167 
	C204.785843,232.849655 206.387512,228.591125 208.993530,234.245880 
z"/>
<path fill="#8383FF" opacity="1.000000" stroke="none" 
	d="
M281.208130,324.232819 
	C281.060333,291.360046 281.035034,258.914368 280.976013,226.468796 
	C280.967957,222.050049 283.238525,220.115173 287.464661,220.111557 
	C294.453247,220.105591 301.442017,220.079178 308.430298,220.125229 
	C312.890533,220.154617 315.040771,222.308853 315.030823,226.942703 
	C314.963348,258.391235 314.976685,289.839996 315.015869,321.288605 
	C315.021545,325.840759 313.006134,328.055725 308.396851,328.012024 
	C301.408875,327.945801 294.405182,328.245972 287.440094,327.841125 
	C285.345551,327.719391 283.357086,325.771362 281.208130,324.232819 
z"/>
<path fill="#8686FF" opacity="1.000000" stroke="none" 
	d="
M385.971741,230.107452 
	C368.146393,230.107056 350.815247,230.071182 333.484436,230.134964 
	C329.879425,230.148254 326.280731,229.862549 326.211121,225.383362 
	C326.138489,220.708954 329.781525,220.070374 333.613922,220.077225 
	C353.444550,220.112686 373.275299,220.092300 393.105988,220.101929 
	C394.102386,220.102402 395.462311,219.807312 396.026672,220.328293 
	C397.692291,221.865891 400.259125,223.809555 400.170258,225.471146 
	C400.083862,227.086365 397.368256,229.352066 395.411987,229.886978 
	C392.618774,230.650742 389.465546,230.097916 385.971741,230.107452 
z"/>
<path fill="#8787FF" opacity="1.000000" stroke="none" 
	d="
M394.405945,249.858353 
	C374.183014,249.867828 354.401703,249.874176 334.620361,249.862091 
	C333.130066,249.861176 331.239624,250.272583 330.239288,249.536057 
	C328.557007,248.297424 326.179474,246.091614 326.405762,244.657272 
	C326.687164,242.873077 329.150635,241.208176 331.000153,239.990570 
	C331.932953,239.376480 333.590210,239.853180 334.919891,239.853058 
	C354.535004,239.851334 374.150177,239.881653 393.765106,239.824448 
	C397.101013,239.814697 399.986725,240.508347 400.394592,244.260330 
	C400.804260,248.029083 398.212769,249.481598 394.405945,249.858353 
z"/>
<path fill="#8787FF" opacity="1.000000" stroke="none" 
	d="
M328.187439,318.741516 
	C330.151276,318.277130 331.780273,317.883484 333.410156,317.880035 
	C353.363983,317.837677 373.317902,317.851929 393.271820,317.854614 
	C394.102905,317.854736 395.220856,317.546204 395.713226,317.962830 
	C397.438843,319.422882 399.934204,320.983582 400.219208,322.806030 
	C400.435150,324.186646 397.749390,327.427063 396.318817,327.448669 
	C374.381470,327.780029 352.436279,327.879028 330.498016,327.610413 
	C326.190033,327.557678 325.203522,323.438934 328.187439,318.741516 
z"/>
<path fill="#8686FF" opacity="1.000000" stroke="none" 
	d="
M364.000000,269.107788 
	C353.168549,269.106506 342.836609,269.047333 332.505920,269.136292 
	C329.049744,269.166016 326.280823,268.163727 326.190094,264.408356 
	C326.093414,260.404480 328.986908,259.099243 332.592346,259.098877 
	C353.088593,259.096802 373.584839,259.094330 394.081085,259.105377 
	C397.427643,259.107178 400.342346,260.257935 400.425293,263.971100 
	C400.514404,267.959778 397.696991,269.170959 393.994354,269.136993 
	C384.163635,269.046722 374.331543,269.107208 364.000000,269.107788 
z"/>
<path fill="#8787FF" opacity="1.000000" stroke="none" 
	d="
M330.768280,288.780518 
	C328.956024,286.760132 326.427887,284.791656 326.430237,282.826233 
	C326.434357,279.411407 329.607086,278.817444 332.720276,278.825836 
	C353.005310,278.880585 373.290680,278.888123 393.575623,278.820618 
	C397.120728,278.808807 400.286224,279.548798 400.420624,283.562500 
	C400.565857,287.901062 397.236694,288.874969 393.542938,288.871796 
	C372.759125,288.853882 351.975281,288.845459 330.768280,288.780518 
z"/>
<path fill="#8787FF" opacity="1.000000" stroke="none" 
	d="
M345.002777,308.149353 
	C340.337067,308.146545 336.170013,308.095490 332.004578,308.155884 
	C328.678101,308.204102 326.271240,306.840454 326.178802,303.418823 
	C326.079132,299.730225 328.613708,298.151276 332.084137,298.147369 
	C352.915894,298.123871 373.747711,298.123444 394.579407,298.155640 
	C397.778870,298.160614 400.369110,299.557312 400.438049,302.978302 
	C400.511505,306.623047 398.071686,308.159454 394.498474,308.153107 
	C378.166412,308.123993 361.834259,308.145782 345.002777,308.149353 
z"/>
<path fill="#FFFCFC" opacity="1.000000" stroke="none" 
	d="
M333.952271,168.946381 
	C332.470703,169.778381 331.339508,170.488190 330.157623,171.099991 
	C326.929260,172.771149 325.198425,171.224991 325.116608,168.128830 
	C324.914185,160.469391 324.959595,152.799423 325.093597,145.136978 
	C325.149414,141.945999 327.403168,140.906250 329.921478,142.272095 
	C336.797089,146.001205 343.592712,149.908432 350.190491,154.105835 
	C353.304840,156.087128 351.900879,158.392609 349.355560,159.929535 
	C344.367584,162.941376 339.308929,165.836212 333.952271,168.946381 
z"/>
<path fill="#FF736F" opacity="1.000000" stroke="none" 
	d="
M299.970764,114.939453 
	C298.852386,113.395447 297.789917,111.913422 297.553741,110.309708 
	C297.472504,109.758286 299.579529,108.200737 300.463348,108.358109 
	C301.662323,108.571609 303.696716,110.484436 303.543671,110.810936 
	C302.821198,112.352119 301.474701,113.600754 299.970764,114.939453 
z"/>
<path fill="#FF736F" opacity="1.000000" stroke="none" 
	d="
M319.233673,111.183830 
	C320.702423,110.017044 322.164612,108.549507 323.516846,108.644684 
	C324.401398,108.706940 325.534210,110.970039 325.752228,112.372299 
	C325.862213,113.079689 323.746582,114.948082 323.391968,114.771965 
	C321.837555,113.999969 320.559052,112.672485 319.233673,111.183830 
z"/>
<path fill="#FF716E" opacity="1.000000" stroke="none" 
	d="
M311.869141,114.860542 
	C310.387909,113.685532 308.877747,112.608681 308.362244,111.174362 
	C308.156036,110.600540 309.999115,108.739792 311.177246,108.403557 
	C312.027405,108.160934 314.316986,109.658791 314.242065,110.053238 
	C313.927856,111.707695 312.964813,113.238914 311.869141,114.860542 
z"/>
<path fill="#FFFFFF" opacity="1.000000" stroke="none" 
	d="
M163.565964,186.197525 
	C163.941742,189.122299 163.951355,191.957825 163.940109,195.212204 
	C162.250046,197.167252 159.633514,198.484894 159.212708,200.309052 
	C158.878677,201.757080 161.232590,203.825134 162.698547,205.802170 
	C162.046616,209.146469 161.089188,212.306503 160.127365,215.859573 
	C159.666229,217.269409 159.209518,218.286224 158.643982,219.625488 
	C153.448730,224.354538 148.865402,229.610916 143.167343,232.984482 
	C132.484940,239.309052 119.834969,240.200226 112.107094,232.627884 
	C103.175308,223.875870 104.112854,203.365829 114.007317,195.667252 
	C126.896675,185.638412 142.049011,181.787674 158.330093,180.036438 
	C158.799179,183.120712 159.686722,185.579666 163.565964,186.197525 
z"/>
<path fill="#FEFEFF" opacity="1.000000" stroke="none" 
	d="
M162.799713,148.189117 
	C163.355209,148.763107 163.671906,149.547501 163.986694,150.665558 
	C163.510147,150.132660 163.035522,149.266098 162.799713,148.189117 
z"/>
</svg>