<svg width="109" height="113" viewBox="0 0 109 113" fill="none" xmlns="http://www.w3.org/2000/svg">
<path d="M9.7953 91.4502H23.7983V110.88C23.7807 111.434 23.9918 111.971 24.37 112.367C24.757 112.763 25.2848 112.991 25.8301 113H83.2493C83.8034 112.991 84.3312 112.763 84.7094 112.367C85.0964 111.971 85.2987 111.434 85.2811 110.88V91.4502H99.2841C104.394 91.4502 108.678 87.0787 108.678 81.7748V24.382C108.678 24.3732 108.678 24.3732 108.678 24.3644C108.678 24.3556 108.678 24.3556 108.678 24.3468V9.63143C108.678 4.32755 104.394 0 99.2841 0H9.7953C4.68493 0 0.41017 4.33634 0.41017 9.63143V81.7836C0.401374 87.0787 4.68493 91.4502 9.7953 91.4502ZM81.0855 108.796H27.9939V89.7966C27.9939 89.6383 28.0554 89.4624 28.0554 89.2864C28.0554 89.1105 27.9939 88.9434 27.9939 88.7851V36.7929H67.1529V48.6321C67.1881 49.802 68.1556 50.7343 69.3255 50.7255H81.0767V108.796H81.0855ZM78.1741 46.5123H71.3573V39.7835L78.1741 46.5123ZM99.2929 87.2458H85.2899V48.6321C85.2811 48.0516 85.07 47.4887 84.7094 47.0401H84.727L70.812 33.1691V33.1867C70.4162 32.7996 69.8884 32.5797 69.3343 32.5885H25.8301C25.276 32.5973 24.7482 32.826 24.37 33.2218C23.983 33.6177 23.7807 34.1542 23.7983 34.7083V87.2458H9.7953C7.00703 87.2458 4.61457 84.7566 4.61457 81.7748V26.537H104.482V81.7836C104.474 84.7654 102.081 87.2458 99.2929 87.2458ZM9.7953 4.20441H99.2929C102.081 4.20441 104.482 6.64965 104.482 9.63143V22.3414H4.60577V9.63143C4.60577 6.64965 7.00703 4.20441 9.7953 4.20441Z" fill="#0E1A2D"/>
<path d="M28.892 20.4943C32.683 20.4943 35.7703 17.3014 35.7703 13.3873C35.7703 9.47316 32.683 6.28027 28.892 6.28027C25.101 6.28027 22.0137 9.47316 22.0137 13.3873C22.0137 17.3014 25.0922 20.4943 28.892 20.4943ZM28.892 10.4847C30.3609 10.4847 31.5659 11.7865 31.5659 13.3873C31.5659 14.9881 30.3697 16.2899 28.892 16.2899C27.4143 16.2899 26.2181 14.9881 26.2181 13.3873C26.2181 11.7865 27.4143 10.4759 28.892 10.4847Z" fill="#0E1A2D"/>
<path d="M44.3978 20.4943C48.1888 20.4943 51.2762 17.3014 51.2762 13.3873C51.2762 9.47316 48.1888 6.28027 44.3978 6.28027C40.6068 6.28027 37.5195 9.47316 37.5195 13.3873C37.5195 17.3014 40.6068 20.4943 44.3978 20.4943ZM44.3978 10.4847C45.8668 10.4847 47.0718 11.7865 47.0718 13.3873C47.0718 14.9881 45.8755 16.2899 44.3978 16.2899C42.9201 16.2899 41.7239 14.9881 41.7239 13.3873C41.7239 11.7865 42.9289 10.4759 44.3978 10.4847Z" fill="#0E1A2D"/>
<path d="M13.3744 20.4943C17.1654 20.4943 20.2528 17.3014 20.2528 13.3873C20.2528 9.47316 17.1654 6.28027 13.3744 6.28027C9.58344 6.28027 6.49609 9.47316 6.49609 13.3873C6.49609 17.3014 9.58344 20.4943 13.3744 20.4943ZM13.3744 10.4847C14.8433 10.4847 16.0484 11.7865 16.0484 13.3873C16.0484 14.9881 14.8521 16.2899 13.3744 16.2899C11.9055 16.2899 10.7005 14.9881 10.7005 13.3873C10.7005 11.7865 11.8967 10.4759 13.3744 10.4847Z" fill="#0E1A2D"/>
<path d="M66.8093 98.5488H36.1823C35.0212 98.5488 34.0801 99.49 34.0801 100.651C34.0801 101.812 35.0212 102.753 36.1823 102.753H66.8093C67.9704 102.753 68.9116 101.812 68.9116 100.651C68.9116 99.49 67.9704 98.5488 66.8093 98.5488Z" fill="#0E1A2D"/>
<path d="M36.1823 95.6546H55.6122C56.7733 95.6546 57.7145 94.7134 57.7145 93.5524C57.7145 92.3913 56.7733 91.4502 55.6122 91.4502H36.1823C35.0212 91.4502 34.0801 92.3913 34.0801 93.5524C34.0801 94.7134 35.0212 95.6546 36.1823 95.6546Z" fill="#0E1A2D"/>
<path d="M69.0441 57.2782C69.3607 56.6625 69.3695 55.9412 69.0792 55.3167C68.7802 54.6922 68.2084 54.2524 67.5312 54.1205L65.3586 53.6983L65.429 51.4818C65.4465 50.7957 65.1475 50.136 64.6109 49.705C64.0744 49.274 63.3619 49.1245 62.6935 49.3004L60.5561 49.8633L59.6501 47.8315C59.3687 47.1982 58.8057 46.7408 58.1372 46.5913C57.4688 46.4417 56.7651 46.6089 56.2373 47.0575L54.5485 48.4912L52.8597 47.0575C52.332 46.6089 51.6283 46.4329 50.9598 46.5913C50.2826 46.7408 49.7284 47.207 49.447 47.8403L48.5498 49.8721L46.4124 49.3092C45.7439 49.1333 45.0314 49.2828 44.4949 49.7138C43.9584 50.1448 43.6505 50.8045 43.6681 51.4906L43.7384 53.7071L41.5747 54.1293C40.8974 54.2612 40.3257 54.701 40.0266 55.3255C39.7276 55.95 39.7364 56.6713 40.053 57.287L41.0733 59.2485L39.3054 60.5766C38.7512 60.99 38.4258 61.6409 38.4258 62.327C38.4258 63.0131 38.7512 63.664 39.2966 64.0774L41.0733 65.4143L40.053 67.3846C39.7364 68.0003 39.7276 68.7216 40.0178 69.3461C40.3169 69.9706 40.8886 70.4104 41.5659 70.5423L43.7384 70.9645L43.6681 73.1811C43.6505 73.8671 43.9496 74.5268 44.4949 74.9578C44.5389 74.993 44.5917 75.0282 44.6444 75.0634L41.7946 81.9857C41.3548 83.05 41.5747 84.2638 42.3575 85.1082C43.1403 85.9526 44.3366 86.2605 45.4273 85.9086L47.5998 85.205L48.5322 87.1137C49.0247 88.1252 50.0539 88.7673 51.1797 88.7673C51.2149 88.7673 51.2413 88.7673 51.2765 88.7673C52.4375 88.7321 53.4667 88.0108 53.9064 86.9377L54.6189 85.1962L55.2258 86.6914C55.6656 87.7645 56.6947 88.477 57.8558 88.521C57.8909 88.521 57.9173 88.521 57.9525 88.521C59.0784 88.521 60.0987 87.8789 60.6001 86.8674L61.5324 84.9587L63.705 85.6623C64.7957 86.0142 65.9919 85.7063 66.7747 84.8619C67.5575 84.0175 67.7687 82.8037 67.3377 81.7394L64.567 75.0106C64.5934 74.993 64.6109 74.9754 64.6373 74.9578C65.1739 74.5268 65.4817 73.8671 65.4641 73.1811L65.3938 70.9645L67.5576 70.5423C68.2348 70.4104 68.8066 69.9706 69.1056 69.3461C69.4047 68.7304 69.3959 68.0003 69.0792 67.3846L68.0589 65.4143L69.8357 64.0774C70.381 63.664 70.7065 63.0131 70.7065 62.327C70.7065 61.6409 70.381 60.99 69.8357 60.5766L68.0589 59.2485L69.0441 57.2782ZM51.0566 82.7069L50.8895 82.3551C50.2386 81.0445 48.7345 80.4024 47.336 80.8422L46.7114 81.0445L48.928 75.6527L49.4381 76.8049C49.79 77.5966 50.5728 78.0979 51.4348 78.0979C51.5227 78.0979 51.6107 78.0891 51.6987 78.0803L52.3232 79.602L51.0566 82.7069ZM61.7523 80.5872C60.3538 80.1386 58.8497 80.7807 58.1988 82.0912L58.0229 82.4431L55.9295 77.3239L56.2197 77.5702C56.7475 78.0188 57.4511 78.1947 58.1196 78.0364C58.7969 77.8868 59.351 77.4206 59.6325 76.7873L60.1955 75.512L62.3592 80.7719L61.7523 80.5872ZM64.136 63.0659C63.274 63.708 63.0101 64.8778 63.5115 65.819L64.0744 66.9096L62.8694 67.1471C61.8139 67.3494 61.0662 68.2906 61.1014 69.3637L61.1366 70.5951L59.9579 70.2872C58.92 70.0058 57.8294 70.5335 57.3984 71.5098L56.897 72.6357L55.9559 71.8353C55.1378 71.1404 53.9416 71.1404 53.1236 71.8353L52.1824 72.6357L51.6811 71.5098C51.2501 70.5247 50.1682 70.0058 49.1303 70.2784L47.9429 70.5863L47.978 69.3549C48.0132 68.2818 47.2656 67.3406 46.2101 67.1383L45.005 66.9008L45.568 65.819C46.0694 64.869 45.8055 63.6992 44.9435 63.0571L43.9496 62.3094L44.9435 61.5706C45.8055 60.9285 46.0694 59.7586 45.568 58.8175L45.005 57.7268L46.2101 57.4893C47.2656 57.287 48.0132 56.3458 47.978 55.2728L47.9429 54.0413L49.1303 54.3492C50.1682 54.6219 51.2501 54.1029 51.6811 53.1178L52.1824 51.9919L53.1148 52.7835C53.9328 53.4872 55.1378 53.4872 55.9471 52.7835L56.8882 51.9831L57.3896 53.1178C57.8206 54.1029 58.9025 54.6219 59.9404 54.3404L61.1278 54.0325L61.0926 55.264C61.0574 56.3371 61.8051 57.2782 62.8606 57.4805L64.0656 57.718L63.5027 58.8087C63.0013 59.7586 63.274 60.9285 64.1272 61.5706L65.1123 62.3094L64.136 63.0659Z" fill="#0E1A2D"/>
<path d="M54.5391 54.6484C50.2995 54.6484 46.8691 58.0876 46.8691 62.3184C46.8691 66.558 50.3083 69.9884 54.5391 69.9884C58.7699 69.9884 62.209 66.5492 62.209 62.3184C62.209 58.0876 58.7787 54.6572 54.5391 54.6484ZM54.5391 65.7927C52.6216 65.7927 51.0735 64.2359 51.0735 62.3272C51.0735 60.4097 52.6304 58.8616 54.5391 58.8616C56.4566 58.8616 58.0046 60.4185 58.0046 62.3272C58.0134 64.2359 56.4566 65.7927 54.5391 65.7927Z" fill="#0E1A2D"/>
</svg>
